G04 #@! TF.GenerationSoftware,KiCad,Pcbnew,7.0.10*
G04 #@! TF.CreationDate,2024-04-22T20:11:16+02:00*
G04 #@! TF.ProjectId,Lily58_Pro_TOP,4c696c79-3538-45f5-9072-6f5f544f502e,rev?*
G04 #@! TF.SameCoordinates,Original*
G04 #@! TF.FileFunction,Copper,L2,Bot*
G04 #@! TF.FilePolarity,Positive*
%FSLAX46Y46*%
G04 Gerber Fmt 4.6, Leading zero omitted, Abs format (unit mm)*
G04 Created by KiCad (PCBNEW 7.0.10) date 2024-04-22 20:11:16*
%MOMM*%
%LPD*%
G01*
G04 APERTURE LIST*
G04 #@! TA.AperFunction,ComponentPad*
%ADD10C,4.000000*%
G04 #@! TD*
G04 APERTURE END LIST*
D10*
X129600000Y-57700000D03*
X205800000Y-59900000D03*
X205800000Y-98100000D03*
X129600000Y-95700000D03*
X105000000Y-112900000D03*
G04 #@! TA.AperFunction,NonConductor*
G36*
X111510367Y-35205647D02*
G01*
X111578344Y-35226122D01*
X111624462Y-35280101D01*
X111634076Y-35350443D01*
X111604133Y-35414817D01*
X111590279Y-35427775D01*
X111586373Y-35431889D01*
X111575197Y-35442312D01*
X111271074Y-35693227D01*
X111258572Y-35702313D01*
X111256894Y-35703381D01*
X111252206Y-35707527D01*
X111248062Y-35712214D01*
X111246988Y-35713902D01*
X111237909Y-35726398D01*
X110987039Y-36030575D01*
X110976618Y-36041754D01*
X110975059Y-36043234D01*
X110971296Y-36048144D01*
X110968156Y-36053472D01*
X110967366Y-36055476D01*
X110960911Y-36069320D01*
X110933198Y-36120420D01*
X110883140Y-36170766D01*
X110813809Y-36186056D01*
X110747218Y-36161436D01*
X110704509Y-36104722D01*
X110696439Y-36059833D01*
X110699476Y-35326352D01*
X110719760Y-35258318D01*
X110773608Y-35212048D01*
X110826350Y-35200880D01*
X111510367Y-35205647D01*
G37*
G04 #@! TD.AperFunction*
G04 #@! TA.AperFunction,NonConductor*
G36*
X204782383Y-35855626D02*
G01*
X204837847Y-35868923D01*
X205700000Y-36300000D01*
X209664439Y-36782161D01*
X209729646Y-36810241D01*
X209769321Y-36869117D01*
X209770866Y-36940097D01*
X209733792Y-37000645D01*
X209669869Y-37031537D01*
X209634902Y-37032422D01*
X208455131Y-36897426D01*
X208452021Y-36896837D01*
X208430255Y-36894573D01*
X208428970Y-36894432D01*
X208407207Y-36891942D01*
X208404025Y-36891845D01*
X206433174Y-36686873D01*
X206430314Y-36686361D01*
X206408160Y-36684267D01*
X206406990Y-36684151D01*
X206384908Y-36681855D01*
X206381996Y-36681795D01*
X204320716Y-36487044D01*
X204318055Y-36486591D01*
X204295711Y-36484676D01*
X204294629Y-36484579D01*
X204272204Y-36482461D01*
X204269501Y-36482429D01*
X202366465Y-36319331D01*
X202121267Y-36298316D01*
X202118763Y-36297913D01*
X202096019Y-36296149D01*
X202095011Y-36296067D01*
X202072534Y-36294141D01*
X202070011Y-36294133D01*
X199838599Y-36121096D01*
X199836258Y-36120738D01*
X199813509Y-36119147D01*
X199812565Y-36119077D01*
X199789688Y-36117304D01*
X199787294Y-36117315D01*
X199198575Y-36076162D01*
X199076364Y-36067619D01*
X199009805Y-36042917D01*
X198967166Y-35986150D01*
X198961987Y-35915342D01*
X198995912Y-35852975D01*
X199058169Y-35818850D01*
X199086024Y-35815930D01*
X204782383Y-35855626D01*
G37*
G04 #@! TD.AperFunction*
G04 #@! TA.AperFunction,NonConductor*
G36*
X213096645Y-37199592D02*
G01*
X213103304Y-37200583D01*
X213475026Y-37266181D01*
X213578080Y-37284367D01*
X213641688Y-37315903D01*
X213678149Y-37376822D01*
X213675886Y-37447783D01*
X213635619Y-37506256D01*
X213570131Y-37533676D01*
X213538853Y-37533253D01*
X212212887Y-37349135D01*
X212209130Y-37348333D01*
X212188276Y-37345707D01*
X212186701Y-37345499D01*
X212165763Y-37342592D01*
X212161927Y-37342388D01*
X211556906Y-37266181D01*
X211491819Y-37237823D01*
X211452396Y-37178778D01*
X211451153Y-37107792D01*
X211488486Y-37047403D01*
X211552540Y-37016784D01*
X211587859Y-37016091D01*
X213096645Y-37199592D01*
G37*
G04 #@! TD.AperFunction*
G04 #@! TA.AperFunction,NonConductor*
G36*
X219657153Y-38357144D02*
G01*
X219893581Y-38398867D01*
X219906272Y-38401792D01*
X220122664Y-38463618D01*
X220165940Y-38475983D01*
X220225945Y-38513930D01*
X220255908Y-38578294D01*
X220246317Y-38648640D01*
X220200217Y-38702633D01*
X220132244Y-38723132D01*
X220101747Y-38719614D01*
X219769641Y-38639411D01*
X219762440Y-38637168D01*
X219758848Y-38636402D01*
X219758846Y-38636401D01*
X219746241Y-38633714D01*
X219742972Y-38632971D01*
X219742827Y-38632936D01*
X219730449Y-38629947D01*
X219730448Y-38629947D01*
X219726895Y-38629089D01*
X219719425Y-38627997D01*
X219608997Y-38604460D01*
X219546542Y-38570697D01*
X219512256Y-38508528D01*
X219517024Y-38437692D01*
X219559331Y-38380678D01*
X219625747Y-38355588D01*
X219657153Y-38357144D01*
G37*
G04 #@! TD.AperFunction*
G04 #@! TA.AperFunction,NonConductor*
G36*
X223063645Y-39303898D02*
G01*
X223385341Y-39395811D01*
X223413236Y-39407564D01*
X223583510Y-39504864D01*
X223632731Y-39556028D01*
X223646478Y-39625681D01*
X223620384Y-39691709D01*
X223562736Y-39733148D01*
X223491836Y-39736841D01*
X223475766Y-39731864D01*
X222983802Y-39542653D01*
X222927402Y-39499531D01*
X222903268Y-39432762D01*
X222919064Y-39363545D01*
X222969774Y-39313855D01*
X223039298Y-39299470D01*
X223063645Y-39303898D01*
G37*
G04 #@! TD.AperFunction*
G04 #@! TA.AperFunction,NonConductor*
G36*
X225252340Y-40459128D02*
G01*
X225262935Y-40464534D01*
X225436516Y-40563723D01*
X225485736Y-40614885D01*
X225500001Y-40673120D01*
X225500001Y-40750205D01*
X225479999Y-40818326D01*
X225426343Y-40864819D01*
X225356069Y-40874923D01*
X225291489Y-40845429D01*
X225270580Y-40822177D01*
X225244143Y-40784188D01*
X225239915Y-40777697D01*
X225235268Y-40770058D01*
X225235267Y-40770056D01*
X225235264Y-40770053D01*
X225233826Y-40768358D01*
X225233271Y-40767636D01*
X225232624Y-40767024D01*
X225231078Y-40765414D01*
X225223933Y-40759997D01*
X225217909Y-40755131D01*
X225118294Y-40669483D01*
X225079680Y-40609905D01*
X225079407Y-40538909D01*
X225117561Y-40479036D01*
X225182028Y-40449294D01*
X225252340Y-40459128D01*
G37*
G04 #@! TD.AperFunction*
G04 #@! TA.AperFunction,NonConductor*
G36*
X108798730Y-85033236D02*
G01*
X108846227Y-85086005D01*
X108857655Y-85156076D01*
X108829385Y-85221201D01*
X108770394Y-85260705D01*
X108745242Y-85265866D01*
X108481094Y-85292458D01*
X108468472Y-85293092D01*
X107323746Y-85293083D01*
X107255625Y-85273080D01*
X107209133Y-85219424D01*
X107199030Y-85149150D01*
X107228523Y-85084570D01*
X107288250Y-85046187D01*
X107321360Y-85041106D01*
X108730249Y-85014523D01*
X108798730Y-85033236D01*
G37*
G04 #@! TD.AperFunction*
G04 #@! TA.AperFunction,NonConductor*
G36*
X83794514Y-85505015D02*
G01*
X83842011Y-85557784D01*
X83853439Y-85627855D01*
X83825169Y-85692980D01*
X83808488Y-85709555D01*
X83520943Y-85946278D01*
X83508781Y-85955128D01*
X83506785Y-85956405D01*
X83502229Y-85960451D01*
X83498192Y-85965008D01*
X83496918Y-85967006D01*
X83488084Y-85979179D01*
X83238501Y-86283145D01*
X83228334Y-86294127D01*
X83226573Y-86295815D01*
X83226349Y-86296111D01*
X83225985Y-86296379D01*
X83219427Y-86302669D01*
X83218612Y-86301819D01*
X83169223Y-86338267D01*
X83098374Y-86342846D01*
X83036296Y-86308394D01*
X83002700Y-86245850D01*
X83000001Y-86219912D01*
X83000001Y-85623645D01*
X83020003Y-85555524D01*
X83073659Y-85509031D01*
X83123621Y-85497667D01*
X83726029Y-85486301D01*
X83794514Y-85505015D01*
G37*
G04 #@! TD.AperFunction*
G04 #@! TA.AperFunction,NonConductor*
G36*
X225421073Y-118209606D02*
G01*
X225476789Y-118253609D01*
X225499870Y-118320748D01*
X225500001Y-118326483D01*
X225500001Y-118874000D01*
X225479999Y-118942121D01*
X225426343Y-118988614D01*
X225374001Y-119000000D01*
X224734677Y-119000000D01*
X224666556Y-118979998D01*
X224620063Y-118926342D01*
X224609959Y-118856068D01*
X224639453Y-118791488D01*
X224674597Y-118763246D01*
X224832698Y-118677486D01*
X224846549Y-118671030D01*
X224848551Y-118670241D01*
X224848555Y-118670237D01*
X224853876Y-118667101D01*
X224858780Y-118663340D01*
X224858787Y-118663337D01*
X224860257Y-118661788D01*
X224871440Y-118651358D01*
X225072045Y-118485878D01*
X225084556Y-118476790D01*
X225086227Y-118475727D01*
X225086231Y-118475721D01*
X225090916Y-118471580D01*
X225095056Y-118466898D01*
X225095060Y-118466895D01*
X225096128Y-118465216D01*
X225105218Y-118452703D01*
X225270686Y-118252111D01*
X225281108Y-118240936D01*
X225282668Y-118239455D01*
X225282668Y-118239453D01*
X225287240Y-118235113D01*
X225350412Y-118202711D01*
X225421073Y-118209606D01*
G37*
G04 #@! TD.AperFunction*
G04 #@! TA.AperFunction,NonConductor*
G36*
X178449229Y-132696882D02*
G01*
X178491934Y-132753599D01*
X178500001Y-132797960D01*
X178500001Y-133374000D01*
X178479999Y-133442121D01*
X178426343Y-133488614D01*
X178374001Y-133500000D01*
X177927925Y-133500000D01*
X177859804Y-133479998D01*
X177813311Y-133426342D01*
X177803207Y-133356068D01*
X177832701Y-133291488D01*
X177847746Y-133276803D01*
X177931392Y-133207802D01*
X177943897Y-133198718D01*
X177945575Y-133197651D01*
X177945578Y-133197646D01*
X177945581Y-133197645D01*
X177950262Y-133193506D01*
X177954401Y-133188825D01*
X177954402Y-133188822D01*
X177954407Y-133188819D01*
X177955474Y-133187141D01*
X177964556Y-133174639D01*
X178130033Y-132974035D01*
X178140473Y-132962843D01*
X178142016Y-132961378D01*
X178142018Y-132961373D01*
X178145781Y-132956466D01*
X178148916Y-132951148D01*
X178148916Y-132951146D01*
X178148921Y-132951141D01*
X178149714Y-132949128D01*
X178156160Y-132935301D01*
X178263247Y-132737880D01*
X178313308Y-132687541D01*
X178382640Y-132672257D01*
X178449229Y-132696882D01*
G37*
G04 #@! TD.AperFunction*
G04 #@! TA.AperFunction,NonConductor*
G36*
X115882358Y-35236113D02*
G01*
X190321209Y-35754851D01*
X190326418Y-35754998D01*
X192490743Y-35861652D01*
X192491431Y-35861688D01*
X195000201Y-36001760D01*
X195000609Y-36001785D01*
X197437182Y-36154528D01*
X197437610Y-36154556D01*
X199797830Y-36319541D01*
X199798299Y-36319575D01*
X202078943Y-36496429D01*
X202079648Y-36496487D01*
X204276632Y-36684777D01*
X204277606Y-36684866D01*
X206387240Y-36884186D01*
X206388364Y-36884297D01*
X207662259Y-37016784D01*
X208407095Y-37094248D01*
X208408385Y-37094389D01*
X210332781Y-37314589D01*
X210334050Y-37314741D01*
X212160155Y-37544753D01*
X212161738Y-37544962D01*
X212327762Y-37568015D01*
X213886197Y-37784412D01*
X213887758Y-37784641D01*
X215506681Y-38033086D01*
X215508493Y-38033379D01*
X217017981Y-38290363D01*
X217020196Y-38290762D01*
X218416469Y-38555826D01*
X218419098Y-38556356D01*
X219698467Y-38829046D01*
X219701654Y-38829770D01*
X220859981Y-39109503D01*
X220863984Y-39110540D01*
X221892012Y-39395231D01*
X221897322Y-39396702D01*
X221902394Y-39398222D01*
X222806417Y-39689986D01*
X222812915Y-39692283D01*
X223326612Y-39889851D01*
X223582947Y-39988439D01*
X223591616Y-39992151D01*
X224222434Y-40290692D01*
X224234279Y-40297093D01*
X224719806Y-40594097D01*
X224736183Y-40606028D01*
X225070342Y-40893334D01*
X225091615Y-40916900D01*
X225274835Y-41180177D01*
X225294171Y-41223746D01*
X225354173Y-41483064D01*
X225357416Y-41511468D01*
X225357416Y-117327205D01*
X225356783Y-117339824D01*
X225329753Y-117608367D01*
X225324733Y-117633063D01*
X225305573Y-117694854D01*
X225250747Y-117871667D01*
X225241155Y-117894426D01*
X225124013Y-118110383D01*
X225110456Y-118130484D01*
X224955136Y-118318774D01*
X224938117Y-118335794D01*
X224749809Y-118491130D01*
X224729707Y-118504687D01*
X224513755Y-118621826D01*
X224490994Y-118631418D01*
X224252397Y-118705400D01*
X224227700Y-118710419D01*
X223959157Y-118737450D01*
X223946538Y-118738084D01*
X181841574Y-118738084D01*
X181832956Y-118737158D01*
X181832934Y-118737558D01*
X181823036Y-118736995D01*
X181823035Y-118736995D01*
X181818506Y-118737451D01*
X181805888Y-118738084D01*
X181801347Y-118738084D01*
X181801344Y-118738084D01*
X181791558Y-118739635D01*
X181791495Y-118739241D01*
X181783019Y-118741022D01*
X181114200Y-118808340D01*
X181099895Y-118808962D01*
X181096880Y-118808921D01*
X181091137Y-118809751D01*
X181085532Y-118811227D01*
X181082765Y-118812445D01*
X181069350Y-118817457D01*
X180437233Y-119013462D01*
X180422843Y-119017012D01*
X180420317Y-119017479D01*
X180414652Y-119019482D01*
X180409273Y-119022133D01*
X180407173Y-119023616D01*
X180394584Y-119031436D01*
X179823869Y-119341010D01*
X179810022Y-119347467D01*
X179809210Y-119347787D01*
X179808014Y-119348259D01*
X179802687Y-119351399D01*
X179797773Y-119355167D01*
X179796293Y-119356726D01*
X179785118Y-119367146D01*
X179288589Y-119776732D01*
X179276089Y-119785814D01*
X179274407Y-119786884D01*
X179269717Y-119791030D01*
X179265568Y-119795724D01*
X179264497Y-119797406D01*
X179255417Y-119809901D01*
X178845829Y-120306434D01*
X178835410Y-120317609D01*
X178833847Y-120319093D01*
X178830078Y-120324009D01*
X178826938Y-120329336D01*
X178826143Y-120331352D01*
X178819690Y-120345187D01*
X178510112Y-120915910D01*
X178502292Y-120928499D01*
X178500813Y-120930593D01*
X178498157Y-120935983D01*
X178496159Y-120941634D01*
X178495692Y-120944162D01*
X178492141Y-120958558D01*
X178296136Y-121590672D01*
X178291126Y-121604082D01*
X178289907Y-121606852D01*
X178288432Y-121612454D01*
X178287601Y-121618200D01*
X178287642Y-121621216D01*
X178287020Y-121635521D01*
X178219702Y-122304339D01*
X178217921Y-122312815D01*
X178218315Y-122312878D01*
X178216764Y-122322670D01*
X178216764Y-122327207D01*
X178216131Y-122339824D01*
X178215675Y-122344354D01*
X178216238Y-122354255D01*
X178215838Y-122354277D01*
X178216764Y-122362895D01*
X178216764Y-132049129D01*
X178216131Y-132061748D01*
X178189101Y-132330290D01*
X178184081Y-132354989D01*
X178110095Y-132593589D01*
X178100503Y-132616348D01*
X177983363Y-132832303D01*
X177969806Y-132852404D01*
X177814476Y-133040706D01*
X177797456Y-133057726D01*
X177609160Y-133213051D01*
X177589063Y-133226606D01*
X177469450Y-133291488D01*
X177373105Y-133343748D01*
X177350346Y-133353339D01*
X177111745Y-133427325D01*
X177087046Y-133432345D01*
X176818505Y-133459375D01*
X176805886Y-133460008D01*
X117910511Y-133460008D01*
X117891058Y-133455885D01*
X117891000Y-133456452D01*
X117871150Y-133454390D01*
X117871149Y-133454390D01*
X117847833Y-133459375D01*
X117823646Y-133464546D01*
X117819619Y-133466097D01*
X117801326Y-133474254D01*
X117798978Y-133475017D01*
X117782837Y-133486744D01*
X117781802Y-133485320D01*
X117771093Y-133494972D01*
X117484304Y-133661008D01*
X116147956Y-134434683D01*
X116118773Y-134451579D01*
X116118772Y-134451579D01*
X114472262Y-135404821D01*
X114472261Y-135404822D01*
X112796568Y-136374961D01*
X111120873Y-137345099D01*
X111120872Y-137345100D01*
X109445179Y-138315239D01*
X107769484Y-139285377D01*
X107769483Y-139285378D01*
X106093790Y-140255517D01*
X106093789Y-140255517D01*
X104406340Y-141232459D01*
X104404064Y-141233745D01*
X104244434Y-141321791D01*
X104222364Y-141331344D01*
X104140108Y-141357955D01*
X104112122Y-141363608D01*
X104025184Y-141371086D01*
X104013103Y-141371543D01*
X103943259Y-141370832D01*
X103907132Y-141365157D01*
X103845245Y-141345915D01*
X103830072Y-141340100D01*
X103745763Y-141301381D01*
X103731210Y-141293502D01*
X103625260Y-141226787D01*
X103594370Y-141199324D01*
X103532936Y-141123247D01*
X103522335Y-141107927D01*
X103123613Y-140429465D01*
X101841103Y-138247156D01*
X101841102Y-138247155D01*
X100159426Y-135385629D01*
X100159424Y-135385627D01*
X98477750Y-132524102D01*
X98477749Y-132524101D01*
X96796073Y-129662575D01*
X96796072Y-129662574D01*
X95114396Y-126801048D01*
X95114394Y-126801046D01*
X93432720Y-123939521D01*
X93432719Y-123939520D01*
X92574329Y-122478891D01*
X95331790Y-122478891D01*
X95333189Y-122505569D01*
X95333857Y-122508711D01*
X95350184Y-122536989D01*
X95366511Y-122565268D01*
X102229077Y-134451579D01*
X102325573Y-134618714D01*
X102325576Y-134618721D01*
X102366521Y-134689641D01*
X102368914Y-134691796D01*
X102391308Y-134706338D01*
X102397190Y-134708957D01*
X102422984Y-134715869D01*
X102426183Y-134716205D01*
X102426185Y-134716206D01*
X102426186Y-134716205D01*
X102429394Y-134716543D01*
X102456046Y-134715145D01*
X102459201Y-134714475D01*
X102459201Y-134714474D01*
X102459202Y-134714475D01*
X102502214Y-134689642D01*
X108750737Y-131082055D01*
X122897974Y-131082055D01*
X122898967Y-131085113D01*
X122911092Y-131108908D01*
X122914878Y-131114119D01*
X122933758Y-131132998D01*
X122938972Y-131136786D01*
X122962751Y-131148903D01*
X122965820Y-131149900D01*
X137031325Y-131149900D01*
X137034394Y-131148902D01*
X137058166Y-131136789D01*
X137060778Y-131134890D01*
X137060781Y-131134890D01*
X137060782Y-131134888D01*
X137063391Y-131132993D01*
X137082262Y-131114122D01*
X137084157Y-131111513D01*
X137084159Y-131111512D01*
X137084159Y-131111509D01*
X137086058Y-131108897D01*
X137098171Y-131085125D01*
X137099169Y-131082055D01*
X137099169Y-128831620D01*
X141898531Y-128831620D01*
X141899524Y-128834678D01*
X141911649Y-128858473D01*
X141915435Y-128863684D01*
X141934315Y-128882563D01*
X141939529Y-128886351D01*
X141963308Y-128898468D01*
X141966377Y-128899465D01*
X156031882Y-128899465D01*
X156034951Y-128898467D01*
X156058723Y-128886354D01*
X156061335Y-128884455D01*
X156061338Y-128884455D01*
X156061339Y-128884453D01*
X156063948Y-128882558D01*
X156082819Y-128863687D01*
X156084714Y-128861078D01*
X156084716Y-128861077D01*
X156084716Y-128861074D01*
X156086615Y-128858462D01*
X156098728Y-128834690D01*
X156099238Y-128833120D01*
X160999035Y-128833120D01*
X161000028Y-128836178D01*
X161012153Y-128859973D01*
X161015939Y-128865184D01*
X161034819Y-128884063D01*
X161040033Y-128887851D01*
X161063812Y-128899968D01*
X161066881Y-128900965D01*
X175132656Y-128900965D01*
X175135725Y-128899967D01*
X175159497Y-128887854D01*
X175162109Y-128885955D01*
X175162112Y-128885955D01*
X175162113Y-128885953D01*
X175164722Y-128884058D01*
X175183593Y-128865187D01*
X175185488Y-128862578D01*
X175185490Y-128862577D01*
X175185490Y-128862574D01*
X175187389Y-128859962D01*
X175199502Y-128836190D01*
X175200500Y-128833120D01*
X175200500Y-116081903D01*
X208648190Y-116081903D01*
X208649183Y-116084961D01*
X208661308Y-116108756D01*
X208665094Y-116113967D01*
X208683974Y-116132846D01*
X208689188Y-116136634D01*
X208712967Y-116148751D01*
X208716036Y-116149748D01*
X222781540Y-116149748D01*
X222784609Y-116148750D01*
X222808381Y-116136637D01*
X222810993Y-116134738D01*
X222810996Y-116134738D01*
X222810997Y-116134736D01*
X222813606Y-116132841D01*
X222832477Y-116113970D01*
X222834372Y-116111361D01*
X222834374Y-116111360D01*
X222834374Y-116111357D01*
X222836273Y-116108745D01*
X222848386Y-116084973D01*
X222849384Y-116081903D01*
X222849384Y-102016572D01*
X222848387Y-102013504D01*
X222836270Y-101989725D01*
X222832482Y-101984511D01*
X222813603Y-101965631D01*
X222808392Y-101961845D01*
X222784597Y-101949720D01*
X222781539Y-101948727D01*
X222781538Y-101948727D01*
X222764801Y-101948727D01*
X208781344Y-101948727D01*
X208716036Y-101948727D01*
X208716034Y-101948728D01*
X208712974Y-101949722D01*
X208689182Y-101961844D01*
X208683978Y-101965625D01*
X208665088Y-101984515D01*
X208661307Y-101989719D01*
X208649185Y-102013511D01*
X208648190Y-102016574D01*
X208648190Y-116081903D01*
X175200500Y-116081903D01*
X175200500Y-114767345D01*
X175199503Y-114764277D01*
X175187386Y-114740498D01*
X175183598Y-114735284D01*
X175164719Y-114716404D01*
X175159508Y-114712618D01*
X175135713Y-114700493D01*
X175132655Y-114699500D01*
X175132654Y-114699500D01*
X175115917Y-114699500D01*
X161132189Y-114699500D01*
X161066881Y-114699500D01*
X161066879Y-114699501D01*
X161063819Y-114700495D01*
X161040027Y-114712617D01*
X161034823Y-114716398D01*
X161015933Y-114735288D01*
X161012152Y-114740492D01*
X161000030Y-114764284D01*
X160999035Y-114767347D01*
X160999035Y-128833120D01*
X156099238Y-128833120D01*
X156099726Y-128831620D01*
X156099726Y-114766289D01*
X156098729Y-114763221D01*
X156086612Y-114739442D01*
X156082824Y-114734228D01*
X156063945Y-114715348D01*
X156058734Y-114711562D01*
X156034939Y-114699437D01*
X156031881Y-114698444D01*
X156031880Y-114698444D01*
X156015143Y-114698444D01*
X142031685Y-114698444D01*
X141966377Y-114698444D01*
X141966375Y-114698445D01*
X141963315Y-114699439D01*
X141939523Y-114711561D01*
X141934319Y-114715342D01*
X141915429Y-114734232D01*
X141911648Y-114739436D01*
X141899526Y-114763228D01*
X141898531Y-114766291D01*
X141898531Y-128831620D01*
X137099169Y-128831620D01*
X137099169Y-117016724D01*
X137098172Y-117013656D01*
X137086055Y-116989877D01*
X137082267Y-116984663D01*
X137063388Y-116965783D01*
X137058177Y-116961997D01*
X137034382Y-116949872D01*
X137031324Y-116948879D01*
X137031323Y-116948879D01*
X137014586Y-116948879D01*
X123031128Y-116948879D01*
X122965820Y-116948879D01*
X122965818Y-116948880D01*
X122962758Y-116949874D01*
X122938966Y-116961996D01*
X122933762Y-116965777D01*
X122914872Y-116984667D01*
X122911091Y-116989871D01*
X122898969Y-117013663D01*
X122897974Y-117016726D01*
X122897974Y-131082055D01*
X108750737Y-131082055D01*
X114591391Y-127709951D01*
X114615450Y-127699240D01*
X114623867Y-127696506D01*
X114623869Y-127696502D01*
X114632854Y-127689975D01*
X114640281Y-127681725D01*
X114640284Y-127681724D01*
X114640285Y-127681721D01*
X114642442Y-127679326D01*
X114656973Y-127656951D01*
X114658286Y-127654000D01*
X114658290Y-127653997D01*
X114658290Y-127653991D01*
X114658494Y-127653535D01*
X114660440Y-127650165D01*
X114661289Y-127647953D01*
X114662097Y-127644152D01*
X114662252Y-127643673D01*
X114662255Y-127643670D01*
X114662255Y-127643665D01*
X114665685Y-127633113D01*
X114666845Y-127622063D01*
X114666847Y-127622061D01*
X114666846Y-127622058D01*
X114667183Y-127618854D01*
X114665787Y-127592200D01*
X114665007Y-127588527D01*
X114664600Y-127584663D01*
X114663998Y-127582415D01*
X114662418Y-127578865D01*
X114662255Y-127578366D01*
X114662255Y-127578362D01*
X114650030Y-127561535D01*
X114642862Y-127550496D01*
X107640821Y-115422607D01*
X107636697Y-115415464D01*
X107636691Y-115415456D01*
X107632452Y-115408113D01*
X107632450Y-115408112D01*
X107630056Y-115405956D01*
X107607664Y-115391414D01*
X107601788Y-115388798D01*
X107575993Y-115381886D01*
X107569596Y-115381213D01*
X107542910Y-115382612D01*
X107539772Y-115383279D01*
X107530214Y-115388798D01*
X107525278Y-115391648D01*
X95415249Y-122383376D01*
X95391344Y-122397177D01*
X95358690Y-122416030D01*
X95356543Y-122418414D01*
X95341989Y-122440825D01*
X95339375Y-122446697D01*
X95332463Y-122472493D01*
X95331790Y-122478891D01*
X92574329Y-122478891D01*
X91751043Y-121077994D01*
X91751042Y-121077993D01*
X90090319Y-118252121D01*
X90084687Y-118242537D01*
X90082014Y-118237752D01*
X89923346Y-117938498D01*
X89918946Y-117930199D01*
X89918942Y-117930192D01*
X89774107Y-117657028D01*
X89774106Y-117657027D01*
X89624869Y-117375557D01*
X89624869Y-117375556D01*
X89536653Y-117209179D01*
X89529421Y-117192834D01*
X89466022Y-117016726D01*
X87984003Y-112900006D01*
X102486540Y-112900006D01*
X102506357Y-113215007D01*
X102506359Y-113215024D01*
X102565504Y-113525067D01*
X102565507Y-113525080D01*
X102663039Y-113825254D01*
X102663044Y-113825266D01*
X102797438Y-114110869D01*
X102797440Y-114110872D01*
X102797443Y-114110878D01*
X102966562Y-114377368D01*
X103167763Y-114620578D01*
X103167766Y-114620580D01*
X103167767Y-114620582D01*
X103397860Y-114836654D01*
X103653221Y-115022184D01*
X103929821Y-115174247D01*
X104223298Y-115290443D01*
X104529025Y-115368940D01*
X104529033Y-115368941D01*
X104529032Y-115368941D01*
X104642531Y-115383279D01*
X104842179Y-115408500D01*
X104842183Y-115408500D01*
X105157817Y-115408500D01*
X105157821Y-115408500D01*
X105470975Y-115368940D01*
X105776702Y-115290443D01*
X106070179Y-115174247D01*
X106346779Y-115022184D01*
X106602140Y-114836654D01*
X106832233Y-114620582D01*
X106864994Y-114580981D01*
X189599243Y-114580981D01*
X189600236Y-114584039D01*
X189612361Y-114607834D01*
X189616147Y-114613045D01*
X189635027Y-114631924D01*
X189640241Y-114635712D01*
X189664020Y-114647829D01*
X189667089Y-114648826D01*
X203732593Y-114648826D01*
X203735662Y-114647828D01*
X203759434Y-114635715D01*
X203762046Y-114633816D01*
X203762049Y-114633816D01*
X203762050Y-114633814D01*
X203764659Y-114631919D01*
X203783530Y-114613048D01*
X203785425Y-114610439D01*
X203785427Y-114610438D01*
X203785427Y-114610435D01*
X203787326Y-114607823D01*
X203799439Y-114584051D01*
X203800437Y-114580981D01*
X203800437Y-100515650D01*
X203799440Y-100512582D01*
X203787323Y-100488803D01*
X203783535Y-100483589D01*
X203764656Y-100464709D01*
X203759445Y-100460923D01*
X203735650Y-100448798D01*
X203732592Y-100447805D01*
X203732591Y-100447805D01*
X203715854Y-100447805D01*
X189732397Y-100447805D01*
X189667089Y-100447805D01*
X189667087Y-100447806D01*
X189664027Y-100448800D01*
X189640235Y-100460922D01*
X189635031Y-100464703D01*
X189616141Y-100483593D01*
X189612360Y-100488797D01*
X189600238Y-100512589D01*
X189599243Y-100515652D01*
X189599243Y-114580981D01*
X106864994Y-114580981D01*
X107033432Y-114377375D01*
X107033434Y-114377370D01*
X107033437Y-114377368D01*
X107202556Y-114110878D01*
X107202562Y-114110869D01*
X107336956Y-113825266D01*
X107434495Y-113525072D01*
X107493641Y-113215020D01*
X107506568Y-113009547D01*
X107513460Y-112900006D01*
X107513460Y-112899993D01*
X107493642Y-112584992D01*
X107493640Y-112584975D01*
X107434495Y-112274928D01*
X107404699Y-112183226D01*
X113398395Y-112183226D01*
X113399388Y-112186284D01*
X113411513Y-112210079D01*
X113415299Y-112215290D01*
X113434179Y-112234169D01*
X113439393Y-112237957D01*
X113463172Y-112250074D01*
X113466241Y-112251071D01*
X127531745Y-112251071D01*
X127534814Y-112250073D01*
X127558586Y-112237960D01*
X127561198Y-112236061D01*
X127561201Y-112236061D01*
X127561202Y-112236059D01*
X127563811Y-112234164D01*
X127582682Y-112215293D01*
X127584577Y-112212684D01*
X127584579Y-112212683D01*
X127584579Y-112212680D01*
X127586478Y-112210068D01*
X127598591Y-112186296D01*
X127599589Y-112183226D01*
X127599589Y-109881777D01*
X132399588Y-109881777D01*
X132400581Y-109884835D01*
X132412706Y-109908630D01*
X132416492Y-109913841D01*
X132435372Y-109932720D01*
X132440586Y-109936508D01*
X132464365Y-109948625D01*
X132467434Y-109949622D01*
X146532938Y-109949622D01*
X146536007Y-109948624D01*
X146559779Y-109936511D01*
X146562391Y-109934612D01*
X146562394Y-109934612D01*
X146562395Y-109934610D01*
X146565004Y-109932715D01*
X146583875Y-109913844D01*
X146585770Y-109911235D01*
X146585772Y-109911234D01*
X146585772Y-109911231D01*
X146587671Y-109908619D01*
X146599784Y-109884847D01*
X146600712Y-109881991D01*
X170498742Y-109881991D01*
X170499735Y-109885049D01*
X170511860Y-109908844D01*
X170515646Y-109914055D01*
X170534526Y-109932934D01*
X170539740Y-109936722D01*
X170563519Y-109948839D01*
X170566588Y-109949836D01*
X184632092Y-109949836D01*
X184635161Y-109948838D01*
X184658933Y-109936725D01*
X184661545Y-109934826D01*
X184661548Y-109934826D01*
X184661549Y-109934824D01*
X184664158Y-109932929D01*
X184683029Y-109914058D01*
X184684924Y-109911449D01*
X184684926Y-109911448D01*
X184684926Y-109911445D01*
X184686825Y-109908833D01*
X184698938Y-109885061D01*
X184699936Y-109881991D01*
X184699936Y-98100006D01*
X203286540Y-98100006D01*
X203306357Y-98415007D01*
X203306359Y-98415024D01*
X203365504Y-98725067D01*
X203365507Y-98725080D01*
X203463039Y-99025254D01*
X203463044Y-99025266D01*
X203597438Y-99310869D01*
X203597440Y-99310872D01*
X203597443Y-99310878D01*
X203766562Y-99577368D01*
X203967763Y-99820578D01*
X203967766Y-99820580D01*
X203967767Y-99820582D01*
X204197860Y-100036654D01*
X204453221Y-100222184D01*
X204729821Y-100374247D01*
X205023298Y-100490443D01*
X205329025Y-100568940D01*
X205329033Y-100568941D01*
X205329032Y-100568941D01*
X205493129Y-100589670D01*
X205642179Y-100608500D01*
X205642183Y-100608500D01*
X205957817Y-100608500D01*
X205957821Y-100608500D01*
X206270975Y-100568940D01*
X206576702Y-100490443D01*
X206870179Y-100374247D01*
X207146779Y-100222184D01*
X207402140Y-100036654D01*
X207632233Y-99820582D01*
X207833432Y-99577375D01*
X207833434Y-99577370D01*
X207833437Y-99577368D01*
X208002556Y-99310878D01*
X208002562Y-99310869D01*
X208136956Y-99025266D01*
X208234495Y-98725072D01*
X208293641Y-98415020D01*
X208312334Y-98117896D01*
X208313460Y-98100006D01*
X208313460Y-98099993D01*
X208293642Y-97784992D01*
X208293640Y-97784975D01*
X208243955Y-97524521D01*
X208234495Y-97474928D01*
X208216836Y-97420578D01*
X208136960Y-97174745D01*
X208136955Y-97174732D01*
X208108981Y-97115284D01*
X208093891Y-97083217D01*
X208599414Y-97083217D01*
X208600407Y-97086275D01*
X208612532Y-97110070D01*
X208616318Y-97115281D01*
X208635198Y-97134160D01*
X208640412Y-97137948D01*
X208664191Y-97150065D01*
X208667260Y-97151062D01*
X222732764Y-97151062D01*
X222735833Y-97150064D01*
X222759605Y-97137951D01*
X222762217Y-97136052D01*
X222762220Y-97136052D01*
X222762221Y-97136050D01*
X222764830Y-97134155D01*
X222783701Y-97115284D01*
X222785596Y-97112675D01*
X222785598Y-97112674D01*
X222785598Y-97112671D01*
X222787497Y-97110059D01*
X222799610Y-97086287D01*
X222800608Y-97083217D01*
X222800608Y-83017886D01*
X222799611Y-83014818D01*
X222787494Y-82991039D01*
X222783706Y-82985825D01*
X222764827Y-82966945D01*
X222759616Y-82963159D01*
X222735821Y-82951034D01*
X222732763Y-82950041D01*
X222732762Y-82950041D01*
X222716025Y-82950041D01*
X208732568Y-82950041D01*
X208667260Y-82950041D01*
X208667258Y-82950042D01*
X208664198Y-82951036D01*
X208640406Y-82963158D01*
X208635202Y-82966939D01*
X208616312Y-82985829D01*
X208612531Y-82991033D01*
X208600409Y-83014825D01*
X208599414Y-83017888D01*
X208599414Y-97083217D01*
X208093891Y-97083217D01*
X208002562Y-96889131D01*
X208002556Y-96889121D01*
X207833437Y-96622631D01*
X207632236Y-96379421D01*
X207402139Y-96163345D01*
X207146781Y-95977817D01*
X207104385Y-95954509D01*
X206870179Y-95825753D01*
X206576702Y-95709557D01*
X206270975Y-95631060D01*
X206270970Y-95631059D01*
X206270965Y-95631058D01*
X206270967Y-95631058D01*
X205957835Y-95591501D01*
X205957824Y-95591500D01*
X205957821Y-95591500D01*
X205642179Y-95591500D01*
X205642176Y-95591500D01*
X205642164Y-95591501D01*
X205329033Y-95631058D01*
X205329025Y-95631059D01*
X205329025Y-95631060D01*
X205321551Y-95632979D01*
X205023301Y-95709556D01*
X205023299Y-95709556D01*
X205023298Y-95709557D01*
X204820610Y-95789807D01*
X204729821Y-95825753D01*
X204453218Y-95977817D01*
X204197861Y-96163345D01*
X204197860Y-96163345D01*
X203967763Y-96379421D01*
X203766562Y-96622631D01*
X203597443Y-96889121D01*
X203597436Y-96889135D01*
X203463044Y-97174732D01*
X203463039Y-97174745D01*
X203365507Y-97474919D01*
X203365504Y-97474932D01*
X203306359Y-97784975D01*
X203306357Y-97784992D01*
X203286540Y-98099993D01*
X203286540Y-98100006D01*
X184699936Y-98100006D01*
X184699936Y-95816660D01*
X184698939Y-95813592D01*
X184686822Y-95789813D01*
X184683034Y-95784599D01*
X184664155Y-95765719D01*
X184658944Y-95761933D01*
X184635149Y-95749808D01*
X184632091Y-95748815D01*
X184632090Y-95748815D01*
X184615353Y-95748815D01*
X170631896Y-95748815D01*
X170566588Y-95748815D01*
X170566586Y-95748816D01*
X170563526Y-95749810D01*
X170539734Y-95761932D01*
X170534530Y-95765713D01*
X170515640Y-95784603D01*
X170511859Y-95789807D01*
X170499737Y-95813599D01*
X170498742Y-95816662D01*
X170498742Y-109881991D01*
X146600712Y-109881991D01*
X146600782Y-109881777D01*
X146600782Y-108481184D01*
X151498313Y-108481184D01*
X151499306Y-108484242D01*
X151511431Y-108508037D01*
X151515217Y-108513248D01*
X151534097Y-108532127D01*
X151539311Y-108535915D01*
X151563090Y-108548032D01*
X151566159Y-108549029D01*
X165631663Y-108549029D01*
X165634732Y-108548031D01*
X165658504Y-108535918D01*
X165661116Y-108534019D01*
X165661119Y-108534019D01*
X165661120Y-108534017D01*
X165663729Y-108532122D01*
X165682600Y-108513251D01*
X165684495Y-108510642D01*
X165684497Y-108510641D01*
X165684497Y-108510638D01*
X165686396Y-108508026D01*
X165698509Y-108484254D01*
X165699507Y-108481184D01*
X165699507Y-95582036D01*
X189584358Y-95582036D01*
X189585351Y-95585094D01*
X189597476Y-95608889D01*
X189601262Y-95614100D01*
X189620142Y-95632979D01*
X189625356Y-95636767D01*
X189649135Y-95648884D01*
X189652204Y-95649881D01*
X203717708Y-95649881D01*
X203720777Y-95648883D01*
X203744549Y-95636770D01*
X203747161Y-95634871D01*
X203747164Y-95634871D01*
X203747165Y-95634869D01*
X203749774Y-95632974D01*
X203768645Y-95614103D01*
X203770540Y-95611494D01*
X203770542Y-95611493D01*
X203770542Y-95611490D01*
X203772441Y-95608878D01*
X203784554Y-95585106D01*
X203785552Y-95582036D01*
X203785552Y-81516705D01*
X203784555Y-81513637D01*
X203772438Y-81489858D01*
X203768650Y-81484644D01*
X203749771Y-81465764D01*
X203744560Y-81461978D01*
X203720765Y-81449853D01*
X203717707Y-81448860D01*
X203717706Y-81448860D01*
X203700969Y-81448860D01*
X189717512Y-81448860D01*
X189652204Y-81448860D01*
X189652202Y-81448861D01*
X189649142Y-81449855D01*
X189625350Y-81461977D01*
X189620146Y-81465758D01*
X189601256Y-81484648D01*
X189597475Y-81489852D01*
X189585353Y-81513644D01*
X189584358Y-81516707D01*
X189584358Y-95582036D01*
X165699507Y-95582036D01*
X165699507Y-94415853D01*
X165698510Y-94412785D01*
X165686393Y-94389006D01*
X165682605Y-94383792D01*
X165663726Y-94364912D01*
X165658515Y-94361126D01*
X165634720Y-94349001D01*
X165631662Y-94348008D01*
X165631661Y-94348008D01*
X165614924Y-94348008D01*
X151631467Y-94348008D01*
X151566159Y-94348008D01*
X151566157Y-94348009D01*
X151563097Y-94349003D01*
X151539305Y-94361125D01*
X151534101Y-94364906D01*
X151515211Y-94383796D01*
X151511430Y-94389000D01*
X151499308Y-94412792D01*
X151498313Y-94415855D01*
X151498313Y-108481184D01*
X146600782Y-108481184D01*
X146600782Y-95816446D01*
X146599785Y-95813378D01*
X146587668Y-95789599D01*
X146583880Y-95784385D01*
X146565001Y-95765505D01*
X146559790Y-95761719D01*
X146535995Y-95749594D01*
X146532937Y-95748601D01*
X146532936Y-95748601D01*
X146516199Y-95748601D01*
X132532742Y-95748601D01*
X132467434Y-95748601D01*
X132467432Y-95748602D01*
X132464372Y-95749596D01*
X132440580Y-95761718D01*
X132435376Y-95765499D01*
X132416486Y-95784389D01*
X132412705Y-95789593D01*
X132400583Y-95813385D01*
X132399588Y-95816448D01*
X132399588Y-109881777D01*
X127599589Y-109881777D01*
X127599589Y-98117895D01*
X127598592Y-98114827D01*
X127586475Y-98091048D01*
X127582687Y-98085834D01*
X127563808Y-98066954D01*
X127558597Y-98063168D01*
X127534802Y-98051043D01*
X127531744Y-98050050D01*
X127531743Y-98050050D01*
X127515006Y-98050050D01*
X113531549Y-98050050D01*
X113466241Y-98050050D01*
X113466239Y-98050051D01*
X113463179Y-98051045D01*
X113439387Y-98063167D01*
X113434183Y-98066948D01*
X113415293Y-98085838D01*
X113411512Y-98091042D01*
X113399390Y-98114834D01*
X113398395Y-98117897D01*
X113398395Y-112183226D01*
X107404699Y-112183226D01*
X107336956Y-111974734D01*
X107202562Y-111689131D01*
X107202556Y-111689121D01*
X107033437Y-111422631D01*
X106832236Y-111179421D01*
X106602139Y-110963345D01*
X106346781Y-110777817D01*
X106304385Y-110754509D01*
X106070179Y-110625753D01*
X105776702Y-110509557D01*
X105470975Y-110431060D01*
X105470970Y-110431059D01*
X105470965Y-110431058D01*
X105470967Y-110431058D01*
X105157835Y-110391501D01*
X105157824Y-110391500D01*
X105157821Y-110391500D01*
X104842179Y-110391500D01*
X104842176Y-110391500D01*
X104842164Y-110391501D01*
X104529033Y-110431058D01*
X104223301Y-110509556D01*
X103929821Y-110625753D01*
X103653218Y-110777817D01*
X103397861Y-110963345D01*
X103397860Y-110963345D01*
X103167763Y-111179421D01*
X102966562Y-111422631D01*
X102797443Y-111689121D01*
X102797436Y-111689135D01*
X102663044Y-111974732D01*
X102663039Y-111974745D01*
X102565507Y-112274919D01*
X102565504Y-112274932D01*
X102506359Y-112584975D01*
X102506357Y-112584992D01*
X102486540Y-112899993D01*
X102486540Y-112900006D01*
X87984003Y-112900006D01*
X85848683Y-106968562D01*
X85845357Y-106957842D01*
X85682245Y-106335173D01*
X85391403Y-105224907D01*
X85362013Y-105112716D01*
X85359419Y-105100279D01*
X84965945Y-102582047D01*
X94298778Y-102582047D01*
X94299771Y-102585105D01*
X94311896Y-102608900D01*
X94315682Y-102614111D01*
X94334562Y-102632990D01*
X94339776Y-102636778D01*
X94363555Y-102648895D01*
X94366624Y-102649892D01*
X108384124Y-102649892D01*
X108387193Y-102648894D01*
X108410965Y-102636781D01*
X108413577Y-102634882D01*
X108413580Y-102634882D01*
X108413581Y-102634880D01*
X108416190Y-102632985D01*
X108435061Y-102614114D01*
X108436956Y-102611505D01*
X108436958Y-102611504D01*
X108436958Y-102611501D01*
X108438857Y-102608889D01*
X108450970Y-102585117D01*
X108451968Y-102582047D01*
X108451968Y-95700006D01*
X127086540Y-95700006D01*
X127106357Y-96015007D01*
X127106359Y-96015024D01*
X127165504Y-96325067D01*
X127165507Y-96325080D01*
X127263039Y-96625254D01*
X127263044Y-96625266D01*
X127397438Y-96910869D01*
X127397440Y-96910872D01*
X127397443Y-96910878D01*
X127566562Y-97177368D01*
X127767763Y-97420578D01*
X127767766Y-97420580D01*
X127767767Y-97420582D01*
X127997860Y-97636654D01*
X128253221Y-97822184D01*
X128529821Y-97974247D01*
X128823298Y-98090443D01*
X129129025Y-98168940D01*
X129129033Y-98168941D01*
X129129032Y-98168941D01*
X129293129Y-98189670D01*
X129442179Y-98208500D01*
X129442183Y-98208500D01*
X129757817Y-98208500D01*
X129757821Y-98208500D01*
X130070975Y-98168940D01*
X130376702Y-98090443D01*
X130670179Y-97974247D01*
X130946779Y-97822184D01*
X131202140Y-97636654D01*
X131432233Y-97420582D01*
X131633432Y-97177375D01*
X131633434Y-97177370D01*
X131633437Y-97177368D01*
X131802556Y-96910878D01*
X131802562Y-96910869D01*
X131936956Y-96625266D01*
X132034495Y-96325072D01*
X132093641Y-96015020D01*
X132095982Y-95977816D01*
X132113460Y-95700006D01*
X132113460Y-95699993D01*
X132093642Y-95384992D01*
X132093640Y-95384975D01*
X132034495Y-95074928D01*
X131936956Y-94774734D01*
X131802562Y-94489131D01*
X131756060Y-94415855D01*
X131633437Y-94222631D01*
X131432236Y-93979421D01*
X131202139Y-93763345D01*
X130946781Y-93577817D01*
X130904385Y-93554509D01*
X130670179Y-93425753D01*
X130376702Y-93309557D01*
X130070975Y-93231060D01*
X130070970Y-93231059D01*
X130070965Y-93231058D01*
X130070967Y-93231058D01*
X129757835Y-93191501D01*
X129757824Y-93191500D01*
X129757821Y-93191500D01*
X129442179Y-93191500D01*
X129442176Y-93191500D01*
X129442164Y-93191501D01*
X129129033Y-93231058D01*
X129129025Y-93231059D01*
X129129025Y-93231060D01*
X129113555Y-93235032D01*
X128823301Y-93309556D01*
X128529821Y-93425753D01*
X128253218Y-93577817D01*
X127997861Y-93763345D01*
X127997860Y-93763345D01*
X127767763Y-93979421D01*
X127566562Y-94222631D01*
X127397443Y-94489121D01*
X127397436Y-94489135D01*
X127263044Y-94774732D01*
X127263039Y-94774745D01*
X127165507Y-95074919D01*
X127165504Y-95074932D01*
X127106359Y-95384975D01*
X127106357Y-95384992D01*
X127086540Y-95699993D01*
X127086540Y-95700006D01*
X108451968Y-95700006D01*
X108451968Y-93180301D01*
X113398395Y-93180301D01*
X113399388Y-93183359D01*
X113411513Y-93207154D01*
X113415299Y-93212365D01*
X113434179Y-93231244D01*
X113439393Y-93235032D01*
X113463172Y-93247149D01*
X113466241Y-93248146D01*
X127531745Y-93248146D01*
X127534814Y-93247148D01*
X127558586Y-93235035D01*
X127561198Y-93233136D01*
X127561201Y-93233136D01*
X127561202Y-93233134D01*
X127563811Y-93231239D01*
X127582682Y-93212368D01*
X127584577Y-93209759D01*
X127584579Y-93209758D01*
X127584579Y-93209755D01*
X127586478Y-93207143D01*
X127598591Y-93183371D01*
X127599589Y-93180301D01*
X127599589Y-90783266D01*
X132399588Y-90783266D01*
X132400581Y-90786324D01*
X132412706Y-90810119D01*
X132416492Y-90815330D01*
X132435372Y-90834209D01*
X132440586Y-90837997D01*
X132464365Y-90850114D01*
X132467434Y-90851111D01*
X146532938Y-90851111D01*
X146536007Y-90850113D01*
X146559779Y-90838000D01*
X146562391Y-90836101D01*
X146562394Y-90836101D01*
X146562395Y-90836099D01*
X146565004Y-90834204D01*
X146583875Y-90815333D01*
X146585770Y-90812724D01*
X146585772Y-90812723D01*
X146585772Y-90812720D01*
X146587671Y-90810108D01*
X146599784Y-90786336D01*
X146600782Y-90783266D01*
X146600782Y-90781018D01*
X170499506Y-90781018D01*
X170500499Y-90784076D01*
X170512624Y-90807871D01*
X170516410Y-90813082D01*
X170535290Y-90831961D01*
X170540504Y-90835749D01*
X170564283Y-90847866D01*
X170567352Y-90848863D01*
X184632856Y-90848863D01*
X184635925Y-90847865D01*
X184659697Y-90835752D01*
X184662309Y-90833853D01*
X184662312Y-90833853D01*
X184662313Y-90833851D01*
X184664922Y-90831956D01*
X184683793Y-90813085D01*
X184685688Y-90810476D01*
X184685690Y-90810475D01*
X184685690Y-90810472D01*
X184687589Y-90807860D01*
X184699702Y-90784088D01*
X184700700Y-90781018D01*
X184700700Y-77880830D01*
X208597255Y-77880830D01*
X208598248Y-77883888D01*
X208610373Y-77907683D01*
X208614159Y-77912894D01*
X208633039Y-77931773D01*
X208638253Y-77935561D01*
X208662032Y-77947678D01*
X208665101Y-77948675D01*
X222730876Y-77948675D01*
X222733945Y-77947677D01*
X222757717Y-77935564D01*
X222760329Y-77933665D01*
X222760332Y-77933665D01*
X222760333Y-77933663D01*
X222762942Y-77931768D01*
X222781813Y-77912897D01*
X222783708Y-77910288D01*
X222783710Y-77910287D01*
X222783710Y-77910284D01*
X222785609Y-77907672D01*
X222797722Y-77883900D01*
X222798720Y-77880830D01*
X222798720Y-63817594D01*
X222797723Y-63814526D01*
X222785606Y-63790747D01*
X222781818Y-63785533D01*
X222762939Y-63766653D01*
X222757728Y-63762867D01*
X222733933Y-63750742D01*
X222730875Y-63749749D01*
X222730874Y-63749749D01*
X222714137Y-63749749D01*
X208730409Y-63749749D01*
X208665101Y-63749749D01*
X208665099Y-63749750D01*
X208662039Y-63750744D01*
X208638247Y-63762866D01*
X208633043Y-63766647D01*
X208614153Y-63785537D01*
X208610372Y-63790741D01*
X208598250Y-63814533D01*
X208597255Y-63817596D01*
X208597255Y-77880830D01*
X184700700Y-77880830D01*
X184700700Y-76715687D01*
X184699703Y-76712619D01*
X184687586Y-76688840D01*
X184683798Y-76683626D01*
X184664919Y-76664746D01*
X184659708Y-76660960D01*
X184635913Y-76648835D01*
X184632855Y-76647842D01*
X184632854Y-76647842D01*
X184616117Y-76647842D01*
X170632660Y-76647842D01*
X170567352Y-76647842D01*
X170567350Y-76647843D01*
X170564290Y-76648837D01*
X170540498Y-76660959D01*
X170535294Y-76664740D01*
X170516404Y-76683630D01*
X170512623Y-76688834D01*
X170500501Y-76712626D01*
X170499506Y-76715689D01*
X170499506Y-90781018D01*
X146600782Y-90781018D01*
X146600782Y-89480969D01*
X151499455Y-89480969D01*
X151500448Y-89484027D01*
X151512573Y-89507822D01*
X151516359Y-89513033D01*
X151535239Y-89531912D01*
X151540453Y-89535700D01*
X151564232Y-89547817D01*
X151567301Y-89548814D01*
X165632805Y-89548814D01*
X165635874Y-89547816D01*
X165659646Y-89535703D01*
X165662258Y-89533804D01*
X165662261Y-89533804D01*
X165662262Y-89533802D01*
X165664871Y-89531907D01*
X165683742Y-89513036D01*
X165685637Y-89510427D01*
X165685639Y-89510426D01*
X165685639Y-89510423D01*
X165687538Y-89507811D01*
X165699651Y-89484039D01*
X165700649Y-89480969D01*
X165700649Y-76382218D01*
X189598231Y-76382218D01*
X189599224Y-76385276D01*
X189611349Y-76409071D01*
X189615135Y-76414282D01*
X189634015Y-76433161D01*
X189639229Y-76436949D01*
X189663008Y-76449066D01*
X189666077Y-76450063D01*
X203731581Y-76450063D01*
X203734650Y-76449065D01*
X203758422Y-76436952D01*
X203761034Y-76435053D01*
X203761037Y-76435053D01*
X203761038Y-76435051D01*
X203763647Y-76433156D01*
X203782518Y-76414285D01*
X203784413Y-76411676D01*
X203784415Y-76411675D01*
X203784415Y-76411672D01*
X203786314Y-76409060D01*
X203798427Y-76385288D01*
X203799425Y-76382218D01*
X203799425Y-62316887D01*
X203798428Y-62313819D01*
X203786311Y-62290040D01*
X203782523Y-62284826D01*
X203763644Y-62265946D01*
X203758433Y-62262160D01*
X203734638Y-62250035D01*
X203731580Y-62249042D01*
X203731579Y-62249042D01*
X203714842Y-62249042D01*
X189731385Y-62249042D01*
X189666077Y-62249042D01*
X189666075Y-62249043D01*
X189663015Y-62250037D01*
X189639223Y-62262159D01*
X189634019Y-62265940D01*
X189615129Y-62284830D01*
X189611348Y-62290034D01*
X189599226Y-62313826D01*
X189598231Y-62316889D01*
X189598231Y-76382218D01*
X165700649Y-76382218D01*
X165700649Y-75415638D01*
X165699652Y-75412570D01*
X165687535Y-75388791D01*
X165683747Y-75383577D01*
X165664868Y-75364697D01*
X165659657Y-75360911D01*
X165635862Y-75348786D01*
X165632804Y-75347793D01*
X165632803Y-75347793D01*
X165616066Y-75347793D01*
X151632609Y-75347793D01*
X151567301Y-75347793D01*
X151567299Y-75347794D01*
X151564239Y-75348788D01*
X151540447Y-75360910D01*
X151535243Y-75364691D01*
X151516353Y-75383581D01*
X151512572Y-75388785D01*
X151500450Y-75412577D01*
X151499455Y-75415640D01*
X151499455Y-89480969D01*
X146600782Y-89480969D01*
X146600782Y-76717935D01*
X146599785Y-76714867D01*
X146587668Y-76691088D01*
X146583880Y-76685874D01*
X146565001Y-76666994D01*
X146559790Y-76663208D01*
X146535995Y-76651083D01*
X146532937Y-76650090D01*
X146532936Y-76650090D01*
X146516199Y-76650090D01*
X132532742Y-76650090D01*
X132467434Y-76650090D01*
X132467432Y-76650091D01*
X132464372Y-76651085D01*
X132440580Y-76663207D01*
X132435376Y-76666988D01*
X132416486Y-76685878D01*
X132412705Y-76691082D01*
X132400583Y-76714874D01*
X132399588Y-76717937D01*
X132399588Y-90783266D01*
X127599589Y-90783266D01*
X127599589Y-79114970D01*
X127598592Y-79111902D01*
X127586475Y-79088123D01*
X127582687Y-79082909D01*
X127563808Y-79064029D01*
X127558597Y-79060243D01*
X127534802Y-79048118D01*
X127531744Y-79047125D01*
X127531743Y-79047125D01*
X127515006Y-79047125D01*
X113531549Y-79047125D01*
X113466241Y-79047125D01*
X113466239Y-79047126D01*
X113463179Y-79048120D01*
X113439387Y-79060242D01*
X113434183Y-79064023D01*
X113415293Y-79082913D01*
X113411512Y-79088117D01*
X113399390Y-79111909D01*
X113398395Y-79114972D01*
X113398395Y-93180301D01*
X108451968Y-93180301D01*
X108451968Y-88516716D01*
X108450971Y-88513648D01*
X108438854Y-88489869D01*
X108435066Y-88484655D01*
X108416187Y-88465775D01*
X108410976Y-88461989D01*
X108387181Y-88449864D01*
X108384123Y-88448871D01*
X108384122Y-88448871D01*
X108367385Y-88448871D01*
X94431932Y-88448871D01*
X94366624Y-88448871D01*
X94366622Y-88448872D01*
X94363562Y-88449866D01*
X94339770Y-88461988D01*
X94334566Y-88465769D01*
X94315676Y-88484659D01*
X94311895Y-88489863D01*
X94299773Y-88513655D01*
X94298778Y-88516718D01*
X94298778Y-102582047D01*
X84965945Y-102582047D01*
X83268656Y-91719394D01*
X83267348Y-91707044D01*
X83191121Y-90346852D01*
X83191120Y-90346851D01*
X83189821Y-90323657D01*
X83189819Y-90323653D01*
X83113428Y-88960533D01*
X83113427Y-88960532D01*
X83112128Y-88937337D01*
X83112126Y-88937333D01*
X83037602Y-87607548D01*
X83038007Y-87588216D01*
X83078130Y-87179417D01*
X83082986Y-87155046D01*
X83196471Y-86782345D01*
X83205965Y-86759505D01*
X83385700Y-86424385D01*
X83399353Y-86403988D01*
X83638005Y-86113336D01*
X83655291Y-86096028D01*
X83945527Y-85857087D01*
X83965925Y-85843398D01*
X84300512Y-85663473D01*
X84323371Y-85653947D01*
X84695419Y-85540359D01*
X84719855Y-85535477D01*
X85136214Y-85494503D01*
X85148551Y-85493898D01*
X108456952Y-85494092D01*
X108465106Y-85494971D01*
X108465132Y-85494522D01*
X108475040Y-85495085D01*
X108475041Y-85495084D01*
X108475042Y-85495085D01*
X108478577Y-85494728D01*
X108491216Y-85494093D01*
X108496701Y-85494094D01*
X108496706Y-85494092D01*
X108506498Y-85492542D01*
X108506553Y-85492890D01*
X108515458Y-85491015D01*
X108921623Y-85450125D01*
X108935945Y-85449504D01*
X108938961Y-85449545D01*
X108938968Y-85449542D01*
X108944690Y-85448715D01*
X108950291Y-85447241D01*
X108950292Y-85447240D01*
X108950297Y-85447240D01*
X108953067Y-85446020D01*
X108966467Y-85441013D01*
X109354443Y-85320689D01*
X109368827Y-85317141D01*
X109371351Y-85316675D01*
X109371354Y-85316673D01*
X109377012Y-85314671D01*
X109382385Y-85312023D01*
X109382388Y-85312023D01*
X109384473Y-85310549D01*
X109397078Y-85302715D01*
X109746896Y-85112930D01*
X109760757Y-85106467D01*
X109762750Y-85105682D01*
X109762754Y-85105678D01*
X109768080Y-85102538D01*
X109772979Y-85098781D01*
X109772985Y-85098778D01*
X109774460Y-85097224D01*
X109785646Y-85086790D01*
X110089758Y-84835884D01*
X110102256Y-84826802D01*
X110103946Y-84825727D01*
X110103948Y-84825723D01*
X110103953Y-84825721D01*
X110108625Y-84821589D01*
X110112772Y-84816897D01*
X110112771Y-84816897D01*
X110112777Y-84816893D01*
X110113844Y-84815216D01*
X110122917Y-84802723D01*
X110373792Y-84498540D01*
X110384229Y-84487348D01*
X110385781Y-84485874D01*
X110389535Y-84480976D01*
X110392681Y-84475639D01*
X110392680Y-84475639D01*
X110392683Y-84475637D01*
X110393470Y-84473639D01*
X110399926Y-84459788D01*
X110589680Y-84109903D01*
X110597514Y-84097295D01*
X110598983Y-84095214D01*
X110601632Y-84089834D01*
X110603634Y-84084174D01*
X110603635Y-84084173D01*
X110604099Y-84081657D01*
X110607651Y-84067250D01*
X110625078Y-84011039D01*
X110727946Y-83679234D01*
X110732964Y-83665806D01*
X110734174Y-83663057D01*
X110734174Y-83663052D01*
X110735650Y-83657447D01*
X110736479Y-83651715D01*
X110736438Y-83648717D01*
X110737059Y-83634376D01*
X110738803Y-83617047D01*
X110777980Y-83227743D01*
X110779765Y-83219275D01*
X110779367Y-83219212D01*
X110780920Y-83209410D01*
X110780920Y-83204870D01*
X110781553Y-83192252D01*
X110782009Y-83187718D01*
X110781447Y-83177822D01*
X110781844Y-83177799D01*
X110780920Y-83169182D01*
X110780920Y-74183132D01*
X113399412Y-74183132D01*
X113400405Y-74186190D01*
X113412530Y-74209985D01*
X113416316Y-74215196D01*
X113435196Y-74234075D01*
X113440410Y-74237863D01*
X113464189Y-74249980D01*
X113467258Y-74250977D01*
X127532762Y-74250977D01*
X127535831Y-74249979D01*
X127559603Y-74237866D01*
X127562215Y-74235967D01*
X127562218Y-74235967D01*
X127562219Y-74235965D01*
X127564828Y-74234070D01*
X127583699Y-74215199D01*
X127585594Y-74212590D01*
X127585596Y-74212589D01*
X127585596Y-74212586D01*
X127587495Y-74209974D01*
X127599608Y-74186202D01*
X127600606Y-74183132D01*
X127600606Y-71782287D01*
X132398696Y-71782287D01*
X132399689Y-71785345D01*
X132411814Y-71809140D01*
X132415600Y-71814351D01*
X132434480Y-71833230D01*
X132439694Y-71837018D01*
X132463473Y-71849135D01*
X132466542Y-71850132D01*
X146532046Y-71850132D01*
X146535115Y-71849134D01*
X146558887Y-71837021D01*
X146561499Y-71835122D01*
X146561502Y-71835122D01*
X146561503Y-71835120D01*
X146564112Y-71833225D01*
X146582983Y-71814354D01*
X146584878Y-71811745D01*
X146584880Y-71811744D01*
X146584880Y-71811741D01*
X146586779Y-71809129D01*
X146598892Y-71785357D01*
X146599890Y-71782287D01*
X146599890Y-71681743D01*
X170497472Y-71681743D01*
X170498465Y-71684801D01*
X170510590Y-71708596D01*
X170514376Y-71713807D01*
X170533256Y-71732686D01*
X170538470Y-71736474D01*
X170562249Y-71748591D01*
X170565318Y-71749588D01*
X184630822Y-71749588D01*
X184633891Y-71748590D01*
X184657663Y-71736477D01*
X184660275Y-71734578D01*
X184660278Y-71734578D01*
X184660279Y-71734576D01*
X184662888Y-71732681D01*
X184681759Y-71713810D01*
X184683654Y-71711201D01*
X184683656Y-71711200D01*
X184683656Y-71711197D01*
X184685555Y-71708585D01*
X184697668Y-71684813D01*
X184698666Y-71681743D01*
X184698666Y-59900006D01*
X203286540Y-59900006D01*
X203306357Y-60215007D01*
X203306359Y-60215024D01*
X203365504Y-60525067D01*
X203365507Y-60525080D01*
X203463039Y-60825254D01*
X203463044Y-60825266D01*
X203597438Y-61110869D01*
X203597440Y-61110872D01*
X203597443Y-61110878D01*
X203766562Y-61377368D01*
X203967763Y-61620578D01*
X203967766Y-61620580D01*
X203967767Y-61620582D01*
X204197860Y-61836654D01*
X204453221Y-62022184D01*
X204729821Y-62174247D01*
X205023298Y-62290443D01*
X205329025Y-62368940D01*
X205329033Y-62368941D01*
X205329032Y-62368941D01*
X205493129Y-62389670D01*
X205642179Y-62408500D01*
X205642183Y-62408500D01*
X205957817Y-62408500D01*
X205957821Y-62408500D01*
X206270975Y-62368940D01*
X206576702Y-62290443D01*
X206870179Y-62174247D01*
X207146779Y-62022184D01*
X207402140Y-61836654D01*
X207632233Y-61620582D01*
X207833432Y-61377375D01*
X207833434Y-61377370D01*
X207833437Y-61377368D01*
X208002556Y-61110878D01*
X208002562Y-61110869D01*
X208136956Y-60825266D01*
X208234495Y-60525072D01*
X208293641Y-60215020D01*
X208294051Y-60208500D01*
X208313460Y-59900006D01*
X208313460Y-59899993D01*
X208293642Y-59584992D01*
X208293640Y-59584975D01*
X208262279Y-59420578D01*
X208234495Y-59274928D01*
X208155867Y-59032936D01*
X208139315Y-58981993D01*
X208597255Y-58981993D01*
X208598248Y-58985051D01*
X208610373Y-59008846D01*
X208614159Y-59014057D01*
X208633039Y-59032936D01*
X208638253Y-59036724D01*
X208662032Y-59048841D01*
X208665101Y-59049838D01*
X222730876Y-59049838D01*
X222733945Y-59048840D01*
X222757717Y-59036727D01*
X222760329Y-59034828D01*
X222760332Y-59034828D01*
X222760333Y-59034826D01*
X222762942Y-59032931D01*
X222781813Y-59014060D01*
X222783708Y-59011451D01*
X222783710Y-59011450D01*
X222783710Y-59011447D01*
X222785609Y-59008835D01*
X222797722Y-58985063D01*
X222798720Y-58981993D01*
X222798720Y-44916217D01*
X222797723Y-44913149D01*
X222785606Y-44889370D01*
X222781818Y-44884156D01*
X222762939Y-44865276D01*
X222757728Y-44861490D01*
X222733933Y-44849365D01*
X222730875Y-44848372D01*
X222730874Y-44848372D01*
X222714137Y-44848372D01*
X208730409Y-44848372D01*
X208665101Y-44848372D01*
X208665099Y-44848373D01*
X208662039Y-44849367D01*
X208638247Y-44861489D01*
X208633043Y-44865270D01*
X208614153Y-44884160D01*
X208610372Y-44889364D01*
X208598250Y-44913156D01*
X208597255Y-44916219D01*
X208597255Y-58981993D01*
X208139315Y-58981993D01*
X208136960Y-58974745D01*
X208136955Y-58974732D01*
X208106908Y-58910878D01*
X208002562Y-58689131D01*
X207962033Y-58625267D01*
X207833437Y-58422631D01*
X207632236Y-58179421D01*
X207402139Y-57963345D01*
X207146781Y-57777817D01*
X207036079Y-57716958D01*
X206870179Y-57625753D01*
X206576702Y-57509557D01*
X206270975Y-57431060D01*
X206270970Y-57431059D01*
X206270965Y-57431058D01*
X206270967Y-57431058D01*
X205957835Y-57391501D01*
X205957824Y-57391500D01*
X205957821Y-57391500D01*
X205642179Y-57391500D01*
X205642176Y-57391500D01*
X205642164Y-57391501D01*
X205329033Y-57431058D01*
X205023301Y-57509556D01*
X205023299Y-57509556D01*
X205023298Y-57509557D01*
X204761145Y-57613351D01*
X204729821Y-57625753D01*
X204453218Y-57777817D01*
X204197861Y-57963345D01*
X204197860Y-57963345D01*
X203967763Y-58179421D01*
X203766562Y-58422631D01*
X203597443Y-58689121D01*
X203597436Y-58689135D01*
X203463044Y-58974732D01*
X203463039Y-58974745D01*
X203365507Y-59274919D01*
X203365504Y-59274932D01*
X203306359Y-59584975D01*
X203306357Y-59584992D01*
X203286540Y-59899993D01*
X203286540Y-59900006D01*
X184698666Y-59900006D01*
X184698666Y-57616412D01*
X184697669Y-57613344D01*
X184685552Y-57589565D01*
X184681764Y-57584351D01*
X184662885Y-57565471D01*
X184657674Y-57561685D01*
X184633879Y-57549560D01*
X184630821Y-57548567D01*
X184630820Y-57548567D01*
X184614083Y-57548567D01*
X170630626Y-57548567D01*
X170565318Y-57548567D01*
X170565316Y-57548568D01*
X170562256Y-57549562D01*
X170538464Y-57561684D01*
X170533260Y-57565465D01*
X170514370Y-57584355D01*
X170510589Y-57589559D01*
X170498467Y-57613351D01*
X170497472Y-57616414D01*
X170497472Y-71681743D01*
X146599890Y-71681743D01*
X146599890Y-70382750D01*
X151499455Y-70382750D01*
X151500448Y-70385808D01*
X151512573Y-70409603D01*
X151516359Y-70414814D01*
X151535239Y-70433693D01*
X151540453Y-70437481D01*
X151564232Y-70449598D01*
X151567301Y-70450595D01*
X165632805Y-70450595D01*
X165635874Y-70449597D01*
X165659646Y-70437484D01*
X165662258Y-70435585D01*
X165662261Y-70435585D01*
X165662262Y-70435583D01*
X165664871Y-70433688D01*
X165683742Y-70414817D01*
X165685637Y-70412208D01*
X165685639Y-70412207D01*
X165685639Y-70412204D01*
X165687538Y-70409592D01*
X165699651Y-70385820D01*
X165700649Y-70382750D01*
X165700649Y-57482118D01*
X189599373Y-57482118D01*
X189600366Y-57485176D01*
X189612491Y-57508971D01*
X189616277Y-57514182D01*
X189635157Y-57533061D01*
X189640371Y-57536849D01*
X189664150Y-57548966D01*
X189667219Y-57549963D01*
X203732723Y-57549963D01*
X203735792Y-57548965D01*
X203759564Y-57536852D01*
X203762176Y-57534953D01*
X203762179Y-57534953D01*
X203762180Y-57534951D01*
X203764789Y-57533056D01*
X203783660Y-57514185D01*
X203785555Y-57511576D01*
X203785557Y-57511575D01*
X203785557Y-57511572D01*
X203787456Y-57508960D01*
X203799569Y-57485188D01*
X203800567Y-57482118D01*
X203800567Y-43416787D01*
X203799570Y-43413719D01*
X203787453Y-43389940D01*
X203783665Y-43384726D01*
X203764786Y-43365846D01*
X203759575Y-43362060D01*
X203735780Y-43349935D01*
X203732722Y-43348942D01*
X203732721Y-43348942D01*
X203715984Y-43348942D01*
X189732527Y-43348942D01*
X189667219Y-43348942D01*
X189667217Y-43348943D01*
X189664157Y-43349937D01*
X189640365Y-43362059D01*
X189635161Y-43365840D01*
X189616271Y-43384730D01*
X189612490Y-43389934D01*
X189600368Y-43413726D01*
X189599373Y-43416789D01*
X189599373Y-57482118D01*
X165700649Y-57482118D01*
X165700649Y-56317419D01*
X165699652Y-56314351D01*
X165687535Y-56290572D01*
X165683747Y-56285358D01*
X165664868Y-56266478D01*
X165659657Y-56262692D01*
X165635862Y-56250567D01*
X165632804Y-56249574D01*
X165632803Y-56249574D01*
X165616066Y-56249574D01*
X151632609Y-56249574D01*
X151567301Y-56249574D01*
X151567299Y-56249575D01*
X151564239Y-56250569D01*
X151540447Y-56262691D01*
X151535243Y-56266472D01*
X151516353Y-56285362D01*
X151512572Y-56290566D01*
X151500450Y-56314358D01*
X151499455Y-56317421D01*
X151499455Y-70382750D01*
X146599890Y-70382750D01*
X146599890Y-57716956D01*
X146598893Y-57713888D01*
X146586776Y-57690109D01*
X146582988Y-57684895D01*
X146564109Y-57666015D01*
X146558898Y-57662229D01*
X146535103Y-57650104D01*
X146532045Y-57649111D01*
X146532044Y-57649111D01*
X146515307Y-57649111D01*
X132531850Y-57649111D01*
X132466542Y-57649111D01*
X132466540Y-57649112D01*
X132463480Y-57650106D01*
X132439688Y-57662228D01*
X132434484Y-57666009D01*
X132415594Y-57684899D01*
X132411813Y-57690103D01*
X132399691Y-57713895D01*
X132398696Y-57716958D01*
X132398696Y-71782287D01*
X127600606Y-71782287D01*
X127600606Y-60117801D01*
X127599609Y-60114733D01*
X127587492Y-60090954D01*
X127583704Y-60085740D01*
X127564825Y-60066860D01*
X127559614Y-60063074D01*
X127535819Y-60050949D01*
X127532761Y-60049956D01*
X127532760Y-60049956D01*
X127516023Y-60049956D01*
X113532566Y-60049956D01*
X113467258Y-60049956D01*
X113467256Y-60049957D01*
X113464196Y-60050951D01*
X113440404Y-60063073D01*
X113435200Y-60066854D01*
X113416310Y-60085744D01*
X113412529Y-60090948D01*
X113400407Y-60114740D01*
X113399412Y-60117803D01*
X113399412Y-74183132D01*
X110780920Y-74183132D01*
X110780920Y-57700006D01*
X127086540Y-57700006D01*
X127106357Y-58015007D01*
X127106359Y-58015024D01*
X127165504Y-58325067D01*
X127165507Y-58325080D01*
X127263039Y-58625254D01*
X127263044Y-58625267D01*
X127293096Y-58689131D01*
X127397438Y-58910869D01*
X127397440Y-58910872D01*
X127397443Y-58910878D01*
X127566562Y-59177368D01*
X127767763Y-59420578D01*
X127767766Y-59420580D01*
X127767767Y-59420582D01*
X127997860Y-59636654D01*
X128253221Y-59822184D01*
X128529821Y-59974247D01*
X128823298Y-60090443D01*
X129129025Y-60168940D01*
X129129033Y-60168941D01*
X129129032Y-60168941D01*
X129293129Y-60189670D01*
X129442179Y-60208500D01*
X129442183Y-60208500D01*
X129757817Y-60208500D01*
X129757821Y-60208500D01*
X130070975Y-60168940D01*
X130376702Y-60090443D01*
X130670179Y-59974247D01*
X130946779Y-59822184D01*
X131202140Y-59636654D01*
X131432233Y-59420582D01*
X131633432Y-59177375D01*
X131633434Y-59177370D01*
X131633437Y-59177368D01*
X131762033Y-58974732D01*
X131802562Y-58910869D01*
X131936956Y-58625266D01*
X132034495Y-58325072D01*
X132093641Y-58015020D01*
X132096892Y-57963345D01*
X132113460Y-57700006D01*
X132113460Y-57699993D01*
X132093642Y-57384992D01*
X132093640Y-57384975D01*
X132034495Y-57074928D01*
X131936956Y-56774734D01*
X131802562Y-56489131D01*
X131802556Y-56489121D01*
X131633437Y-56222631D01*
X131432236Y-55979421D01*
X131202139Y-55763345D01*
X130946781Y-55577817D01*
X130904385Y-55554509D01*
X130670179Y-55425753D01*
X130376702Y-55309557D01*
X130070975Y-55231060D01*
X130070970Y-55231059D01*
X130070965Y-55231058D01*
X130070967Y-55231058D01*
X129757835Y-55191501D01*
X129757824Y-55191500D01*
X129757821Y-55191500D01*
X129442179Y-55191500D01*
X129442176Y-55191500D01*
X129442164Y-55191501D01*
X129129033Y-55231058D01*
X128823301Y-55309556D01*
X128529821Y-55425753D01*
X128253218Y-55577817D01*
X127997861Y-55763345D01*
X127997860Y-55763345D01*
X127767763Y-55979421D01*
X127566562Y-56222631D01*
X127397443Y-56489121D01*
X127397436Y-56489135D01*
X127263044Y-56774732D01*
X127263039Y-56774745D01*
X127165507Y-57074919D01*
X127165504Y-57074932D01*
X127106359Y-57384975D01*
X127106357Y-57384992D01*
X127086540Y-57699993D01*
X127086540Y-57700006D01*
X110780920Y-57700006D01*
X110780920Y-55081823D01*
X113398395Y-55081823D01*
X113399388Y-55084881D01*
X113411513Y-55108676D01*
X113415299Y-55113887D01*
X113434179Y-55132766D01*
X113439393Y-55136554D01*
X113463172Y-55148671D01*
X113466241Y-55149668D01*
X127531745Y-55149668D01*
X127534814Y-55148670D01*
X127558586Y-55136557D01*
X127561198Y-55134658D01*
X127561201Y-55134658D01*
X127561202Y-55134656D01*
X127563811Y-55132761D01*
X127582682Y-55113890D01*
X127584577Y-55111281D01*
X127584579Y-55111280D01*
X127584579Y-55111277D01*
X127586478Y-55108665D01*
X127598591Y-55084893D01*
X127599589Y-55081823D01*
X127599589Y-52681529D01*
X132398696Y-52681529D01*
X132399689Y-52684587D01*
X132411814Y-52708382D01*
X132415600Y-52713593D01*
X132434480Y-52732472D01*
X132439694Y-52736260D01*
X132463473Y-52748377D01*
X132466542Y-52749374D01*
X146532046Y-52749374D01*
X146535115Y-52748376D01*
X146558887Y-52736263D01*
X146561499Y-52734364D01*
X146561502Y-52734364D01*
X146561503Y-52734362D01*
X146564112Y-52732467D01*
X146582983Y-52713596D01*
X146584878Y-52710987D01*
X146584880Y-52710986D01*
X146584880Y-52710983D01*
X146586779Y-52708371D01*
X146598892Y-52684599D01*
X146599890Y-52681529D01*
X170503403Y-52681529D01*
X170504396Y-52684587D01*
X170516521Y-52708382D01*
X170520307Y-52713593D01*
X170539187Y-52732472D01*
X170544401Y-52736260D01*
X170568180Y-52748377D01*
X170571249Y-52749374D01*
X184636753Y-52749374D01*
X184639822Y-52748376D01*
X184663594Y-52736263D01*
X184666206Y-52734364D01*
X184666209Y-52734364D01*
X184666210Y-52734362D01*
X184668819Y-52732467D01*
X184687690Y-52713596D01*
X184689585Y-52710987D01*
X184689587Y-52710986D01*
X184689587Y-52710983D01*
X184691486Y-52708371D01*
X184703599Y-52684599D01*
X184704597Y-52681529D01*
X184704597Y-38616198D01*
X184703600Y-38613130D01*
X184691483Y-38589351D01*
X184687695Y-38584137D01*
X184668816Y-38565257D01*
X184663605Y-38561471D01*
X184639810Y-38549346D01*
X184636752Y-38548353D01*
X184636751Y-38548353D01*
X184620014Y-38548353D01*
X170636557Y-38548353D01*
X170571249Y-38548353D01*
X170571247Y-38548354D01*
X170568187Y-38549348D01*
X170544395Y-38561470D01*
X170539191Y-38565251D01*
X170520301Y-38584141D01*
X170516520Y-38589345D01*
X170504398Y-38613137D01*
X170503403Y-38616200D01*
X170503403Y-52681529D01*
X146599890Y-52681529D01*
X146599890Y-51292152D01*
X151428591Y-51292152D01*
X151429584Y-51295210D01*
X151441709Y-51319005D01*
X151445495Y-51324216D01*
X151464375Y-51343095D01*
X151469589Y-51346883D01*
X151493368Y-51359000D01*
X151496437Y-51359997D01*
X165561941Y-51359997D01*
X165565010Y-51358999D01*
X165588782Y-51346886D01*
X165591394Y-51344987D01*
X165591397Y-51344987D01*
X165591398Y-51344985D01*
X165594007Y-51343090D01*
X165612878Y-51324219D01*
X165614773Y-51321610D01*
X165614775Y-51321609D01*
X165614775Y-51321606D01*
X165616674Y-51318994D01*
X165628787Y-51295222D01*
X165629785Y-51292152D01*
X165629785Y-37226820D01*
X165628788Y-37223752D01*
X165616671Y-37199973D01*
X165612883Y-37194759D01*
X165594004Y-37175879D01*
X165588793Y-37172093D01*
X165564998Y-37159968D01*
X165561940Y-37158975D01*
X165561939Y-37158975D01*
X165545202Y-37158975D01*
X151561745Y-37158975D01*
X151496437Y-37158975D01*
X151496435Y-37158976D01*
X151493375Y-37159970D01*
X151469583Y-37172092D01*
X151464379Y-37175873D01*
X151445489Y-37194763D01*
X151441708Y-37199967D01*
X151429586Y-37223759D01*
X151428591Y-37226822D01*
X151428591Y-51292152D01*
X146599890Y-51292152D01*
X146599890Y-38616198D01*
X146598893Y-38613130D01*
X146586776Y-38589351D01*
X146582988Y-38584137D01*
X146564109Y-38565257D01*
X146558898Y-38561471D01*
X146535103Y-38549346D01*
X146532045Y-38548353D01*
X146532044Y-38548353D01*
X146515307Y-38548353D01*
X132531850Y-38548353D01*
X132466542Y-38548353D01*
X132466540Y-38548354D01*
X132463480Y-38549348D01*
X132439688Y-38561470D01*
X132434484Y-38565251D01*
X132415594Y-38584141D01*
X132411813Y-38589345D01*
X132399691Y-38613137D01*
X132398696Y-38616200D01*
X132398696Y-52681529D01*
X127599589Y-52681529D01*
X127599589Y-41016492D01*
X127598592Y-41013424D01*
X127586475Y-40989645D01*
X127582687Y-40984431D01*
X127563808Y-40965551D01*
X127558597Y-40961765D01*
X127534802Y-40949640D01*
X127531744Y-40948647D01*
X127531743Y-40948647D01*
X127515006Y-40948647D01*
X113531549Y-40948647D01*
X113466241Y-40948647D01*
X113466239Y-40948648D01*
X113463179Y-40949642D01*
X113439387Y-40961764D01*
X113434183Y-40965545D01*
X113415293Y-40984435D01*
X113411512Y-40989639D01*
X113399390Y-41013431D01*
X113398395Y-41016494D01*
X113398395Y-55081823D01*
X110780920Y-55081823D01*
X110780920Y-37346979D01*
X110781553Y-37334363D01*
X110791268Y-37237823D01*
X110822784Y-36924655D01*
X110827802Y-36899962D01*
X110942525Y-36529914D01*
X110952109Y-36507167D01*
X111133725Y-36172289D01*
X111147279Y-36152191D01*
X111173220Y-36120738D01*
X111388007Y-35860311D01*
X111405019Y-35843296D01*
X111696847Y-35602525D01*
X111716932Y-35588976D01*
X112051747Y-35407330D01*
X112074496Y-35397742D01*
X112444470Y-35283000D01*
X112469166Y-35277980D01*
X112878773Y-35236744D01*
X112891394Y-35236111D01*
X115881482Y-35236111D01*
X115882358Y-35236113D01*
G37*
G04 #@! TD.AperFunction*
M02*
