%TF.GenerationSoftware,KiCad,Pcbnew,7.0.10*%
%TF.CreationDate,2024-04-22T20:10:47+02:00*%
%TF.ProjectId,Lily58_Pro_BOTTOM,4c696c79-3538-45f5-9072-6f5f424f5454,rev?*%
%TF.SameCoordinates,Original*%
%TF.FileFunction,Drillmap*%
%TF.FilePolarity,Positive*%
%FSLAX45Y45*%
G04 Gerber Fmt 4.5, Leading zero omitted, Abs format (unit mm)*
G04 Created by KiCad (PCBNEW 7.0.10) date 2024-04-22 20:10:47*
%MOMM*%
%LPD*%
G01*
G04 APERTURE LIST*
%ADD10C,0.200000*%
%ADD11C,0.240000*%
G04 APERTURE END LIST*
D10*
X11618662Y-13648078D02*
X11786231Y-13551064D01*
X11451092Y-13745092D02*
X11618662Y-13648078D01*
X8293753Y-5075063D02*
X8293753Y-4444370D01*
X8293753Y-5705756D02*
X8293753Y-5075063D01*
X11521171Y-3708676D02*
X10480388Y-3708676D01*
X21869242Y-12078973D02*
X22396000Y-12078973D01*
X21342484Y-12078973D02*
X21869242Y-12078973D01*
X20815726Y-12078973D02*
X21342484Y-12078973D01*
X20288967Y-12078973D02*
X20815726Y-12078973D01*
X19762209Y-12078973D02*
X20288967Y-12078973D01*
X19235451Y-12078973D02*
X19762209Y-12078973D01*
X18708693Y-12078973D02*
X19235451Y-12078973D01*
X18181935Y-12078973D02*
X18708693Y-12078973D01*
X18111352Y-12086078D02*
X18181935Y-12078973D01*
X18045633Y-12106456D02*
X18111352Y-12086078D01*
X17986177Y-12138706D02*
X18045633Y-12106456D01*
X17934388Y-12181427D02*
X17986177Y-12138706D01*
X17891668Y-12233216D02*
X17934388Y-12181427D01*
X17859417Y-12292671D02*
X17891668Y-12233216D01*
X17839039Y-12358391D02*
X17859417Y-12292671D01*
X17831935Y-12428973D02*
X17839039Y-12358391D01*
X19980765Y-3817049D02*
X18991954Y-3758537D01*
X20842076Y-3894556D02*
X19980765Y-3817049D01*
X21552570Y-3988516D02*
X20842076Y-3894556D01*
X22088932Y-4096385D02*
X21552570Y-3988516D01*
X17898956Y-3721565D02*
X16725088Y-3708676D01*
X18991954Y-3758537D02*
X17898956Y-3721565D01*
X17765831Y-13525566D02*
X17740350Y-13539388D01*
X17788026Y-13507257D02*
X17765831Y-13525566D01*
X17806335Y-13485062D02*
X17788026Y-13507257D01*
X17820157Y-13459581D02*
X17806335Y-13485062D01*
X17828890Y-13431415D02*
X17820157Y-13459581D01*
X17831935Y-13401166D02*
X17828890Y-13431415D01*
X22546000Y-5291838D02*
X22546000Y-6240000D01*
X22546000Y-4343676D02*
X22546000Y-5291838D01*
X8293753Y-6967143D02*
X8293753Y-6336449D01*
X8293753Y-7597836D02*
X8293753Y-6967143D01*
X8293753Y-8228530D02*
X8293753Y-7597836D01*
X8293753Y-8859223D02*
X8293753Y-8228530D01*
X10480388Y-3708676D02*
X9439604Y-3708676D01*
X12561954Y-3708676D02*
X11521171Y-3708676D01*
X13602738Y-3708676D02*
X12561954Y-3708676D01*
X14643521Y-3708676D02*
X13602738Y-3708676D01*
X15684305Y-3708676D02*
X14643521Y-3708676D01*
X16725088Y-3708676D02*
X15684305Y-3708676D01*
X8340094Y-3726596D02*
X8357930Y-3716921D01*
X8324557Y-3739412D02*
X8340094Y-3726596D01*
X8311741Y-3754949D02*
X8324557Y-3739412D01*
X8302066Y-3772785D02*
X8311741Y-3754949D01*
X8295952Y-3792501D02*
X8302066Y-3772785D01*
X8293821Y-3813676D02*
X8295952Y-3792501D01*
X8377646Y-3710807D02*
X8398821Y-3708676D01*
X8357930Y-3716921D02*
X8377646Y-3710807D01*
X9439604Y-3708676D02*
X8398821Y-3708676D01*
X8293753Y-6336449D02*
X8293753Y-5705756D01*
X8293753Y-4444370D02*
X8293753Y-3813676D01*
X8829176Y-11631807D02*
X8999333Y-11998954D01*
X8686311Y-11253067D02*
X8829176Y-11631807D01*
X8568800Y-10864913D02*
X8686311Y-11253067D01*
X8474708Y-10469525D02*
X8568800Y-10864913D01*
X8402097Y-10069083D02*
X8474708Y-10469525D01*
X8349030Y-9665766D02*
X8402097Y-10069083D01*
X8313569Y-9261756D02*
X8349030Y-9665766D01*
X8293778Y-8859232D02*
X8313569Y-9261756D01*
X10428886Y-14335728D02*
X10445676Y-14327176D01*
X10413021Y-14340447D02*
X10428886Y-14335728D01*
X10398125Y-14341397D02*
X10413021Y-14340447D01*
X10384247Y-14338644D02*
X10398125Y-14341397D01*
X10371433Y-14332253D02*
X10384247Y-14338644D01*
X10359730Y-14322288D02*
X10371433Y-14332253D01*
X10349184Y-14308815D02*
X10359730Y-14322288D01*
X10339843Y-14291898D02*
X10349184Y-14308815D01*
X11283523Y-13842106D02*
X11451092Y-13745092D01*
X11115954Y-13939120D02*
X11283523Y-13842106D01*
X10948384Y-14036134D02*
X11115954Y-13939120D01*
X10780815Y-14133148D02*
X10948384Y-14036134D01*
X10613245Y-14230162D02*
X10780815Y-14133148D01*
X10445676Y-14327176D02*
X10613245Y-14230162D01*
X10172273Y-14005266D02*
X10339843Y-14291898D01*
X10004704Y-13718634D02*
X10172273Y-14005266D01*
X9837134Y-13432002D02*
X10004704Y-13718634D01*
X9669565Y-13145370D02*
X9837134Y-13432002D01*
X9501995Y-12858738D02*
X9669565Y-13145370D01*
X9334426Y-12572106D02*
X9501995Y-12858738D01*
X9166856Y-12285474D02*
X9334426Y-12572106D01*
X8999287Y-11998842D02*
X9166856Y-12285474D01*
X16944983Y-13551166D02*
X17681935Y-13551166D01*
X16208030Y-13551166D02*
X16944983Y-13551166D01*
X15471078Y-13551166D02*
X16208030Y-13551166D01*
X14734126Y-13551166D02*
X15471078Y-13551166D01*
X13997174Y-13551166D02*
X14734126Y-13551166D01*
X13260222Y-13551166D02*
X13997174Y-13551166D01*
X12523269Y-13551166D02*
X13260222Y-13551166D01*
X11786317Y-13551166D02*
X12523269Y-13551166D01*
X17831935Y-13281601D02*
X17831935Y-13403405D01*
X17831935Y-13159797D02*
X17831935Y-13281601D01*
X17831935Y-13037993D02*
X17831935Y-13159797D01*
X17831935Y-12916189D02*
X17831935Y-13037993D01*
X17831935Y-12794385D02*
X17831935Y-12916189D01*
X17831935Y-12672581D02*
X17831935Y-12794385D01*
X17831935Y-12550777D02*
X17831935Y-12672581D01*
X17831935Y-12428973D02*
X17831935Y-12550777D01*
X17712184Y-13548121D02*
X17681935Y-13551166D01*
X17740350Y-13539388D02*
X17712184Y-13548121D01*
X22427847Y-4215619D02*
X22088932Y-4096385D01*
X22546000Y-4343676D02*
X22427847Y-4215619D01*
X22426249Y-12075929D02*
X22396000Y-12078973D01*
X22454415Y-12067195D02*
X22426249Y-12075929D01*
X22479896Y-12053374D02*
X22454415Y-12067195D01*
X22502091Y-12035065D02*
X22479896Y-12053374D01*
X22520400Y-12012870D02*
X22502091Y-12035065D01*
X22534222Y-11987389D02*
X22520400Y-12012870D01*
X22542955Y-11959223D02*
X22534222Y-11987389D01*
X22546000Y-11928973D02*
X22542955Y-11959223D01*
X22546000Y-10980811D02*
X22546000Y-11928973D01*
X22546000Y-10032649D02*
X22546000Y-10980811D01*
X22546000Y-9084487D02*
X22546000Y-10032649D01*
X22546000Y-8136324D02*
X22546000Y-9084487D01*
X22546000Y-7188162D02*
X22546000Y-8136324D01*
X22546000Y-6240000D02*
X22546000Y-7188162D01*
D11*
X10380000Y-11360000D02*
X10620000Y-11600000D01*
X10620000Y-11360000D02*
X10380000Y-11600000D01*
X12840000Y-5840000D02*
X13080000Y-6080000D01*
X13080000Y-5840000D02*
X12840000Y-6080000D01*
X12840000Y-9640000D02*
X13080000Y-9880000D01*
X13080000Y-9640000D02*
X12840000Y-9880000D01*
X20460000Y-6060000D02*
X20700000Y-6300000D01*
X20700000Y-6060000D02*
X20460000Y-6300000D01*
X20460000Y-9880000D02*
X20700000Y-10120000D01*
X20700000Y-9880000D02*
X20460000Y-10120000D01*
D10*
X8544530Y-14662881D02*
X8544530Y-14462881D01*
X8544530Y-14462881D02*
X8592149Y-14462881D01*
X8592149Y-14462881D02*
X8620720Y-14472405D01*
X8620720Y-14472405D02*
X8639768Y-14491453D01*
X8639768Y-14491453D02*
X8649292Y-14510500D01*
X8649292Y-14510500D02*
X8658815Y-14548595D01*
X8658815Y-14548595D02*
X8658815Y-14577167D01*
X8658815Y-14577167D02*
X8649292Y-14615262D01*
X8649292Y-14615262D02*
X8639768Y-14634310D01*
X8639768Y-14634310D02*
X8620720Y-14653357D01*
X8620720Y-14653357D02*
X8592149Y-14662881D01*
X8592149Y-14662881D02*
X8544530Y-14662881D01*
X8744530Y-14662881D02*
X8744530Y-14529548D01*
X8744530Y-14567643D02*
X8754053Y-14548595D01*
X8754053Y-14548595D02*
X8763577Y-14539072D01*
X8763577Y-14539072D02*
X8782625Y-14529548D01*
X8782625Y-14529548D02*
X8801673Y-14529548D01*
X8868339Y-14662881D02*
X8868339Y-14529548D01*
X8868339Y-14462881D02*
X8858815Y-14472405D01*
X8858815Y-14472405D02*
X8868339Y-14481929D01*
X8868339Y-14481929D02*
X8877863Y-14472405D01*
X8877863Y-14472405D02*
X8868339Y-14462881D01*
X8868339Y-14462881D02*
X8868339Y-14481929D01*
X8992149Y-14662881D02*
X8973101Y-14653357D01*
X8973101Y-14653357D02*
X8963577Y-14634310D01*
X8963577Y-14634310D02*
X8963577Y-14462881D01*
X9096911Y-14662881D02*
X9077863Y-14653357D01*
X9077863Y-14653357D02*
X9068339Y-14634310D01*
X9068339Y-14634310D02*
X9068339Y-14462881D01*
X9325482Y-14662881D02*
X9325482Y-14462881D01*
X9325482Y-14462881D02*
X9392149Y-14605738D01*
X9392149Y-14605738D02*
X9458815Y-14462881D01*
X9458815Y-14462881D02*
X9458815Y-14662881D01*
X9639768Y-14662881D02*
X9639768Y-14558119D01*
X9639768Y-14558119D02*
X9630244Y-14539072D01*
X9630244Y-14539072D02*
X9611196Y-14529548D01*
X9611196Y-14529548D02*
X9573101Y-14529548D01*
X9573101Y-14529548D02*
X9554053Y-14539072D01*
X9639768Y-14653357D02*
X9620720Y-14662881D01*
X9620720Y-14662881D02*
X9573101Y-14662881D01*
X9573101Y-14662881D02*
X9554053Y-14653357D01*
X9554053Y-14653357D02*
X9544530Y-14634310D01*
X9544530Y-14634310D02*
X9544530Y-14615262D01*
X9544530Y-14615262D02*
X9554053Y-14596214D01*
X9554053Y-14596214D02*
X9573101Y-14586691D01*
X9573101Y-14586691D02*
X9620720Y-14586691D01*
X9620720Y-14586691D02*
X9639768Y-14577167D01*
X9735006Y-14529548D02*
X9735006Y-14729548D01*
X9735006Y-14539072D02*
X9754053Y-14529548D01*
X9754053Y-14529548D02*
X9792149Y-14529548D01*
X9792149Y-14529548D02*
X9811196Y-14539072D01*
X9811196Y-14539072D02*
X9820720Y-14548595D01*
X9820720Y-14548595D02*
X9830244Y-14567643D01*
X9830244Y-14567643D02*
X9830244Y-14624786D01*
X9830244Y-14624786D02*
X9820720Y-14643833D01*
X9820720Y-14643833D02*
X9811196Y-14653357D01*
X9811196Y-14653357D02*
X9792149Y-14662881D01*
X9792149Y-14662881D02*
X9754053Y-14662881D01*
X9754053Y-14662881D02*
X9735006Y-14653357D01*
X9915958Y-14643833D02*
X9925482Y-14653357D01*
X9925482Y-14653357D02*
X9915958Y-14662881D01*
X9915958Y-14662881D02*
X9906434Y-14653357D01*
X9906434Y-14653357D02*
X9915958Y-14643833D01*
X9915958Y-14643833D02*
X9915958Y-14662881D01*
X9915958Y-14539072D02*
X9925482Y-14548595D01*
X9925482Y-14548595D02*
X9915958Y-14558119D01*
X9915958Y-14558119D02*
X9906434Y-14548595D01*
X9906434Y-14548595D02*
X9915958Y-14539072D01*
X9915958Y-14539072D02*
X9915958Y-14558119D01*
X8083753Y-14891397D02*
X8283753Y-15091397D01*
X8283753Y-14891397D02*
X8083753Y-15091397D01*
X8535006Y-14901929D02*
X8544530Y-14892405D01*
X8544530Y-14892405D02*
X8563577Y-14882881D01*
X8563577Y-14882881D02*
X8611196Y-14882881D01*
X8611196Y-14882881D02*
X8630244Y-14892405D01*
X8630244Y-14892405D02*
X8639768Y-14901929D01*
X8639768Y-14901929D02*
X8649292Y-14920976D01*
X8649292Y-14920976D02*
X8649292Y-14940024D01*
X8649292Y-14940024D02*
X8639768Y-14968595D01*
X8639768Y-14968595D02*
X8525482Y-15082881D01*
X8525482Y-15082881D02*
X8649292Y-15082881D01*
X8735006Y-15063833D02*
X8744530Y-15073357D01*
X8744530Y-15073357D02*
X8735006Y-15082881D01*
X8735006Y-15082881D02*
X8725482Y-15073357D01*
X8725482Y-15073357D02*
X8735006Y-15063833D01*
X8735006Y-15063833D02*
X8735006Y-15082881D01*
X8915958Y-14949548D02*
X8915958Y-15082881D01*
X8868339Y-14873357D02*
X8820720Y-15016214D01*
X8820720Y-15016214D02*
X8944530Y-15016214D01*
X9058815Y-14882881D02*
X9077863Y-14882881D01*
X9077863Y-14882881D02*
X9096911Y-14892405D01*
X9096911Y-14892405D02*
X9106434Y-14901929D01*
X9106434Y-14901929D02*
X9115958Y-14920976D01*
X9115958Y-14920976D02*
X9125482Y-14959072D01*
X9125482Y-14959072D02*
X9125482Y-15006691D01*
X9125482Y-15006691D02*
X9115958Y-15044786D01*
X9115958Y-15044786D02*
X9106434Y-15063833D01*
X9106434Y-15063833D02*
X9096911Y-15073357D01*
X9096911Y-15073357D02*
X9077863Y-15082881D01*
X9077863Y-15082881D02*
X9058815Y-15082881D01*
X9058815Y-15082881D02*
X9039768Y-15073357D01*
X9039768Y-15073357D02*
X9030244Y-15063833D01*
X9030244Y-15063833D02*
X9020720Y-15044786D01*
X9020720Y-15044786D02*
X9011196Y-15006691D01*
X9011196Y-15006691D02*
X9011196Y-14959072D01*
X9011196Y-14959072D02*
X9020720Y-14920976D01*
X9020720Y-14920976D02*
X9030244Y-14901929D01*
X9030244Y-14901929D02*
X9039768Y-14892405D01*
X9039768Y-14892405D02*
X9058815Y-14882881D01*
X9249292Y-14882881D02*
X9268339Y-14882881D01*
X9268339Y-14882881D02*
X9287387Y-14892405D01*
X9287387Y-14892405D02*
X9296911Y-14901929D01*
X9296911Y-14901929D02*
X9306434Y-14920976D01*
X9306434Y-14920976D02*
X9315958Y-14959072D01*
X9315958Y-14959072D02*
X9315958Y-15006691D01*
X9315958Y-15006691D02*
X9306434Y-15044786D01*
X9306434Y-15044786D02*
X9296911Y-15063833D01*
X9296911Y-15063833D02*
X9287387Y-15073357D01*
X9287387Y-15073357D02*
X9268339Y-15082881D01*
X9268339Y-15082881D02*
X9249292Y-15082881D01*
X9249292Y-15082881D02*
X9230244Y-15073357D01*
X9230244Y-15073357D02*
X9220720Y-15063833D01*
X9220720Y-15063833D02*
X9211196Y-15044786D01*
X9211196Y-15044786D02*
X9201673Y-15006691D01*
X9201673Y-15006691D02*
X9201673Y-14959072D01*
X9201673Y-14959072D02*
X9211196Y-14920976D01*
X9211196Y-14920976D02*
X9220720Y-14901929D01*
X9220720Y-14901929D02*
X9230244Y-14892405D01*
X9230244Y-14892405D02*
X9249292Y-14882881D01*
X9401673Y-15082881D02*
X9401673Y-14949548D01*
X9401673Y-14968595D02*
X9411196Y-14959072D01*
X9411196Y-14959072D02*
X9430244Y-14949548D01*
X9430244Y-14949548D02*
X9458815Y-14949548D01*
X9458815Y-14949548D02*
X9477863Y-14959072D01*
X9477863Y-14959072D02*
X9487387Y-14978119D01*
X9487387Y-14978119D02*
X9487387Y-15082881D01*
X9487387Y-14978119D02*
X9496911Y-14959072D01*
X9496911Y-14959072D02*
X9515958Y-14949548D01*
X9515958Y-14949548D02*
X9544530Y-14949548D01*
X9544530Y-14949548D02*
X9563577Y-14959072D01*
X9563577Y-14959072D02*
X9573101Y-14978119D01*
X9573101Y-14978119D02*
X9573101Y-15082881D01*
X9668339Y-15082881D02*
X9668339Y-14949548D01*
X9668339Y-14968595D02*
X9677863Y-14959072D01*
X9677863Y-14959072D02*
X9696911Y-14949548D01*
X9696911Y-14949548D02*
X9725482Y-14949548D01*
X9725482Y-14949548D02*
X9744530Y-14959072D01*
X9744530Y-14959072D02*
X9754054Y-14978119D01*
X9754054Y-14978119D02*
X9754054Y-15082881D01*
X9754054Y-14978119D02*
X9763577Y-14959072D01*
X9763577Y-14959072D02*
X9782625Y-14949548D01*
X9782625Y-14949548D02*
X9811196Y-14949548D01*
X9811196Y-14949548D02*
X9830244Y-14959072D01*
X9830244Y-14959072D02*
X9839768Y-14978119D01*
X9839768Y-14978119D02*
X9839768Y-15082881D01*
X10230244Y-14873357D02*
X10058816Y-15130500D01*
X10487387Y-14882881D02*
X10506435Y-14882881D01*
X10506435Y-14882881D02*
X10525482Y-14892405D01*
X10525482Y-14892405D02*
X10535006Y-14901929D01*
X10535006Y-14901929D02*
X10544530Y-14920976D01*
X10544530Y-14920976D02*
X10554054Y-14959072D01*
X10554054Y-14959072D02*
X10554054Y-15006691D01*
X10554054Y-15006691D02*
X10544530Y-15044786D01*
X10544530Y-15044786D02*
X10535006Y-15063833D01*
X10535006Y-15063833D02*
X10525482Y-15073357D01*
X10525482Y-15073357D02*
X10506435Y-15082881D01*
X10506435Y-15082881D02*
X10487387Y-15082881D01*
X10487387Y-15082881D02*
X10468339Y-15073357D01*
X10468339Y-15073357D02*
X10458816Y-15063833D01*
X10458816Y-15063833D02*
X10449292Y-15044786D01*
X10449292Y-15044786D02*
X10439768Y-15006691D01*
X10439768Y-15006691D02*
X10439768Y-14959072D01*
X10439768Y-14959072D02*
X10449292Y-14920976D01*
X10449292Y-14920976D02*
X10458816Y-14901929D01*
X10458816Y-14901929D02*
X10468339Y-14892405D01*
X10468339Y-14892405D02*
X10487387Y-14882881D01*
X10639768Y-15063833D02*
X10649292Y-15073357D01*
X10649292Y-15073357D02*
X10639768Y-15082881D01*
X10639768Y-15082881D02*
X10630244Y-15073357D01*
X10630244Y-15073357D02*
X10639768Y-15063833D01*
X10639768Y-15063833D02*
X10639768Y-15082881D01*
X10773101Y-14882881D02*
X10792149Y-14882881D01*
X10792149Y-14882881D02*
X10811197Y-14892405D01*
X10811197Y-14892405D02*
X10820720Y-14901929D01*
X10820720Y-14901929D02*
X10830244Y-14920976D01*
X10830244Y-14920976D02*
X10839768Y-14959072D01*
X10839768Y-14959072D02*
X10839768Y-15006691D01*
X10839768Y-15006691D02*
X10830244Y-15044786D01*
X10830244Y-15044786D02*
X10820720Y-15063833D01*
X10820720Y-15063833D02*
X10811197Y-15073357D01*
X10811197Y-15073357D02*
X10792149Y-15082881D01*
X10792149Y-15082881D02*
X10773101Y-15082881D01*
X10773101Y-15082881D02*
X10754054Y-15073357D01*
X10754054Y-15073357D02*
X10744530Y-15063833D01*
X10744530Y-15063833D02*
X10735006Y-15044786D01*
X10735006Y-15044786D02*
X10725482Y-15006691D01*
X10725482Y-15006691D02*
X10725482Y-14959072D01*
X10725482Y-14959072D02*
X10735006Y-14920976D01*
X10735006Y-14920976D02*
X10744530Y-14901929D01*
X10744530Y-14901929D02*
X10754054Y-14892405D01*
X10754054Y-14892405D02*
X10773101Y-14882881D01*
X10935006Y-15082881D02*
X10973101Y-15082881D01*
X10973101Y-15082881D02*
X10992149Y-15073357D01*
X10992149Y-15073357D02*
X11001673Y-15063833D01*
X11001673Y-15063833D02*
X11020720Y-15035262D01*
X11020720Y-15035262D02*
X11030244Y-14997167D01*
X11030244Y-14997167D02*
X11030244Y-14920976D01*
X11030244Y-14920976D02*
X11020720Y-14901929D01*
X11020720Y-14901929D02*
X11011197Y-14892405D01*
X11011197Y-14892405D02*
X10992149Y-14882881D01*
X10992149Y-14882881D02*
X10954054Y-14882881D01*
X10954054Y-14882881D02*
X10935006Y-14892405D01*
X10935006Y-14892405D02*
X10925482Y-14901929D01*
X10925482Y-14901929D02*
X10915958Y-14920976D01*
X10915958Y-14920976D02*
X10915958Y-14968595D01*
X10915958Y-14968595D02*
X10925482Y-14987643D01*
X10925482Y-14987643D02*
X10935006Y-14997167D01*
X10935006Y-14997167D02*
X10954054Y-15006691D01*
X10954054Y-15006691D02*
X10992149Y-15006691D01*
X10992149Y-15006691D02*
X11011197Y-14997167D01*
X11011197Y-14997167D02*
X11020720Y-14987643D01*
X11020720Y-14987643D02*
X11030244Y-14968595D01*
X11201673Y-14949548D02*
X11201673Y-15082881D01*
X11154054Y-14873357D02*
X11106435Y-15016214D01*
X11106435Y-15016214D02*
X11230244Y-15016214D01*
X11401673Y-14882881D02*
X11306435Y-14882881D01*
X11306435Y-14882881D02*
X11296911Y-14978119D01*
X11296911Y-14978119D02*
X11306435Y-14968595D01*
X11306435Y-14968595D02*
X11325482Y-14959072D01*
X11325482Y-14959072D02*
X11373101Y-14959072D01*
X11373101Y-14959072D02*
X11392149Y-14968595D01*
X11392149Y-14968595D02*
X11401673Y-14978119D01*
X11401673Y-14978119D02*
X11411196Y-14997167D01*
X11411196Y-14997167D02*
X11411196Y-15044786D01*
X11411196Y-15044786D02*
X11401673Y-15063833D01*
X11401673Y-15063833D02*
X11392149Y-15073357D01*
X11392149Y-15073357D02*
X11373101Y-15082881D01*
X11373101Y-15082881D02*
X11325482Y-15082881D01*
X11325482Y-15082881D02*
X11306435Y-15073357D01*
X11306435Y-15073357D02*
X11296911Y-15063833D01*
X11487387Y-14882881D02*
X11487387Y-14920976D01*
X11563577Y-14882881D02*
X11563577Y-14920976D01*
X11858816Y-15159072D02*
X11849292Y-15149548D01*
X11849292Y-15149548D02*
X11830244Y-15120976D01*
X11830244Y-15120976D02*
X11820720Y-15101929D01*
X11820720Y-15101929D02*
X11811197Y-15073357D01*
X11811197Y-15073357D02*
X11801673Y-15025738D01*
X11801673Y-15025738D02*
X11801673Y-14987643D01*
X11801673Y-14987643D02*
X11811197Y-14940024D01*
X11811197Y-14940024D02*
X11820720Y-14911453D01*
X11820720Y-14911453D02*
X11830244Y-14892405D01*
X11830244Y-14892405D02*
X11849292Y-14863833D01*
X11849292Y-14863833D02*
X11858816Y-14854310D01*
X12030244Y-14882881D02*
X11935006Y-14882881D01*
X11935006Y-14882881D02*
X11925482Y-14978119D01*
X11925482Y-14978119D02*
X11935006Y-14968595D01*
X11935006Y-14968595D02*
X11954054Y-14959072D01*
X11954054Y-14959072D02*
X12001673Y-14959072D01*
X12001673Y-14959072D02*
X12020720Y-14968595D01*
X12020720Y-14968595D02*
X12030244Y-14978119D01*
X12030244Y-14978119D02*
X12039768Y-14997167D01*
X12039768Y-14997167D02*
X12039768Y-15044786D01*
X12039768Y-15044786D02*
X12030244Y-15063833D01*
X12030244Y-15063833D02*
X12020720Y-15073357D01*
X12020720Y-15073357D02*
X12001673Y-15082881D01*
X12001673Y-15082881D02*
X11954054Y-15082881D01*
X11954054Y-15082881D02*
X11935006Y-15073357D01*
X11935006Y-15073357D02*
X11925482Y-15063833D01*
X12277863Y-15082881D02*
X12277863Y-14882881D01*
X12363578Y-15082881D02*
X12363578Y-14978119D01*
X12363578Y-14978119D02*
X12354054Y-14959072D01*
X12354054Y-14959072D02*
X12335006Y-14949548D01*
X12335006Y-14949548D02*
X12306435Y-14949548D01*
X12306435Y-14949548D02*
X12287387Y-14959072D01*
X12287387Y-14959072D02*
X12277863Y-14968595D01*
X12487387Y-15082881D02*
X12468339Y-15073357D01*
X12468339Y-15073357D02*
X12458816Y-15063833D01*
X12458816Y-15063833D02*
X12449292Y-15044786D01*
X12449292Y-15044786D02*
X12449292Y-14987643D01*
X12449292Y-14987643D02*
X12458816Y-14968595D01*
X12458816Y-14968595D02*
X12468339Y-14959072D01*
X12468339Y-14959072D02*
X12487387Y-14949548D01*
X12487387Y-14949548D02*
X12515959Y-14949548D01*
X12515959Y-14949548D02*
X12535006Y-14959072D01*
X12535006Y-14959072D02*
X12544530Y-14968595D01*
X12544530Y-14968595D02*
X12554054Y-14987643D01*
X12554054Y-14987643D02*
X12554054Y-15044786D01*
X12554054Y-15044786D02*
X12544530Y-15063833D01*
X12544530Y-15063833D02*
X12535006Y-15073357D01*
X12535006Y-15073357D02*
X12515959Y-15082881D01*
X12515959Y-15082881D02*
X12487387Y-15082881D01*
X12668339Y-15082881D02*
X12649292Y-15073357D01*
X12649292Y-15073357D02*
X12639768Y-15054310D01*
X12639768Y-15054310D02*
X12639768Y-14882881D01*
X12820720Y-15073357D02*
X12801673Y-15082881D01*
X12801673Y-15082881D02*
X12763578Y-15082881D01*
X12763578Y-15082881D02*
X12744530Y-15073357D01*
X12744530Y-15073357D02*
X12735006Y-15054310D01*
X12735006Y-15054310D02*
X12735006Y-14978119D01*
X12735006Y-14978119D02*
X12744530Y-14959072D01*
X12744530Y-14959072D02*
X12763578Y-14949548D01*
X12763578Y-14949548D02*
X12801673Y-14949548D01*
X12801673Y-14949548D02*
X12820720Y-14959072D01*
X12820720Y-14959072D02*
X12830244Y-14978119D01*
X12830244Y-14978119D02*
X12830244Y-14997167D01*
X12830244Y-14997167D02*
X12735006Y-15016214D01*
X12906435Y-15073357D02*
X12925482Y-15082881D01*
X12925482Y-15082881D02*
X12963578Y-15082881D01*
X12963578Y-15082881D02*
X12982625Y-15073357D01*
X12982625Y-15073357D02*
X12992149Y-15054310D01*
X12992149Y-15054310D02*
X12992149Y-15044786D01*
X12992149Y-15044786D02*
X12982625Y-15025738D01*
X12982625Y-15025738D02*
X12963578Y-15016214D01*
X12963578Y-15016214D02*
X12935006Y-15016214D01*
X12935006Y-15016214D02*
X12915959Y-15006691D01*
X12915959Y-15006691D02*
X12906435Y-14987643D01*
X12906435Y-14987643D02*
X12906435Y-14978119D01*
X12906435Y-14978119D02*
X12915959Y-14959072D01*
X12915959Y-14959072D02*
X12935006Y-14949548D01*
X12935006Y-14949548D02*
X12963578Y-14949548D01*
X12963578Y-14949548D02*
X12982625Y-14959072D01*
X13058816Y-15159072D02*
X13068340Y-15149548D01*
X13068340Y-15149548D02*
X13087387Y-15120976D01*
X13087387Y-15120976D02*
X13096911Y-15101929D01*
X13096911Y-15101929D02*
X13106435Y-15073357D01*
X13106435Y-15073357D02*
X13115959Y-15025738D01*
X13115959Y-15025738D02*
X13115959Y-14987643D01*
X13115959Y-14987643D02*
X13106435Y-14940024D01*
X13106435Y-14940024D02*
X13096911Y-14911453D01*
X13096911Y-14911453D02*
X13087387Y-14892405D01*
X13087387Y-14892405D02*
X13068340Y-14863833D01*
X13068340Y-14863833D02*
X13058816Y-14854310D01*
M02*
