%TF.GenerationSoftware,KiCad,Pcbnew,7.0.10*%
%TF.CreationDate,2024-04-22T20:07:07+02:00*%
%TF.ProjectId,Lily58_Pro,4c696c79-3538-45f5-9072-6f2e6b696361,rev?*%
%TF.SameCoordinates,Original*%
%TF.FileFunction,Drillmap*%
%TF.FilePolarity,Positive*%
%FSLAX45Y45*%
G04 Gerber Fmt 4.5, Leading zero omitted, Abs format (unit mm)*
G04 Created by KiCad (PCBNEW 7.0.10) date 2024-04-22 20:07:07*
%MOMM*%
%LPD*%
G01*
G04 APERTURE LIST*
%ADD10C,0.200000*%
%ADD11C,0.100000*%
%ADD12C,0.130000*%
%ADD13C,0.240000*%
%ADD14C,0.470000*%
G04 APERTURE END LIST*
D10*
X11618662Y-13648078D02*
X11786231Y-13551064D01*
X11451092Y-13745092D02*
X11618662Y-13648078D01*
X8293753Y-5075063D02*
X8293753Y-4444370D01*
X8293753Y-5705756D02*
X8293753Y-5075063D01*
X11521171Y-3708676D02*
X10480388Y-3708676D01*
X21869242Y-12078973D02*
X22396000Y-12078973D01*
X21342484Y-12078973D02*
X21869242Y-12078973D01*
X20815726Y-12078973D02*
X21342484Y-12078973D01*
X20288967Y-12078973D02*
X20815726Y-12078973D01*
X19762209Y-12078973D02*
X20288967Y-12078973D01*
X19235451Y-12078973D02*
X19762209Y-12078973D01*
X18708693Y-12078973D02*
X19235451Y-12078973D01*
X18181935Y-12078973D02*
X18708693Y-12078973D01*
X18111352Y-12086078D02*
X18181935Y-12078973D01*
X18045633Y-12106456D02*
X18111352Y-12086078D01*
X17986177Y-12138706D02*
X18045633Y-12106456D01*
X17934388Y-12181427D02*
X17986177Y-12138706D01*
X17891668Y-12233216D02*
X17934388Y-12181427D01*
X17859417Y-12292671D02*
X17891668Y-12233216D01*
X17839039Y-12358391D02*
X17859417Y-12292671D01*
X17831935Y-12428973D02*
X17839039Y-12358391D01*
X19980765Y-3817049D02*
X18991954Y-3758537D01*
X20842076Y-3894556D02*
X19980765Y-3817049D01*
X21552570Y-3988516D02*
X20842076Y-3894556D01*
X22088932Y-4096385D02*
X21552570Y-3988516D01*
X17898956Y-3721565D02*
X16725088Y-3708676D01*
X18991954Y-3758537D02*
X17898956Y-3721565D01*
X17765831Y-13525566D02*
X17740350Y-13539388D01*
X17788026Y-13507257D02*
X17765831Y-13525566D01*
X17806335Y-13485062D02*
X17788026Y-13507257D01*
X17820157Y-13459581D02*
X17806335Y-13485062D01*
X17828890Y-13431415D02*
X17820157Y-13459581D01*
X17831935Y-13401166D02*
X17828890Y-13431415D01*
X22546000Y-5291838D02*
X22546000Y-6240000D01*
X22546000Y-4343676D02*
X22546000Y-5291838D01*
X8293753Y-6967143D02*
X8293753Y-6336449D01*
X8293753Y-7597836D02*
X8293753Y-6967143D01*
X8293753Y-8228530D02*
X8293753Y-7597836D01*
X8293753Y-8859223D02*
X8293753Y-8228530D01*
X10480388Y-3708676D02*
X9439604Y-3708676D01*
X12561954Y-3708676D02*
X11521171Y-3708676D01*
X13602738Y-3708676D02*
X12561954Y-3708676D01*
X14643521Y-3708676D02*
X13602738Y-3708676D01*
X15684305Y-3708676D02*
X14643521Y-3708676D01*
X16725088Y-3708676D02*
X15684305Y-3708676D01*
X8340094Y-3726596D02*
X8357930Y-3716921D01*
X8324557Y-3739412D02*
X8340094Y-3726596D01*
X8311741Y-3754949D02*
X8324557Y-3739412D01*
X8302066Y-3772785D02*
X8311741Y-3754949D01*
X8295952Y-3792501D02*
X8302066Y-3772785D01*
X8293821Y-3813676D02*
X8295952Y-3792501D01*
X8377646Y-3710807D02*
X8398821Y-3708676D01*
X8357930Y-3716921D02*
X8377646Y-3710807D01*
X9439604Y-3708676D02*
X8398821Y-3708676D01*
X8293753Y-6336449D02*
X8293753Y-5705756D01*
X8293753Y-4444370D02*
X8293753Y-3813676D01*
X8829176Y-11631807D02*
X8999333Y-11998954D01*
X8686311Y-11253067D02*
X8829176Y-11631807D01*
X8568800Y-10864913D02*
X8686311Y-11253067D01*
X8474708Y-10469525D02*
X8568800Y-10864913D01*
X8402097Y-10069083D02*
X8474708Y-10469525D01*
X8349030Y-9665766D02*
X8402097Y-10069083D01*
X8313569Y-9261756D02*
X8349030Y-9665766D01*
X8293778Y-8859232D02*
X8313569Y-9261756D01*
X10428886Y-14335728D02*
X10445676Y-14327176D01*
X10413021Y-14340447D02*
X10428886Y-14335728D01*
X10398125Y-14341397D02*
X10413021Y-14340447D01*
X10384247Y-14338644D02*
X10398125Y-14341397D01*
X10371433Y-14332253D02*
X10384247Y-14338644D01*
X10359730Y-14322288D02*
X10371433Y-14332253D01*
X10349184Y-14308815D02*
X10359730Y-14322288D01*
X10339843Y-14291898D02*
X10349184Y-14308815D01*
X11283523Y-13842106D02*
X11451092Y-13745092D01*
X11115954Y-13939120D02*
X11283523Y-13842106D01*
X10948384Y-14036134D02*
X11115954Y-13939120D01*
X10780815Y-14133148D02*
X10948384Y-14036134D01*
X10613245Y-14230162D02*
X10780815Y-14133148D01*
X10445676Y-14327176D02*
X10613245Y-14230162D01*
X10172273Y-14005266D02*
X10339843Y-14291898D01*
X10004704Y-13718634D02*
X10172273Y-14005266D01*
X9837134Y-13432002D02*
X10004704Y-13718634D01*
X9669565Y-13145370D02*
X9837134Y-13432002D01*
X9501995Y-12858738D02*
X9669565Y-13145370D01*
X9334426Y-12572106D02*
X9501995Y-12858738D01*
X9166856Y-12285474D02*
X9334426Y-12572106D01*
X8999287Y-11998842D02*
X9166856Y-12285474D01*
X16944983Y-13551166D02*
X17681935Y-13551166D01*
X16208030Y-13551166D02*
X16944983Y-13551166D01*
X15471078Y-13551166D02*
X16208030Y-13551166D01*
X14734126Y-13551166D02*
X15471078Y-13551166D01*
X13997174Y-13551166D02*
X14734126Y-13551166D01*
X13260222Y-13551166D02*
X13997174Y-13551166D01*
X12523269Y-13551166D02*
X13260222Y-13551166D01*
X11786317Y-13551166D02*
X12523269Y-13551166D01*
X17831935Y-13281601D02*
X17831935Y-13401166D01*
X17831935Y-13159797D02*
X17831935Y-13281601D01*
X17831935Y-13037993D02*
X17831935Y-13159797D01*
X17831935Y-12916189D02*
X17831935Y-13037993D01*
X17831935Y-12794385D02*
X17831935Y-12916189D01*
X17831935Y-12672581D02*
X17831935Y-12794385D01*
X17831935Y-12550777D02*
X17831935Y-12672581D01*
X17831935Y-12428973D02*
X17831935Y-12550777D01*
X17712184Y-13548121D02*
X17681935Y-13551166D01*
X17740350Y-13539388D02*
X17712184Y-13548121D01*
X22427847Y-4215619D02*
X22088932Y-4096385D01*
X22546000Y-4343676D02*
X22427847Y-4215619D01*
X22426249Y-12075929D02*
X22396000Y-12078973D01*
X22454415Y-12067195D02*
X22426249Y-12075929D01*
X22479896Y-12053374D02*
X22454415Y-12067195D01*
X22502091Y-12035065D02*
X22479896Y-12053374D01*
X22520400Y-12012870D02*
X22502091Y-12035065D01*
X22534222Y-11987389D02*
X22520400Y-12012870D01*
X22542955Y-11959223D02*
X22534222Y-11987389D01*
X22546000Y-11928973D02*
X22542955Y-11959223D01*
X22546000Y-10980811D02*
X22546000Y-11928973D01*
X22546000Y-10032649D02*
X22546000Y-10980811D01*
X22546000Y-9084487D02*
X22546000Y-10032649D01*
X22546000Y-8136324D02*
X22546000Y-9084487D01*
X22546000Y-7188162D02*
X22546000Y-8136324D01*
X22546000Y-6240000D02*
X22546000Y-7188162D01*
D11*
X8985000Y-4755000D02*
X9015000Y-4785000D01*
X9015000Y-4755000D02*
X8985000Y-4785000D01*
X9012499Y-5813486D02*
X9042499Y-5843486D01*
X9042499Y-5813486D02*
X9012499Y-5843486D01*
X9015000Y-5895000D02*
X9045000Y-5925000D01*
X9045000Y-5895000D02*
X9015000Y-5925000D01*
X9035000Y-6225000D02*
X9065000Y-6255000D01*
X9065000Y-6225000D02*
X9035000Y-6255000D01*
X9305000Y-9225000D02*
X9335000Y-9255000D01*
X9335000Y-9225000D02*
X9305000Y-9255000D01*
X9495000Y-4405000D02*
X9525000Y-4435000D01*
X9525000Y-4405000D02*
X9495000Y-4435000D01*
X9590000Y-6765585D02*
X9620000Y-6795585D01*
X9620000Y-6765585D02*
X9590000Y-6795585D01*
X9595000Y-5124000D02*
X9625000Y-5154000D01*
X9625000Y-5124000D02*
X9595000Y-5154000D01*
X9655000Y-6765000D02*
X9685000Y-6795000D01*
X9685000Y-6765000D02*
X9655000Y-6795000D01*
X9675000Y-4481575D02*
X9705000Y-4511575D01*
X9705000Y-4481575D02*
X9675000Y-4511575D01*
X9675000Y-4865000D02*
X9705000Y-4895000D01*
X9705000Y-4865000D02*
X9675000Y-4895000D01*
X10025000Y-4989575D02*
X10055000Y-5019575D01*
X10055000Y-4989575D02*
X10025000Y-5019575D01*
X10025001Y-6865000D02*
X10055001Y-6895000D01*
X10055001Y-6865000D02*
X10025001Y-6895000D01*
X10155000Y-5378000D02*
X10185000Y-5408000D01*
X10185000Y-5378000D02*
X10155000Y-5408000D01*
X10205000Y-13055000D02*
X10235000Y-13085000D01*
X10235000Y-13055000D02*
X10205000Y-13085000D01*
X10252500Y-5751574D02*
X10282500Y-5781574D01*
X10282500Y-5751574D02*
X10252500Y-5781574D01*
X10285000Y-6865000D02*
X10315000Y-6895000D01*
X10315000Y-6865000D02*
X10285000Y-6895000D01*
X10295000Y-6775000D02*
X10325000Y-6805000D01*
X10325000Y-6775000D02*
X10295000Y-6805000D01*
X10302500Y-6005574D02*
X10332500Y-6035574D01*
X10332500Y-6005574D02*
X10302500Y-6035574D01*
X10355000Y-6259574D02*
X10385000Y-6289574D01*
X10385000Y-6259574D02*
X10355000Y-6289574D01*
X10375000Y-13675000D02*
X10405000Y-13705000D01*
X10405000Y-13675000D02*
X10375000Y-13705000D01*
X10405000Y-10084999D02*
X10435000Y-10114999D01*
X10435000Y-10084999D02*
X10405000Y-10114999D01*
X10415000Y-6442500D02*
X10445000Y-6472500D01*
X10445000Y-6442500D02*
X10415000Y-6472500D01*
X10485000Y-6585000D02*
X10515000Y-6615000D01*
X10515000Y-6585000D02*
X10485000Y-6615000D01*
X10517783Y-6692217D02*
X10547783Y-6722217D01*
X10547783Y-6692217D02*
X10517783Y-6722217D01*
X10545000Y-5125000D02*
X10575000Y-5155000D01*
X10575000Y-5125000D02*
X10545000Y-5155000D01*
X10545000Y-6505000D02*
X10575000Y-6535000D01*
X10575000Y-6505000D02*
X10545000Y-6535000D01*
X10554999Y-5655000D02*
X10584999Y-5685000D01*
X10584999Y-5655000D02*
X10554999Y-5685000D01*
X10555000Y-4385000D02*
X10585000Y-4415000D01*
X10585000Y-4385000D02*
X10555000Y-4415000D01*
X10555000Y-5885000D02*
X10585000Y-5915000D01*
X10585000Y-5885000D02*
X10555000Y-5915000D01*
X10555000Y-6175000D02*
X10585000Y-6205000D01*
X10585000Y-6175000D02*
X10555000Y-6205000D01*
X10555000Y-6385000D02*
X10585000Y-6415000D01*
X10585000Y-6385000D02*
X10555000Y-6415000D01*
X10555001Y-4145000D02*
X10585001Y-4175000D01*
X10585001Y-4145000D02*
X10555001Y-4175000D01*
X10555002Y-5405000D02*
X10585002Y-5435000D01*
X10585002Y-5405000D02*
X10555002Y-5435000D01*
X10705000Y-11695000D02*
X10735000Y-11725000D01*
X10735000Y-11695000D02*
X10705000Y-11725000D01*
X10815000Y-9965000D02*
X10845000Y-9995000D01*
X10845000Y-9965000D02*
X10815000Y-9995000D01*
X10945000Y-9235001D02*
X10975000Y-9265001D01*
X10975000Y-9235001D02*
X10945000Y-9265001D01*
X10965000Y-7605000D02*
X10995000Y-7635000D01*
X10995000Y-7605000D02*
X10965000Y-7635000D01*
X10975000Y-8045000D02*
X11005000Y-8075000D01*
X11005000Y-8045000D02*
X10975000Y-8075000D01*
X11015000Y-6395000D02*
X11045000Y-6425000D01*
X11045000Y-6395000D02*
X11015000Y-6425000D01*
X11215000Y-6395000D02*
X11245000Y-6425000D01*
X11245000Y-6395000D02*
X11215000Y-6425000D01*
X11215000Y-8285000D02*
X11245000Y-8315000D01*
X11245000Y-8285000D02*
X11215000Y-8315000D01*
X11224999Y-4475000D02*
X11254999Y-4505000D01*
X11254999Y-4475000D02*
X11224999Y-4505000D01*
X11225000Y-10184999D02*
X11255000Y-10214999D01*
X11255000Y-10184999D02*
X11225000Y-10214999D01*
X11305000Y-13155000D02*
X11335000Y-13185000D01*
X11335000Y-13155000D02*
X11305000Y-13185000D01*
X12175000Y-12075000D02*
X12205000Y-12105000D01*
X12205000Y-12075000D02*
X12175000Y-12105000D01*
X12314999Y-5335000D02*
X12344999Y-5365000D01*
X12344999Y-5335000D02*
X12314999Y-5365000D01*
X12315000Y-9135001D02*
X12345000Y-9165001D01*
X12345000Y-9135001D02*
X12315000Y-9165001D01*
X12315000Y-11034999D02*
X12345000Y-11064999D01*
X12345000Y-11034999D02*
X12315000Y-11064999D01*
X12315001Y-7245000D02*
X12345001Y-7275000D01*
X12345001Y-7245000D02*
X12315001Y-7275000D01*
X12725000Y-5215000D02*
X12755000Y-5245000D01*
X12755000Y-5215000D02*
X12725000Y-5245000D01*
X12725000Y-7125000D02*
X12755000Y-7155000D01*
X12755000Y-7125000D02*
X12725000Y-7155000D01*
X12725000Y-9025000D02*
X12755000Y-9055000D01*
X12755000Y-9025000D02*
X12725000Y-9055000D01*
X12725000Y-10925000D02*
X12755000Y-10955000D01*
X12755000Y-10925000D02*
X12725000Y-10955000D01*
X12835000Y-4475000D02*
X12865000Y-4505000D01*
X12865000Y-4475000D02*
X12835000Y-4505000D01*
X12845000Y-10185000D02*
X12875000Y-10215000D01*
X12875000Y-10185000D02*
X12845000Y-10215000D01*
X12855000Y-6385000D02*
X12885000Y-6415000D01*
X12885000Y-6385000D02*
X12855000Y-6415000D01*
X12855000Y-8285000D02*
X12885000Y-8315000D01*
X12885000Y-8285000D02*
X12855000Y-8315000D01*
X13115000Y-8045000D02*
X13145000Y-8075000D01*
X13145000Y-8045000D02*
X13115000Y-8075000D01*
X13115000Y-10025000D02*
X13145000Y-10055000D01*
X13145000Y-10025000D02*
X13115000Y-10055000D01*
X13125000Y-4235000D02*
X13155000Y-4265000D01*
X13155000Y-4235000D02*
X13125000Y-4265000D01*
X13125000Y-6205000D02*
X13155000Y-6235000D01*
X13155000Y-6205000D02*
X13125000Y-6235000D01*
X13265001Y-12925000D02*
X13295001Y-12955000D01*
X13295001Y-12925000D02*
X13265001Y-12955000D01*
X13675000Y-12815000D02*
X13705000Y-12845000D01*
X13705000Y-12815000D02*
X13675000Y-12845000D01*
X13785000Y-12075000D02*
X13815000Y-12105000D01*
X13815000Y-12075000D02*
X13785000Y-12105000D01*
X14065000Y-11855000D02*
X14095000Y-11885000D01*
X14095000Y-11855000D02*
X14065000Y-11885000D01*
X14214999Y-8915000D02*
X14244999Y-8945000D01*
X14244999Y-8915000D02*
X14214999Y-8945000D01*
X14215000Y-5084999D02*
X14245000Y-5114999D01*
X14245000Y-5084999D02*
X14215000Y-5114999D01*
X14215000Y-10815001D02*
X14245000Y-10845001D01*
X14245000Y-10815001D02*
X14215000Y-10845001D01*
X14215001Y-7005000D02*
X14245001Y-7035000D01*
X14245001Y-7005000D02*
X14215001Y-7035000D01*
X14625000Y-4975000D02*
X14655000Y-5005000D01*
X14655000Y-4975000D02*
X14625000Y-5005000D01*
X14625000Y-6885000D02*
X14655000Y-6915000D01*
X14655000Y-6885000D02*
X14625000Y-6915000D01*
X14625000Y-8785000D02*
X14655000Y-8815000D01*
X14655000Y-8785000D02*
X14625000Y-8815000D01*
X14625000Y-10695000D02*
X14655000Y-10725000D01*
X14655000Y-10695000D02*
X14625000Y-10725000D01*
X14735000Y-6145000D02*
X14765000Y-6175000D01*
X14765000Y-6145000D02*
X14735000Y-6175000D01*
X14745000Y-4235000D02*
X14775000Y-4265000D01*
X14775000Y-4235000D02*
X14745000Y-4265000D01*
X14745000Y-9955000D02*
X14775000Y-9985000D01*
X14775000Y-9955000D02*
X14745000Y-9985000D01*
X14765000Y-8045000D02*
X14795000Y-8075000D01*
X14795000Y-8045000D02*
X14765000Y-8075000D01*
X15015000Y-9815000D02*
X15045000Y-9845000D01*
X15045000Y-9815000D02*
X15015000Y-9845000D01*
X15025000Y-7915000D02*
X15055000Y-7945000D01*
X15055000Y-7915000D02*
X15025000Y-7945000D01*
X15035000Y-4095000D02*
X15065000Y-4125000D01*
X15065000Y-4095000D02*
X15035000Y-4125000D01*
X15045000Y-6005000D02*
X15075000Y-6035000D01*
X15075000Y-6005000D02*
X15045000Y-6035000D01*
X15165000Y-12695000D02*
X15195000Y-12725000D01*
X15195000Y-12695000D02*
X15165000Y-12725000D01*
X15575000Y-12595000D02*
X15605000Y-12625000D01*
X15605000Y-12595000D02*
X15575000Y-12625000D01*
X15695000Y-11855000D02*
X15725000Y-11885000D01*
X15725000Y-11855000D02*
X15695000Y-11885000D01*
X15975000Y-11855000D02*
X16005000Y-11885000D01*
X16005000Y-11855000D02*
X15975000Y-11885000D01*
X16124999Y-6855000D02*
X16154999Y-6885000D01*
X16154999Y-6855000D02*
X16124999Y-6885000D01*
X16125000Y-4945000D02*
X16155000Y-4975000D01*
X16155000Y-4945000D02*
X16125000Y-4975000D01*
X16125000Y-8764999D02*
X16155000Y-8794999D01*
X16155000Y-8764999D02*
X16125000Y-8794999D01*
X16125000Y-10675000D02*
X16155000Y-10705000D01*
X16155000Y-10675000D02*
X16125000Y-10705000D01*
X16535000Y-4835000D02*
X16565000Y-4865000D01*
X16565000Y-4835000D02*
X16535000Y-4865000D01*
X16535000Y-6745000D02*
X16565000Y-6775000D01*
X16565000Y-6745000D02*
X16535000Y-6775000D01*
X16535000Y-8655000D02*
X16565000Y-8685000D01*
X16565000Y-8655000D02*
X16535000Y-8685000D01*
X16535000Y-10555000D02*
X16565000Y-10585000D01*
X16565000Y-10555000D02*
X16535000Y-10585000D01*
X16645000Y-6005000D02*
X16675000Y-6035000D01*
X16675000Y-6005000D02*
X16645000Y-6035000D01*
X16655000Y-4095000D02*
X16685000Y-4125000D01*
X16685000Y-4095000D02*
X16655000Y-4125000D01*
X16665000Y-7915000D02*
X16695000Y-7945000D01*
X16695000Y-7915000D02*
X16665000Y-7945000D01*
X16665000Y-9815000D02*
X16695000Y-9845000D01*
X16695000Y-9815000D02*
X16665000Y-9845000D01*
X16925000Y-4235000D02*
X16955000Y-4265000D01*
X16955000Y-4235000D02*
X16925000Y-4265000D01*
X16925000Y-9955000D02*
X16955000Y-9985000D01*
X16955000Y-9955000D02*
X16925000Y-9985000D01*
X16935000Y-6135000D02*
X16965000Y-6165000D01*
X16965000Y-6135000D02*
X16935000Y-6165000D01*
X16935000Y-8045000D02*
X16965000Y-8075000D01*
X16965000Y-8045000D02*
X16935000Y-8075000D01*
X17075001Y-12715000D02*
X17105001Y-12745000D01*
X17105001Y-12715000D02*
X17075001Y-12745000D01*
X17485000Y-12585000D02*
X17515000Y-12615000D01*
X17515000Y-12585000D02*
X17485000Y-12615000D01*
X17605000Y-11855000D02*
X17635000Y-11885000D01*
X17635000Y-11855000D02*
X17605000Y-11885000D01*
X18024999Y-10805000D02*
X18054999Y-10835000D01*
X18054999Y-10805000D02*
X18024999Y-10835000D01*
X18025000Y-5085000D02*
X18055000Y-5115000D01*
X18055000Y-5085000D02*
X18025000Y-5115000D01*
X18025000Y-6985001D02*
X18055000Y-7015001D01*
X18055000Y-6985001D02*
X18025000Y-7015001D01*
X18025000Y-8895000D02*
X18055000Y-8925000D01*
X18055000Y-8895000D02*
X18025000Y-8925000D01*
X18435000Y-4975000D02*
X18465000Y-5005000D01*
X18465000Y-4975000D02*
X18435000Y-5005000D01*
X18435000Y-6875000D02*
X18465000Y-6905000D01*
X18465000Y-6875000D02*
X18435000Y-6905000D01*
X18435000Y-8785000D02*
X18465000Y-8815000D01*
X18465000Y-8785000D02*
X18435000Y-8815000D01*
X18435000Y-10695000D02*
X18465000Y-10725000D01*
X18465000Y-10695000D02*
X18435000Y-10725000D01*
X18545000Y-6135000D02*
X18575000Y-6165000D01*
X18575000Y-6135000D02*
X18545000Y-6165000D01*
X18545000Y-9955000D02*
X18575000Y-9985000D01*
X18575000Y-9955000D02*
X18545000Y-9985000D01*
X18555000Y-4235000D02*
X18585000Y-4265000D01*
X18585000Y-4235000D02*
X18555000Y-4265000D01*
X18575000Y-8045000D02*
X18605000Y-8075000D01*
X18605000Y-8045000D02*
X18575000Y-8075000D01*
X18835000Y-8525000D02*
X18865000Y-8555000D01*
X18865000Y-8525000D02*
X18835000Y-8555000D01*
X18835000Y-10425000D02*
X18865000Y-10455000D01*
X18865000Y-10425000D02*
X18835000Y-10455000D01*
X18845000Y-4715000D02*
X18875000Y-4745000D01*
X18875000Y-4715000D02*
X18845000Y-4745000D01*
X18845000Y-6605000D02*
X18875000Y-6635000D01*
X18875000Y-6605000D02*
X18845000Y-6635000D01*
X19934999Y-5565000D02*
X19964999Y-5595000D01*
X19964999Y-5565000D02*
X19934999Y-5595000D01*
X19935000Y-9375000D02*
X19965000Y-9405000D01*
X19965000Y-9375000D02*
X19935000Y-9405000D01*
X19935000Y-7455000D02*
X19965000Y-7485000D01*
X19965000Y-7455000D02*
X19935000Y-7485000D01*
X19935001Y-11295000D02*
X19965001Y-11325000D01*
X19965001Y-11295000D02*
X19935001Y-11325000D01*
X20345000Y-5455000D02*
X20375000Y-5485000D01*
X20375000Y-5455000D02*
X20345000Y-5485000D01*
X20345000Y-7345000D02*
X20375000Y-7375000D01*
X20375000Y-7345000D02*
X20345000Y-7375000D01*
X20345000Y-9265000D02*
X20375000Y-9295000D01*
X20375000Y-9265000D02*
X20345000Y-9295000D01*
X20345000Y-11165000D02*
X20375000Y-11195000D01*
X20375000Y-11165000D02*
X20345000Y-11195000D01*
X20455000Y-4715000D02*
X20485000Y-4745000D01*
X20485000Y-4715000D02*
X20455000Y-4745000D01*
X20455000Y-6605000D02*
X20485000Y-6635000D01*
X20485000Y-6605000D02*
X20455000Y-6635000D01*
X20475000Y-8525000D02*
X20505000Y-8555000D01*
X20505000Y-8525000D02*
X20475000Y-8555000D01*
X20475000Y-10425000D02*
X20505000Y-10455000D01*
X20505000Y-10425000D02*
X20475000Y-10455000D01*
X20705000Y-4865000D02*
X20735000Y-4895000D01*
X20735000Y-4865000D02*
X20705000Y-4895000D01*
X20735000Y-10575000D02*
X20765000Y-10605000D01*
X20765000Y-10575000D02*
X20735000Y-10605000D01*
X20745000Y-6755000D02*
X20775000Y-6785000D01*
X20775000Y-6755000D02*
X20745000Y-6785000D01*
X20745001Y-8675000D02*
X20775001Y-8705000D01*
X20775001Y-8675000D02*
X20745001Y-8705000D01*
X21835000Y-5704999D02*
X21865000Y-5734999D01*
X21865000Y-5704999D02*
X21835000Y-5734999D01*
X21835000Y-7605000D02*
X21865000Y-7635000D01*
X21865000Y-7605000D02*
X21835000Y-7635000D01*
X21835000Y-9515000D02*
X21865000Y-9545000D01*
X21865000Y-9515000D02*
X21835000Y-9545000D01*
X21835000Y-11444999D02*
X21865000Y-11474999D01*
X21865000Y-11444999D02*
X21835000Y-11474999D01*
X22245000Y-5605000D02*
X22275000Y-5635000D01*
X22275000Y-5605000D02*
X22245000Y-5635000D01*
X22245000Y-7495000D02*
X22275000Y-7525000D01*
X22275000Y-7495000D02*
X22245000Y-7525000D01*
X22245000Y-9415000D02*
X22275000Y-9445000D01*
X22275000Y-9415000D02*
X22245000Y-9445000D01*
X22245000Y-11315000D02*
X22275000Y-11345000D01*
X22275000Y-11315000D02*
X22245000Y-11345000D01*
X22355000Y-4865000D02*
X22385000Y-4895000D01*
X22385000Y-4865000D02*
X22355000Y-4895000D01*
X22355000Y-6755000D02*
X22385000Y-6785000D01*
X22385000Y-6755000D02*
X22355000Y-6785000D01*
X22375000Y-8675000D02*
X22405000Y-8705000D01*
X22405000Y-8675000D02*
X22375000Y-8705000D01*
X22375000Y-10575000D02*
X22405000Y-10605000D01*
X22405000Y-10575000D02*
X22375000Y-10605000D01*
X10410000Y-8950000D02*
G75*
G03*
X10370000Y-8950000I-20000J0D01*
G01*
X10370000Y-8950000D02*
G75*
G03*
X10410000Y-8950000I20000J0D01*
G01*
X10750000Y-8950000D02*
G75*
G03*
X10710000Y-8950000I-20000J0D01*
G01*
X10710000Y-8950000D02*
G75*
G03*
X10750000Y-8950000I20000J0D01*
G01*
X10915000Y-11782776D02*
G75*
G03*
X10875000Y-11782776I-20000J0D01*
G01*
X10875000Y-11782776D02*
G75*
G03*
X10915000Y-11782776I20000J0D01*
G01*
X11085000Y-12077224D02*
G75*
G03*
X11045000Y-12077224I-20000J0D01*
G01*
X11045000Y-12077224D02*
G75*
G03*
X11085000Y-12077224I20000J0D01*
G01*
X11290000Y-5800000D02*
G75*
G03*
X11250000Y-5800000I-20000J0D01*
G01*
X11250000Y-5800000D02*
G75*
G03*
X11290000Y-5800000I20000J0D01*
G01*
X11290000Y-6110000D02*
G75*
G03*
X11250000Y-6110000I-20000J0D01*
G01*
X11250000Y-6110000D02*
G75*
G03*
X11290000Y-6110000I20000J0D01*
G01*
X11290000Y-9600000D02*
G75*
G03*
X11250000Y-9600000I-20000J0D01*
G01*
X11250000Y-9600000D02*
G75*
G03*
X11290000Y-9600000I20000J0D01*
G01*
X11290000Y-9910000D02*
G75*
G03*
X11250000Y-9910000I-20000J0D01*
G01*
X11250000Y-9910000D02*
G75*
G03*
X11290000Y-9910000I20000J0D01*
G01*
X11630000Y-5800000D02*
G75*
G03*
X11590000Y-5800000I-20000J0D01*
G01*
X11590000Y-5800000D02*
G75*
G03*
X11630000Y-5800000I20000J0D01*
G01*
X11630000Y-6110000D02*
G75*
G03*
X11590000Y-6110000I-20000J0D01*
G01*
X11590000Y-6110000D02*
G75*
G03*
X11630000Y-6110000I20000J0D01*
G01*
X11630000Y-9600000D02*
G75*
G03*
X11590000Y-9600000I-20000J0D01*
G01*
X11590000Y-9600000D02*
G75*
G03*
X11630000Y-9600000I20000J0D01*
G01*
X11630000Y-9910000D02*
G75*
G03*
X11590000Y-9910000I-20000J0D01*
G01*
X11590000Y-9910000D02*
G75*
G03*
X11630000Y-9910000I20000J0D01*
G01*
X12240000Y-11800000D02*
G75*
G03*
X12200000Y-11800000I-20000J0D01*
G01*
X12200000Y-11800000D02*
G75*
G03*
X12240000Y-11800000I20000J0D01*
G01*
X12580000Y-11800000D02*
G75*
G03*
X12540000Y-11800000I-20000J0D01*
G01*
X12540000Y-11800000D02*
G75*
G03*
X12580000Y-11800000I20000J0D01*
G01*
X13280000Y-5570000D02*
G75*
G03*
X13240000Y-5570000I-20000J0D01*
G01*
X13240000Y-5570000D02*
G75*
G03*
X13280000Y-5570000I20000J0D01*
G01*
X13280000Y-9380000D02*
G75*
G03*
X13240000Y-9380000I-20000J0D01*
G01*
X13240000Y-9380000D02*
G75*
G03*
X13280000Y-9380000I20000J0D01*
G01*
X13380000Y-5870000D02*
G75*
G03*
X13340000Y-5870000I-20000J0D01*
G01*
X13340000Y-5870000D02*
G75*
G03*
X13380000Y-5870000I20000J0D01*
G01*
X13380000Y-9680000D02*
G75*
G03*
X13340000Y-9680000I-20000J0D01*
G01*
X13340000Y-9680000D02*
G75*
G03*
X13380000Y-9680000I20000J0D01*
G01*
X13620000Y-5570000D02*
G75*
G03*
X13580000Y-5570000I-20000J0D01*
G01*
X13580000Y-5570000D02*
G75*
G03*
X13620000Y-5570000I20000J0D01*
G01*
X13620000Y-9380000D02*
G75*
G03*
X13580000Y-9380000I-20000J0D01*
G01*
X13580000Y-9380000D02*
G75*
G03*
X13620000Y-9380000I20000J0D01*
G01*
X13720000Y-5870000D02*
G75*
G03*
X13680000Y-5870000I-20000J0D01*
G01*
X13680000Y-5870000D02*
G75*
G03*
X13720000Y-5870000I20000J0D01*
G01*
X13720000Y-9680000D02*
G75*
G03*
X13680000Y-9680000I-20000J0D01*
G01*
X13680000Y-9680000D02*
G75*
G03*
X13720000Y-9680000I20000J0D01*
G01*
X14140000Y-11580000D02*
G75*
G03*
X14100000Y-11580000I-20000J0D01*
G01*
X14100000Y-11580000D02*
G75*
G03*
X14140000Y-11580000I20000J0D01*
G01*
X14480000Y-11580000D02*
G75*
G03*
X14440000Y-11580000I-20000J0D01*
G01*
X14440000Y-11580000D02*
G75*
G03*
X14480000Y-11580000I20000J0D01*
G01*
X15100000Y-5420000D02*
G75*
G03*
X15060000Y-5420000I-20000J0D01*
G01*
X15060000Y-5420000D02*
G75*
G03*
X15100000Y-5420000I20000J0D01*
G01*
X15100000Y-9230000D02*
G75*
G03*
X15060000Y-9230000I-20000J0D01*
G01*
X15060000Y-9230000D02*
G75*
G03*
X15100000Y-9230000I20000J0D01*
G01*
X15100000Y-9540000D02*
G75*
G03*
X15060000Y-9540000I-20000J0D01*
G01*
X15060000Y-9540000D02*
G75*
G03*
X15100000Y-9540000I20000J0D01*
G01*
X15110000Y-5740000D02*
G75*
G03*
X15070000Y-5740000I-20000J0D01*
G01*
X15070000Y-5740000D02*
G75*
G03*
X15110000Y-5740000I20000J0D01*
G01*
X15440000Y-5420000D02*
G75*
G03*
X15400000Y-5420000I-20000J0D01*
G01*
X15400000Y-5420000D02*
G75*
G03*
X15440000Y-5420000I20000J0D01*
G01*
X15440000Y-9230000D02*
G75*
G03*
X15400000Y-9230000I-20000J0D01*
G01*
X15400000Y-9230000D02*
G75*
G03*
X15440000Y-9230000I20000J0D01*
G01*
X15440000Y-9540000D02*
G75*
G03*
X15400000Y-9540000I-20000J0D01*
G01*
X15400000Y-9540000D02*
G75*
G03*
X15440000Y-9540000I20000J0D01*
G01*
X15450000Y-5740000D02*
G75*
G03*
X15410000Y-5740000I-20000J0D01*
G01*
X15410000Y-5740000D02*
G75*
G03*
X15450000Y-5740000I20000J0D01*
G01*
X16050000Y-11580000D02*
G75*
G03*
X16010000Y-11580000I-20000J0D01*
G01*
X16010000Y-11580000D02*
G75*
G03*
X16050000Y-11580000I20000J0D01*
G01*
X16390000Y-11580000D02*
G75*
G03*
X16350000Y-11580000I-20000J0D01*
G01*
X16350000Y-11580000D02*
G75*
G03*
X16390000Y-11580000I20000J0D01*
G01*
X17000000Y-5560000D02*
G75*
G03*
X16960000Y-5560000I-20000J0D01*
G01*
X16960000Y-5560000D02*
G75*
G03*
X17000000Y-5560000I20000J0D01*
G01*
X17000000Y-5870000D02*
G75*
G03*
X16960000Y-5870000I-20000J0D01*
G01*
X16960000Y-5870000D02*
G75*
G03*
X17000000Y-5870000I20000J0D01*
G01*
X17000000Y-9360000D02*
G75*
G03*
X16960000Y-9360000I-20000J0D01*
G01*
X16960000Y-9360000D02*
G75*
G03*
X17000000Y-9360000I20000J0D01*
G01*
X17000000Y-9680000D02*
G75*
G03*
X16960000Y-9680000I-20000J0D01*
G01*
X16960000Y-9680000D02*
G75*
G03*
X17000000Y-9680000I20000J0D01*
G01*
X17340000Y-5560000D02*
G75*
G03*
X17300000Y-5560000I-20000J0D01*
G01*
X17300000Y-5560000D02*
G75*
G03*
X17340000Y-5560000I20000J0D01*
G01*
X17340000Y-5870000D02*
G75*
G03*
X17300000Y-5870000I-20000J0D01*
G01*
X17300000Y-5870000D02*
G75*
G03*
X17340000Y-5870000I20000J0D01*
G01*
X17340000Y-9360000D02*
G75*
G03*
X17300000Y-9360000I-20000J0D01*
G01*
X17300000Y-9360000D02*
G75*
G03*
X17340000Y-9360000I20000J0D01*
G01*
X17340000Y-9680000D02*
G75*
G03*
X17300000Y-9680000I-20000J0D01*
G01*
X17300000Y-9680000D02*
G75*
G03*
X17340000Y-9680000I20000J0D01*
G01*
X18910000Y-6040000D02*
G75*
G03*
X18870000Y-6040000I-20000J0D01*
G01*
X18870000Y-6040000D02*
G75*
G03*
X18910000Y-6040000I20000J0D01*
G01*
X18910000Y-6330000D02*
G75*
G03*
X18870000Y-6330000I-20000J0D01*
G01*
X18870000Y-6330000D02*
G75*
G03*
X18910000Y-6330000I20000J0D01*
G01*
X18910000Y-9830000D02*
G75*
G03*
X18870000Y-9830000I-20000J0D01*
G01*
X18870000Y-9830000D02*
G75*
G03*
X18910000Y-9830000I20000J0D01*
G01*
X18910000Y-10150000D02*
G75*
G03*
X18870000Y-10150000I-20000J0D01*
G01*
X18870000Y-10150000D02*
G75*
G03*
X18910000Y-10150000I20000J0D01*
G01*
X19250000Y-6040000D02*
G75*
G03*
X19210000Y-6040000I-20000J0D01*
G01*
X19210000Y-6040000D02*
G75*
G03*
X19250000Y-6040000I20000J0D01*
G01*
X19250000Y-6330000D02*
G75*
G03*
X19210000Y-6330000I-20000J0D01*
G01*
X19210000Y-6330000D02*
G75*
G03*
X19250000Y-6330000I20000J0D01*
G01*
X19250000Y-9830000D02*
G75*
G03*
X19210000Y-9830000I-20000J0D01*
G01*
X19210000Y-9830000D02*
G75*
G03*
X19250000Y-9830000I20000J0D01*
G01*
X19250000Y-10150000D02*
G75*
G03*
X19210000Y-10150000I-20000J0D01*
G01*
X19210000Y-10150000D02*
G75*
G03*
X19250000Y-10150000I20000J0D01*
G01*
X22030000Y-6180000D02*
G75*
G03*
X21990000Y-6180000I-20000J0D01*
G01*
X21990000Y-6180000D02*
G75*
G03*
X22030000Y-6180000I20000J0D01*
G01*
X22030000Y-6490000D02*
G75*
G03*
X21990000Y-6490000I-20000J0D01*
G01*
X21990000Y-6490000D02*
G75*
G03*
X22030000Y-6490000I20000J0D01*
G01*
X22030000Y-9990000D02*
G75*
G03*
X21990000Y-9990000I-20000J0D01*
G01*
X21990000Y-9990000D02*
G75*
G03*
X22030000Y-9990000I20000J0D01*
G01*
X22040000Y-10310000D02*
G75*
G03*
X22000000Y-10310000I-20000J0D01*
G01*
X22000000Y-10310000D02*
G75*
G03*
X22040000Y-10310000I20000J0D01*
G01*
X22370000Y-6180000D02*
G75*
G03*
X22330000Y-6180000I-20000J0D01*
G01*
X22330000Y-6180000D02*
G75*
G03*
X22370000Y-6180000I20000J0D01*
G01*
X22370000Y-6490000D02*
G75*
G03*
X22330000Y-6490000I-20000J0D01*
G01*
X22330000Y-6490000D02*
G75*
G03*
X22370000Y-6490000I20000J0D01*
G01*
X22370000Y-9990000D02*
G75*
G03*
X22330000Y-9990000I-20000J0D01*
G01*
X22330000Y-9990000D02*
G75*
G03*
X22370000Y-9990000I20000J0D01*
G01*
X22380000Y-10310000D02*
G75*
G03*
X22340000Y-10310000I-20000J0D01*
G01*
X22340000Y-10310000D02*
G75*
G03*
X22380000Y-10310000I20000J0D01*
G01*
X8405000Y-4235000D02*
X8405000Y-4285000D01*
X8380000Y-4260000D02*
X8430000Y-4260000D01*
X8380000Y-4205000D02*
X8380000Y-4315000D01*
X8380000Y-4315000D02*
G75*
G03*
X8430000Y-4315000I25000J0D01*
G01*
X8430000Y-4315000D02*
X8430000Y-4205000D01*
X8430000Y-4205000D02*
G75*
G03*
X8380000Y-4205000I-25000J0D01*
G01*
X8405000Y-4535000D02*
X8405000Y-4585000D01*
X8380000Y-4560000D02*
X8430000Y-4560000D01*
X8380000Y-4505000D02*
X8380000Y-4615000D01*
X8380000Y-4615000D02*
G75*
G03*
X8430000Y-4615000I25000J0D01*
G01*
X8430000Y-4615000D02*
X8430000Y-4505000D01*
X8430000Y-4505000D02*
G75*
G03*
X8380000Y-4505000I-25000J0D01*
G01*
X8405000Y-4935000D02*
X8405000Y-4985000D01*
X8380000Y-4960000D02*
X8430000Y-4960000D01*
X8380000Y-4905000D02*
X8380000Y-5015000D01*
X8380000Y-5015000D02*
G75*
G03*
X8430000Y-5015000I25000J0D01*
G01*
X8430000Y-5015000D02*
X8430000Y-4905000D01*
X8430000Y-4905000D02*
G75*
G03*
X8380000Y-4905000I-25000J0D01*
G01*
X8580000Y-5085000D02*
X8580000Y-5135000D01*
X8555000Y-5110000D02*
X8605000Y-5110000D01*
X8555000Y-5055000D02*
X8555000Y-5165000D01*
X8555000Y-5165000D02*
G75*
G03*
X8605000Y-5165000I25000J0D01*
G01*
X8605000Y-5165000D02*
X8605000Y-5055000D01*
X8605000Y-5055000D02*
G75*
G03*
X8555000Y-5055000I-25000J0D01*
G01*
X8825000Y-5085000D02*
X8825000Y-5135000D01*
X8800000Y-5110000D02*
X8850000Y-5110000D01*
X8800000Y-5055000D02*
X8800000Y-5165000D01*
X8800000Y-5165000D02*
G75*
G03*
X8850000Y-5165000I25000J0D01*
G01*
X8850000Y-5165000D02*
X8850000Y-5055000D01*
X8850000Y-5055000D02*
G75*
G03*
X8800000Y-5055000I-25000J0D01*
G01*
X9000000Y-4235000D02*
X9000000Y-4285000D01*
X8975000Y-4260000D02*
X9025000Y-4260000D01*
X8975000Y-4205000D02*
X8975000Y-4315000D01*
X8975000Y-4315000D02*
G75*
G03*
X9025000Y-4315000I25000J0D01*
G01*
X9025000Y-4315000D02*
X9025000Y-4205000D01*
X9025000Y-4205000D02*
G75*
G03*
X8975000Y-4205000I-25000J0D01*
G01*
X9000000Y-4535000D02*
X9000000Y-4585000D01*
X8975000Y-4560000D02*
X9025000Y-4560000D01*
X8975000Y-4505000D02*
X8975000Y-4615000D01*
X8975000Y-4615000D02*
G75*
G03*
X9025000Y-4615000I25000J0D01*
G01*
X9025000Y-4615000D02*
X9025000Y-4505000D01*
X9025000Y-4505000D02*
G75*
G03*
X8975000Y-4505000I-25000J0D01*
G01*
X9000000Y-4935000D02*
X9000000Y-4985000D01*
X8975000Y-4960000D02*
X9025000Y-4960000D01*
X8975000Y-4905000D02*
X8975000Y-5015000D01*
X8975000Y-5015000D02*
G75*
G03*
X9025000Y-5015000I25000J0D01*
G01*
X9025000Y-5015000D02*
X9025000Y-4905000D01*
X9025000Y-4905000D02*
G75*
G03*
X8975000Y-4905000I-25000J0D01*
G01*
X8497541Y-5378664D02*
X8497541Y-5321190D01*
X8440066Y-5321190D01*
X8440066Y-5378664D01*
X8497541Y-5378664D01*
X8497541Y-5886664D02*
X8497541Y-5829190D01*
X8440066Y-5829190D01*
X8440066Y-5886664D01*
X8497541Y-5886664D01*
X8498737Y-6098737D02*
X8498737Y-6041263D01*
X8441263Y-6041263D01*
X8441263Y-6098737D01*
X8498737Y-6098737D01*
X8718737Y-6098737D02*
X8718737Y-6041263D01*
X8661263Y-6041263D01*
X8661263Y-6098737D01*
X8718737Y-6098737D01*
X8722541Y-5378664D02*
X8722541Y-5321190D01*
X8665066Y-5321190D01*
X8665066Y-5378664D01*
X8722541Y-5378664D01*
X8722541Y-5886664D02*
X8722541Y-5829190D01*
X8665066Y-5829190D01*
X8665066Y-5886664D01*
X8722541Y-5886664D01*
X9246737Y-4151737D02*
X9246737Y-4094263D01*
X9189263Y-4094263D01*
X9189263Y-4151737D01*
X9246737Y-4151737D01*
X9246737Y-4405737D02*
X9246737Y-4348263D01*
X9189263Y-4348263D01*
X9189263Y-4405737D01*
X9246737Y-4405737D01*
X9246737Y-4659737D02*
X9246737Y-4602263D01*
X9189263Y-4602263D01*
X9189263Y-4659737D01*
X9246737Y-4659737D01*
X9246737Y-4913737D02*
X9246737Y-4856263D01*
X9189263Y-4856263D01*
X9189263Y-4913737D01*
X9246737Y-4913737D01*
X9246737Y-5167737D02*
X9246737Y-5110263D01*
X9189263Y-5110263D01*
X9189263Y-5167737D01*
X9246737Y-5167737D01*
X9246737Y-5421737D02*
X9246737Y-5364263D01*
X9189263Y-5364263D01*
X9189263Y-5421737D01*
X9246737Y-5421737D01*
X9246737Y-5675737D02*
X9246737Y-5618263D01*
X9189263Y-5618263D01*
X9189263Y-5675737D01*
X9246737Y-5675737D01*
X9246737Y-5929737D02*
X9246737Y-5872263D01*
X9189263Y-5872263D01*
X9189263Y-5929737D01*
X9246737Y-5929737D01*
X9246737Y-6183737D02*
X9246737Y-6126263D01*
X9189263Y-6126263D01*
X9189263Y-6183737D01*
X9246737Y-6183737D01*
X9246737Y-6437737D02*
X9246737Y-6380263D01*
X9189263Y-6380263D01*
X9189263Y-6437737D01*
X9246737Y-6437737D01*
X9246737Y-6691737D02*
X9246737Y-6634263D01*
X9189263Y-6634263D01*
X9189263Y-6691737D01*
X9246737Y-6691737D01*
X9246737Y-6945737D02*
X9246737Y-6888263D01*
X9189263Y-6888263D01*
X9189263Y-6945737D01*
X9246737Y-6945737D01*
X9376619Y-4271312D02*
X9376619Y-4213837D01*
X9319144Y-4213837D01*
X9319144Y-4271312D01*
X9376619Y-4271312D01*
X9376619Y-4525312D02*
X9376619Y-4467837D01*
X9319144Y-4467837D01*
X9319144Y-4525312D01*
X9376619Y-4525312D01*
X9376619Y-4779312D02*
X9376619Y-4721837D01*
X9319144Y-4721837D01*
X9319144Y-4779312D01*
X9376619Y-4779312D01*
X9376619Y-5033312D02*
X9376619Y-4975837D01*
X9319144Y-4975837D01*
X9319144Y-5033312D01*
X9376619Y-5033312D01*
X9376619Y-5287312D02*
X9376619Y-5229837D01*
X9319144Y-5229837D01*
X9319144Y-5287312D01*
X9376619Y-5287312D01*
X9376619Y-5541312D02*
X9376619Y-5483837D01*
X9319144Y-5483837D01*
X9319144Y-5541312D01*
X9376619Y-5541312D01*
X9376619Y-5795312D02*
X9376619Y-5737837D01*
X9319144Y-5737837D01*
X9319144Y-5795312D01*
X9376619Y-5795312D01*
X9376619Y-6049312D02*
X9376619Y-5991837D01*
X9319144Y-5991837D01*
X9319144Y-6049312D01*
X9376619Y-6049312D01*
X9376619Y-6303312D02*
X9376619Y-6245837D01*
X9319144Y-6245837D01*
X9319144Y-6303312D01*
X9376619Y-6303312D01*
X9376619Y-6557312D02*
X9376619Y-6499837D01*
X9319144Y-6499837D01*
X9319144Y-6557312D01*
X9376619Y-6557312D01*
X9376619Y-6811312D02*
X9376619Y-6753837D01*
X9319144Y-6753837D01*
X9319144Y-6811312D01*
X9376619Y-6811312D01*
X9376619Y-7065312D02*
X9376619Y-7007837D01*
X9319144Y-7007837D01*
X9319144Y-7065312D01*
X9376619Y-7065312D01*
X9698737Y-7488737D02*
X9698737Y-7431263D01*
X9641263Y-7431263D01*
X9641263Y-7488737D01*
X9698737Y-7488737D01*
X9952737Y-7488737D02*
X9952737Y-7431263D01*
X9895263Y-7431263D01*
X9895263Y-7488737D01*
X9952737Y-7488737D01*
X10206737Y-7488737D02*
X10206737Y-7431263D01*
X10149263Y-7431263D01*
X10149263Y-7488737D01*
X10206737Y-7488737D01*
X10460737Y-7488737D02*
X10460737Y-7431263D01*
X10403263Y-7431263D01*
X10403263Y-7488737D01*
X10460737Y-7488737D01*
X10770737Y-4151737D02*
X10770737Y-4094263D01*
X10713263Y-4094263D01*
X10713263Y-4151737D01*
X10770737Y-4151737D01*
X10770737Y-4405737D02*
X10770737Y-4348263D01*
X10713263Y-4348263D01*
X10713263Y-4405737D01*
X10770737Y-4405737D01*
X10770737Y-4659737D02*
X10770737Y-4602263D01*
X10713263Y-4602263D01*
X10713263Y-4659737D01*
X10770737Y-4659737D01*
X10770737Y-4913737D02*
X10770737Y-4856263D01*
X10713263Y-4856263D01*
X10713263Y-4913737D01*
X10770737Y-4913737D01*
X10770737Y-5167737D02*
X10770737Y-5110263D01*
X10713263Y-5110263D01*
X10713263Y-5167737D01*
X10770737Y-5167737D01*
X10770737Y-5421737D02*
X10770737Y-5364263D01*
X10713263Y-5364263D01*
X10713263Y-5421737D01*
X10770737Y-5421737D01*
X10770737Y-5675737D02*
X10770737Y-5618263D01*
X10713263Y-5618263D01*
X10713263Y-5675737D01*
X10770737Y-5675737D01*
X10770737Y-5929737D02*
X10770737Y-5872263D01*
X10713263Y-5872263D01*
X10713263Y-5929737D01*
X10770737Y-5929737D01*
X10770737Y-6183737D02*
X10770737Y-6126263D01*
X10713263Y-6126263D01*
X10713263Y-6183737D01*
X10770737Y-6183737D01*
X10770737Y-6437737D02*
X10770737Y-6380263D01*
X10713263Y-6380263D01*
X10713263Y-6437737D01*
X10770737Y-6437737D01*
X10770737Y-6691737D02*
X10770737Y-6634263D01*
X10713263Y-6634263D01*
X10713263Y-6691737D01*
X10770737Y-6691737D01*
X10770737Y-6945737D02*
X10770737Y-6888263D01*
X10713263Y-6888263D01*
X10713263Y-6945737D01*
X10770737Y-6945737D01*
X10900619Y-4271312D02*
X10900619Y-4213837D01*
X10843144Y-4213837D01*
X10843144Y-4271312D01*
X10900619Y-4271312D01*
X10900619Y-4525312D02*
X10900619Y-4467837D01*
X10843144Y-4467837D01*
X10843144Y-4525312D01*
X10900619Y-4525312D01*
X10900619Y-4779312D02*
X10900619Y-4721837D01*
X10843144Y-4721837D01*
X10843144Y-4779312D01*
X10900619Y-4779312D01*
X10900619Y-5033312D02*
X10900619Y-4975837D01*
X10843144Y-4975837D01*
X10843144Y-5033312D01*
X10900619Y-5033312D01*
X10900619Y-5287312D02*
X10900619Y-5229837D01*
X10843144Y-5229837D01*
X10843144Y-5287312D01*
X10900619Y-5287312D01*
X10900619Y-5541312D02*
X10900619Y-5483837D01*
X10843144Y-5483837D01*
X10843144Y-5541312D01*
X10900619Y-5541312D01*
X10900619Y-5795312D02*
X10900619Y-5737837D01*
X10843144Y-5737837D01*
X10843144Y-5795312D01*
X10900619Y-5795312D01*
X10900619Y-6049312D02*
X10900619Y-5991837D01*
X10843144Y-5991837D01*
X10843144Y-6049312D01*
X10900619Y-6049312D01*
X10900619Y-6303312D02*
X10900619Y-6245837D01*
X10843144Y-6245837D01*
X10843144Y-6303312D01*
X10900619Y-6303312D01*
X10900619Y-6557312D02*
X10900619Y-6499837D01*
X10843144Y-6499837D01*
X10843144Y-6557312D01*
X10900619Y-6557312D01*
X10900619Y-6811312D02*
X10900619Y-6753837D01*
X10843144Y-6753837D01*
X10843144Y-6811312D01*
X10900619Y-6811312D01*
X10900619Y-7065312D02*
X10900619Y-7007837D01*
X10843144Y-7007837D01*
X10843144Y-7065312D01*
X10900619Y-7065312D01*
X11270000Y-7700000D02*
X11320000Y-7650000D01*
X11270000Y-7600000D01*
X11220000Y-7650000D01*
X11270000Y-7700000D01*
X11270000Y-7910000D02*
X11320000Y-7860000D01*
X11270000Y-7810000D01*
X11220000Y-7860000D01*
X11270000Y-7910000D01*
X11270000Y-8110000D02*
X11320000Y-8060000D01*
X11270000Y-8010000D01*
X11220000Y-8060000D01*
X11270000Y-8110000D01*
D12*
X8435000Y-6380000D02*
X8565000Y-6510000D01*
X8565000Y-6380000D02*
X8435000Y-6510000D01*
X8565000Y-6445000D02*
G75*
G03*
X8435000Y-6445000I-65000J0D01*
G01*
X8435000Y-6445000D02*
G75*
G03*
X8565000Y-6445000I65000J0D01*
G01*
X8435000Y-7030000D02*
X8565000Y-7160000D01*
X8565000Y-7030000D02*
X8435000Y-7160000D01*
X8565000Y-7095000D02*
G75*
G03*
X8435000Y-7095000I-65000J0D01*
G01*
X8435000Y-7095000D02*
G75*
G03*
X8565000Y-7095000I65000J0D01*
G01*
D13*
X8480000Y-8380000D02*
X8720000Y-8620000D01*
X8720000Y-8380000D02*
X8480000Y-8620000D01*
X8600000Y-8380000D02*
X8600000Y-8620000D01*
X8480000Y-8500000D02*
X8720000Y-8500000D01*
X10680000Y-8380000D02*
X10920000Y-8620000D01*
X10920000Y-8380000D02*
X10680000Y-8620000D01*
X10800000Y-8380000D02*
X10800000Y-8620000D01*
X10680000Y-8500000D02*
X10920000Y-8500000D01*
D14*
X10265000Y-11245000D02*
X10735000Y-11715000D01*
X10735000Y-11245000D02*
X10265000Y-11715000D01*
X10666172Y-11646172D02*
X10666172Y-11313828D01*
X10333828Y-11313828D01*
X10333828Y-11646172D01*
X10666172Y-11646172D01*
X12725000Y-5725000D02*
X13195000Y-6195000D01*
X13195000Y-5725000D02*
X12725000Y-6195000D01*
X13126172Y-6126172D02*
X13126172Y-5793828D01*
X12793828Y-5793828D01*
X12793828Y-6126172D01*
X13126172Y-6126172D01*
X12725000Y-9525000D02*
X13195000Y-9995000D01*
X13195000Y-9525000D02*
X12725000Y-9995000D01*
X13126172Y-9926172D02*
X13126172Y-9593828D01*
X12793828Y-9593828D01*
X12793828Y-9926172D01*
X13126172Y-9926172D01*
X20345000Y-5945000D02*
X20815000Y-6415000D01*
X20815000Y-5945000D02*
X20345000Y-6415000D01*
X20746172Y-6346172D02*
X20746172Y-6013828D01*
X20413828Y-6013828D01*
X20413828Y-6346172D01*
X20746172Y-6346172D01*
X20345000Y-9765000D02*
X20815000Y-10235000D01*
X20815000Y-9765000D02*
X20345000Y-10235000D01*
X20746172Y-10166172D02*
X20746172Y-9833828D01*
X20413828Y-9833828D01*
X20413828Y-10166172D01*
X20746172Y-10166172D01*
D10*
X8544530Y-14662881D02*
X8544530Y-14462881D01*
X8544530Y-14462881D02*
X8592149Y-14462881D01*
X8592149Y-14462881D02*
X8620720Y-14472405D01*
X8620720Y-14472405D02*
X8639768Y-14491453D01*
X8639768Y-14491453D02*
X8649292Y-14510500D01*
X8649292Y-14510500D02*
X8658815Y-14548595D01*
X8658815Y-14548595D02*
X8658815Y-14577167D01*
X8658815Y-14577167D02*
X8649292Y-14615262D01*
X8649292Y-14615262D02*
X8639768Y-14634310D01*
X8639768Y-14634310D02*
X8620720Y-14653357D01*
X8620720Y-14653357D02*
X8592149Y-14662881D01*
X8592149Y-14662881D02*
X8544530Y-14662881D01*
X8744530Y-14662881D02*
X8744530Y-14529548D01*
X8744530Y-14567643D02*
X8754053Y-14548595D01*
X8754053Y-14548595D02*
X8763577Y-14539072D01*
X8763577Y-14539072D02*
X8782625Y-14529548D01*
X8782625Y-14529548D02*
X8801673Y-14529548D01*
X8868339Y-14662881D02*
X8868339Y-14529548D01*
X8868339Y-14462881D02*
X8858815Y-14472405D01*
X8858815Y-14472405D02*
X8868339Y-14481929D01*
X8868339Y-14481929D02*
X8877863Y-14472405D01*
X8877863Y-14472405D02*
X8868339Y-14462881D01*
X8868339Y-14462881D02*
X8868339Y-14481929D01*
X8992149Y-14662881D02*
X8973101Y-14653357D01*
X8973101Y-14653357D02*
X8963577Y-14634310D01*
X8963577Y-14634310D02*
X8963577Y-14462881D01*
X9096911Y-14662881D02*
X9077863Y-14653357D01*
X9077863Y-14653357D02*
X9068339Y-14634310D01*
X9068339Y-14634310D02*
X9068339Y-14462881D01*
X9325482Y-14662881D02*
X9325482Y-14462881D01*
X9325482Y-14462881D02*
X9392149Y-14605738D01*
X9392149Y-14605738D02*
X9458815Y-14462881D01*
X9458815Y-14462881D02*
X9458815Y-14662881D01*
X9639768Y-14662881D02*
X9639768Y-14558119D01*
X9639768Y-14558119D02*
X9630244Y-14539072D01*
X9630244Y-14539072D02*
X9611196Y-14529548D01*
X9611196Y-14529548D02*
X9573101Y-14529548D01*
X9573101Y-14529548D02*
X9554053Y-14539072D01*
X9639768Y-14653357D02*
X9620720Y-14662881D01*
X9620720Y-14662881D02*
X9573101Y-14662881D01*
X9573101Y-14662881D02*
X9554053Y-14653357D01*
X9554053Y-14653357D02*
X9544530Y-14634310D01*
X9544530Y-14634310D02*
X9544530Y-14615262D01*
X9544530Y-14615262D02*
X9554053Y-14596214D01*
X9554053Y-14596214D02*
X9573101Y-14586691D01*
X9573101Y-14586691D02*
X9620720Y-14586691D01*
X9620720Y-14586691D02*
X9639768Y-14577167D01*
X9735006Y-14529548D02*
X9735006Y-14729548D01*
X9735006Y-14539072D02*
X9754053Y-14529548D01*
X9754053Y-14529548D02*
X9792149Y-14529548D01*
X9792149Y-14529548D02*
X9811196Y-14539072D01*
X9811196Y-14539072D02*
X9820720Y-14548595D01*
X9820720Y-14548595D02*
X9830244Y-14567643D01*
X9830244Y-14567643D02*
X9830244Y-14624786D01*
X9830244Y-14624786D02*
X9820720Y-14643833D01*
X9820720Y-14643833D02*
X9811196Y-14653357D01*
X9811196Y-14653357D02*
X9792149Y-14662881D01*
X9792149Y-14662881D02*
X9754053Y-14662881D01*
X9754053Y-14662881D02*
X9735006Y-14653357D01*
X9915958Y-14643833D02*
X9925482Y-14653357D01*
X9925482Y-14653357D02*
X9915958Y-14662881D01*
X9915958Y-14662881D02*
X9906434Y-14653357D01*
X9906434Y-14653357D02*
X9915958Y-14643833D01*
X9915958Y-14643833D02*
X9915958Y-14662881D01*
X9915958Y-14539072D02*
X9925482Y-14548595D01*
X9925482Y-14548595D02*
X9915958Y-14558119D01*
X9915958Y-14558119D02*
X9906434Y-14548595D01*
X9906434Y-14548595D02*
X9915958Y-14539072D01*
X9915958Y-14539072D02*
X9915958Y-14558119D01*
D11*
X8253753Y-14976397D02*
X8283753Y-15006397D01*
X8283753Y-14976397D02*
X8253753Y-15006397D01*
D10*
X8582625Y-14882881D02*
X8601673Y-14882881D01*
X8601673Y-14882881D02*
X8620720Y-14892405D01*
X8620720Y-14892405D02*
X8630244Y-14901929D01*
X8630244Y-14901929D02*
X8639768Y-14920976D01*
X8639768Y-14920976D02*
X8649292Y-14959072D01*
X8649292Y-14959072D02*
X8649292Y-15006691D01*
X8649292Y-15006691D02*
X8639768Y-15044786D01*
X8639768Y-15044786D02*
X8630244Y-15063833D01*
X8630244Y-15063833D02*
X8620720Y-15073357D01*
X8620720Y-15073357D02*
X8601673Y-15082881D01*
X8601673Y-15082881D02*
X8582625Y-15082881D01*
X8582625Y-15082881D02*
X8563577Y-15073357D01*
X8563577Y-15073357D02*
X8554053Y-15063833D01*
X8554053Y-15063833D02*
X8544530Y-15044786D01*
X8544530Y-15044786D02*
X8535006Y-15006691D01*
X8535006Y-15006691D02*
X8535006Y-14959072D01*
X8535006Y-14959072D02*
X8544530Y-14920976D01*
X8544530Y-14920976D02*
X8554053Y-14901929D01*
X8554053Y-14901929D02*
X8563577Y-14892405D01*
X8563577Y-14892405D02*
X8582625Y-14882881D01*
X8735006Y-15063833D02*
X8744530Y-15073357D01*
X8744530Y-15073357D02*
X8735006Y-15082881D01*
X8735006Y-15082881D02*
X8725482Y-15073357D01*
X8725482Y-15073357D02*
X8735006Y-15063833D01*
X8735006Y-15063833D02*
X8735006Y-15082881D01*
X8811196Y-14882881D02*
X8935006Y-14882881D01*
X8935006Y-14882881D02*
X8868339Y-14959072D01*
X8868339Y-14959072D02*
X8896911Y-14959072D01*
X8896911Y-14959072D02*
X8915958Y-14968595D01*
X8915958Y-14968595D02*
X8925482Y-14978119D01*
X8925482Y-14978119D02*
X8935006Y-14997167D01*
X8935006Y-14997167D02*
X8935006Y-15044786D01*
X8935006Y-15044786D02*
X8925482Y-15063833D01*
X8925482Y-15063833D02*
X8915958Y-15073357D01*
X8915958Y-15073357D02*
X8896911Y-15082881D01*
X8896911Y-15082881D02*
X8839768Y-15082881D01*
X8839768Y-15082881D02*
X8820720Y-15073357D01*
X8820720Y-15073357D02*
X8811196Y-15063833D01*
X9058815Y-14882881D02*
X9077863Y-14882881D01*
X9077863Y-14882881D02*
X9096911Y-14892405D01*
X9096911Y-14892405D02*
X9106434Y-14901929D01*
X9106434Y-14901929D02*
X9115958Y-14920976D01*
X9115958Y-14920976D02*
X9125482Y-14959072D01*
X9125482Y-14959072D02*
X9125482Y-15006691D01*
X9125482Y-15006691D02*
X9115958Y-15044786D01*
X9115958Y-15044786D02*
X9106434Y-15063833D01*
X9106434Y-15063833D02*
X9096911Y-15073357D01*
X9096911Y-15073357D02*
X9077863Y-15082881D01*
X9077863Y-15082881D02*
X9058815Y-15082881D01*
X9058815Y-15082881D02*
X9039768Y-15073357D01*
X9039768Y-15073357D02*
X9030244Y-15063833D01*
X9030244Y-15063833D02*
X9020720Y-15044786D01*
X9020720Y-15044786D02*
X9011196Y-15006691D01*
X9011196Y-15006691D02*
X9011196Y-14959072D01*
X9011196Y-14959072D02*
X9020720Y-14920976D01*
X9020720Y-14920976D02*
X9030244Y-14901929D01*
X9030244Y-14901929D02*
X9039768Y-14892405D01*
X9039768Y-14892405D02*
X9058815Y-14882881D01*
X9249292Y-14882881D02*
X9268339Y-14882881D01*
X9268339Y-14882881D02*
X9287387Y-14892405D01*
X9287387Y-14892405D02*
X9296911Y-14901929D01*
X9296911Y-14901929D02*
X9306434Y-14920976D01*
X9306434Y-14920976D02*
X9315958Y-14959072D01*
X9315958Y-14959072D02*
X9315958Y-15006691D01*
X9315958Y-15006691D02*
X9306434Y-15044786D01*
X9306434Y-15044786D02*
X9296911Y-15063833D01*
X9296911Y-15063833D02*
X9287387Y-15073357D01*
X9287387Y-15073357D02*
X9268339Y-15082881D01*
X9268339Y-15082881D02*
X9249292Y-15082881D01*
X9249292Y-15082881D02*
X9230244Y-15073357D01*
X9230244Y-15073357D02*
X9220720Y-15063833D01*
X9220720Y-15063833D02*
X9211196Y-15044786D01*
X9211196Y-15044786D02*
X9201673Y-15006691D01*
X9201673Y-15006691D02*
X9201673Y-14959072D01*
X9201673Y-14959072D02*
X9211196Y-14920976D01*
X9211196Y-14920976D02*
X9220720Y-14901929D01*
X9220720Y-14901929D02*
X9230244Y-14892405D01*
X9230244Y-14892405D02*
X9249292Y-14882881D01*
X9401673Y-15082881D02*
X9401673Y-14949548D01*
X9401673Y-14968595D02*
X9411196Y-14959072D01*
X9411196Y-14959072D02*
X9430244Y-14949548D01*
X9430244Y-14949548D02*
X9458815Y-14949548D01*
X9458815Y-14949548D02*
X9477863Y-14959072D01*
X9477863Y-14959072D02*
X9487387Y-14978119D01*
X9487387Y-14978119D02*
X9487387Y-15082881D01*
X9487387Y-14978119D02*
X9496911Y-14959072D01*
X9496911Y-14959072D02*
X9515958Y-14949548D01*
X9515958Y-14949548D02*
X9544530Y-14949548D01*
X9544530Y-14949548D02*
X9563577Y-14959072D01*
X9563577Y-14959072D02*
X9573101Y-14978119D01*
X9573101Y-14978119D02*
X9573101Y-15082881D01*
X9668339Y-15082881D02*
X9668339Y-14949548D01*
X9668339Y-14968595D02*
X9677863Y-14959072D01*
X9677863Y-14959072D02*
X9696911Y-14949548D01*
X9696911Y-14949548D02*
X9725482Y-14949548D01*
X9725482Y-14949548D02*
X9744530Y-14959072D01*
X9744530Y-14959072D02*
X9754054Y-14978119D01*
X9754054Y-14978119D02*
X9754054Y-15082881D01*
X9754054Y-14978119D02*
X9763577Y-14959072D01*
X9763577Y-14959072D02*
X9782625Y-14949548D01*
X9782625Y-14949548D02*
X9811196Y-14949548D01*
X9811196Y-14949548D02*
X9830244Y-14959072D01*
X9830244Y-14959072D02*
X9839768Y-14978119D01*
X9839768Y-14978119D02*
X9839768Y-15082881D01*
X10230244Y-14873357D02*
X10058816Y-15130500D01*
X10487387Y-14882881D02*
X10506435Y-14882881D01*
X10506435Y-14882881D02*
X10525482Y-14892405D01*
X10525482Y-14892405D02*
X10535006Y-14901929D01*
X10535006Y-14901929D02*
X10544530Y-14920976D01*
X10544530Y-14920976D02*
X10554054Y-14959072D01*
X10554054Y-14959072D02*
X10554054Y-15006691D01*
X10554054Y-15006691D02*
X10544530Y-15044786D01*
X10544530Y-15044786D02*
X10535006Y-15063833D01*
X10535006Y-15063833D02*
X10525482Y-15073357D01*
X10525482Y-15073357D02*
X10506435Y-15082881D01*
X10506435Y-15082881D02*
X10487387Y-15082881D01*
X10487387Y-15082881D02*
X10468339Y-15073357D01*
X10468339Y-15073357D02*
X10458816Y-15063833D01*
X10458816Y-15063833D02*
X10449292Y-15044786D01*
X10449292Y-15044786D02*
X10439768Y-15006691D01*
X10439768Y-15006691D02*
X10439768Y-14959072D01*
X10439768Y-14959072D02*
X10449292Y-14920976D01*
X10449292Y-14920976D02*
X10458816Y-14901929D01*
X10458816Y-14901929D02*
X10468339Y-14892405D01*
X10468339Y-14892405D02*
X10487387Y-14882881D01*
X10639768Y-15063833D02*
X10649292Y-15073357D01*
X10649292Y-15073357D02*
X10639768Y-15082881D01*
X10639768Y-15082881D02*
X10630244Y-15073357D01*
X10630244Y-15073357D02*
X10639768Y-15063833D01*
X10639768Y-15063833D02*
X10639768Y-15082881D01*
X10773101Y-14882881D02*
X10792149Y-14882881D01*
X10792149Y-14882881D02*
X10811197Y-14892405D01*
X10811197Y-14892405D02*
X10820720Y-14901929D01*
X10820720Y-14901929D02*
X10830244Y-14920976D01*
X10830244Y-14920976D02*
X10839768Y-14959072D01*
X10839768Y-14959072D02*
X10839768Y-15006691D01*
X10839768Y-15006691D02*
X10830244Y-15044786D01*
X10830244Y-15044786D02*
X10820720Y-15063833D01*
X10820720Y-15063833D02*
X10811197Y-15073357D01*
X10811197Y-15073357D02*
X10792149Y-15082881D01*
X10792149Y-15082881D02*
X10773101Y-15082881D01*
X10773101Y-15082881D02*
X10754054Y-15073357D01*
X10754054Y-15073357D02*
X10744530Y-15063833D01*
X10744530Y-15063833D02*
X10735006Y-15044786D01*
X10735006Y-15044786D02*
X10725482Y-15006691D01*
X10725482Y-15006691D02*
X10725482Y-14959072D01*
X10725482Y-14959072D02*
X10735006Y-14920976D01*
X10735006Y-14920976D02*
X10744530Y-14901929D01*
X10744530Y-14901929D02*
X10754054Y-14892405D01*
X10754054Y-14892405D02*
X10773101Y-14882881D01*
X11030244Y-15082881D02*
X10915958Y-15082881D01*
X10973101Y-15082881D02*
X10973101Y-14882881D01*
X10973101Y-14882881D02*
X10954054Y-14911453D01*
X10954054Y-14911453D02*
X10935006Y-14930500D01*
X10935006Y-14930500D02*
X10915958Y-14940024D01*
X11220720Y-15082881D02*
X11106435Y-15082881D01*
X11163577Y-15082881D02*
X11163577Y-14882881D01*
X11163577Y-14882881D02*
X11144530Y-14911453D01*
X11144530Y-14911453D02*
X11125482Y-14930500D01*
X11125482Y-14930500D02*
X11106435Y-14940024D01*
X11335006Y-14968595D02*
X11315958Y-14959072D01*
X11315958Y-14959072D02*
X11306435Y-14949548D01*
X11306435Y-14949548D02*
X11296911Y-14930500D01*
X11296911Y-14930500D02*
X11296911Y-14920976D01*
X11296911Y-14920976D02*
X11306435Y-14901929D01*
X11306435Y-14901929D02*
X11315958Y-14892405D01*
X11315958Y-14892405D02*
X11335006Y-14882881D01*
X11335006Y-14882881D02*
X11373101Y-14882881D01*
X11373101Y-14882881D02*
X11392149Y-14892405D01*
X11392149Y-14892405D02*
X11401673Y-14901929D01*
X11401673Y-14901929D02*
X11411196Y-14920976D01*
X11411196Y-14920976D02*
X11411196Y-14930500D01*
X11411196Y-14930500D02*
X11401673Y-14949548D01*
X11401673Y-14949548D02*
X11392149Y-14959072D01*
X11392149Y-14959072D02*
X11373101Y-14968595D01*
X11373101Y-14968595D02*
X11335006Y-14968595D01*
X11335006Y-14968595D02*
X11315958Y-14978119D01*
X11315958Y-14978119D02*
X11306435Y-14987643D01*
X11306435Y-14987643D02*
X11296911Y-15006691D01*
X11296911Y-15006691D02*
X11296911Y-15044786D01*
X11296911Y-15044786D02*
X11306435Y-15063833D01*
X11306435Y-15063833D02*
X11315958Y-15073357D01*
X11315958Y-15073357D02*
X11335006Y-15082881D01*
X11335006Y-15082881D02*
X11373101Y-15082881D01*
X11373101Y-15082881D02*
X11392149Y-15073357D01*
X11392149Y-15073357D02*
X11401673Y-15063833D01*
X11401673Y-15063833D02*
X11411196Y-15044786D01*
X11411196Y-15044786D02*
X11411196Y-15006691D01*
X11411196Y-15006691D02*
X11401673Y-14987643D01*
X11401673Y-14987643D02*
X11392149Y-14978119D01*
X11392149Y-14978119D02*
X11373101Y-14968595D01*
X11487387Y-14882881D02*
X11487387Y-14920976D01*
X11563577Y-14882881D02*
X11563577Y-14920976D01*
X11858816Y-15159072D02*
X11849292Y-15149548D01*
X11849292Y-15149548D02*
X11830244Y-15120976D01*
X11830244Y-15120976D02*
X11820720Y-15101929D01*
X11820720Y-15101929D02*
X11811197Y-15073357D01*
X11811197Y-15073357D02*
X11801673Y-15025738D01*
X11801673Y-15025738D02*
X11801673Y-14987643D01*
X11801673Y-14987643D02*
X11811197Y-14940024D01*
X11811197Y-14940024D02*
X11820720Y-14911453D01*
X11820720Y-14911453D02*
X11830244Y-14892405D01*
X11830244Y-14892405D02*
X11849292Y-14863833D01*
X11849292Y-14863833D02*
X11858816Y-14854310D01*
X12039768Y-15082881D02*
X11925482Y-15082881D01*
X11982625Y-15082881D02*
X11982625Y-14882881D01*
X11982625Y-14882881D02*
X11963577Y-14911453D01*
X11963577Y-14911453D02*
X11944530Y-14930500D01*
X11944530Y-14930500D02*
X11925482Y-14940024D01*
X12211197Y-14949548D02*
X12211197Y-15082881D01*
X12163577Y-14873357D02*
X12115958Y-15016214D01*
X12115958Y-15016214D02*
X12239768Y-15016214D01*
X12325482Y-15082881D02*
X12363577Y-15082881D01*
X12363577Y-15082881D02*
X12382625Y-15073357D01*
X12382625Y-15073357D02*
X12392149Y-15063833D01*
X12392149Y-15063833D02*
X12411197Y-15035262D01*
X12411197Y-15035262D02*
X12420720Y-14997167D01*
X12420720Y-14997167D02*
X12420720Y-14920976D01*
X12420720Y-14920976D02*
X12411197Y-14901929D01*
X12411197Y-14901929D02*
X12401673Y-14892405D01*
X12401673Y-14892405D02*
X12382625Y-14882881D01*
X12382625Y-14882881D02*
X12344530Y-14882881D01*
X12344530Y-14882881D02*
X12325482Y-14892405D01*
X12325482Y-14892405D02*
X12315958Y-14901929D01*
X12315958Y-14901929D02*
X12306435Y-14920976D01*
X12306435Y-14920976D02*
X12306435Y-14968595D01*
X12306435Y-14968595D02*
X12315958Y-14987643D01*
X12315958Y-14987643D02*
X12325482Y-14997167D01*
X12325482Y-14997167D02*
X12344530Y-15006691D01*
X12344530Y-15006691D02*
X12382625Y-15006691D01*
X12382625Y-15006691D02*
X12401673Y-14997167D01*
X12401673Y-14997167D02*
X12411197Y-14987643D01*
X12411197Y-14987643D02*
X12420720Y-14968595D01*
X12658816Y-15082881D02*
X12658816Y-14882881D01*
X12744530Y-15082881D02*
X12744530Y-14978119D01*
X12744530Y-14978119D02*
X12735006Y-14959072D01*
X12735006Y-14959072D02*
X12715959Y-14949548D01*
X12715959Y-14949548D02*
X12687387Y-14949548D01*
X12687387Y-14949548D02*
X12668339Y-14959072D01*
X12668339Y-14959072D02*
X12658816Y-14968595D01*
X12868339Y-15082881D02*
X12849292Y-15073357D01*
X12849292Y-15073357D02*
X12839768Y-15063833D01*
X12839768Y-15063833D02*
X12830244Y-15044786D01*
X12830244Y-15044786D02*
X12830244Y-14987643D01*
X12830244Y-14987643D02*
X12839768Y-14968595D01*
X12839768Y-14968595D02*
X12849292Y-14959072D01*
X12849292Y-14959072D02*
X12868339Y-14949548D01*
X12868339Y-14949548D02*
X12896911Y-14949548D01*
X12896911Y-14949548D02*
X12915959Y-14959072D01*
X12915959Y-14959072D02*
X12925482Y-14968595D01*
X12925482Y-14968595D02*
X12935006Y-14987643D01*
X12935006Y-14987643D02*
X12935006Y-15044786D01*
X12935006Y-15044786D02*
X12925482Y-15063833D01*
X12925482Y-15063833D02*
X12915959Y-15073357D01*
X12915959Y-15073357D02*
X12896911Y-15082881D01*
X12896911Y-15082881D02*
X12868339Y-15082881D01*
X13049292Y-15082881D02*
X13030244Y-15073357D01*
X13030244Y-15073357D02*
X13020720Y-15054310D01*
X13020720Y-15054310D02*
X13020720Y-14882881D01*
X13201673Y-15073357D02*
X13182625Y-15082881D01*
X13182625Y-15082881D02*
X13144530Y-15082881D01*
X13144530Y-15082881D02*
X13125482Y-15073357D01*
X13125482Y-15073357D02*
X13115959Y-15054310D01*
X13115959Y-15054310D02*
X13115959Y-14978119D01*
X13115959Y-14978119D02*
X13125482Y-14959072D01*
X13125482Y-14959072D02*
X13144530Y-14949548D01*
X13144530Y-14949548D02*
X13182625Y-14949548D01*
X13182625Y-14949548D02*
X13201673Y-14959072D01*
X13201673Y-14959072D02*
X13211197Y-14978119D01*
X13211197Y-14978119D02*
X13211197Y-14997167D01*
X13211197Y-14997167D02*
X13115959Y-15016214D01*
X13287387Y-15073357D02*
X13306435Y-15082881D01*
X13306435Y-15082881D02*
X13344530Y-15082881D01*
X13344530Y-15082881D02*
X13363578Y-15073357D01*
X13363578Y-15073357D02*
X13373101Y-15054310D01*
X13373101Y-15054310D02*
X13373101Y-15044786D01*
X13373101Y-15044786D02*
X13363578Y-15025738D01*
X13363578Y-15025738D02*
X13344530Y-15016214D01*
X13344530Y-15016214D02*
X13315959Y-15016214D01*
X13315959Y-15016214D02*
X13296911Y-15006691D01*
X13296911Y-15006691D02*
X13287387Y-14987643D01*
X13287387Y-14987643D02*
X13287387Y-14978119D01*
X13287387Y-14978119D02*
X13296911Y-14959072D01*
X13296911Y-14959072D02*
X13315959Y-14949548D01*
X13315959Y-14949548D02*
X13344530Y-14949548D01*
X13344530Y-14949548D02*
X13363578Y-14959072D01*
X13439768Y-15159072D02*
X13449292Y-15149548D01*
X13449292Y-15149548D02*
X13468340Y-15120976D01*
X13468340Y-15120976D02*
X13477863Y-15101929D01*
X13477863Y-15101929D02*
X13487387Y-15073357D01*
X13487387Y-15073357D02*
X13496911Y-15025738D01*
X13496911Y-15025738D02*
X13496911Y-14987643D01*
X13496911Y-14987643D02*
X13487387Y-14940024D01*
X13487387Y-14940024D02*
X13477863Y-14911453D01*
X13477863Y-14911453D02*
X13468340Y-14892405D01*
X13468340Y-14892405D02*
X13449292Y-14863833D01*
X13449292Y-14863833D02*
X13439768Y-14854310D01*
D11*
X8283753Y-15255397D02*
G75*
G03*
X8243753Y-15255397I-20000J0D01*
G01*
X8243753Y-15255397D02*
G75*
G03*
X8283753Y-15255397I20000J0D01*
G01*
D10*
X8582625Y-15146881D02*
X8601673Y-15146881D01*
X8601673Y-15146881D02*
X8620720Y-15156405D01*
X8620720Y-15156405D02*
X8630244Y-15165929D01*
X8630244Y-15165929D02*
X8639768Y-15184976D01*
X8639768Y-15184976D02*
X8649292Y-15223072D01*
X8649292Y-15223072D02*
X8649292Y-15270691D01*
X8649292Y-15270691D02*
X8639768Y-15308786D01*
X8639768Y-15308786D02*
X8630244Y-15327833D01*
X8630244Y-15327833D02*
X8620720Y-15337357D01*
X8620720Y-15337357D02*
X8601673Y-15346881D01*
X8601673Y-15346881D02*
X8582625Y-15346881D01*
X8582625Y-15346881D02*
X8563577Y-15337357D01*
X8563577Y-15337357D02*
X8554053Y-15327833D01*
X8554053Y-15327833D02*
X8544530Y-15308786D01*
X8544530Y-15308786D02*
X8535006Y-15270691D01*
X8535006Y-15270691D02*
X8535006Y-15223072D01*
X8535006Y-15223072D02*
X8544530Y-15184976D01*
X8544530Y-15184976D02*
X8554053Y-15165929D01*
X8554053Y-15165929D02*
X8563577Y-15156405D01*
X8563577Y-15156405D02*
X8582625Y-15146881D01*
X8735006Y-15327833D02*
X8744530Y-15337357D01*
X8744530Y-15337357D02*
X8735006Y-15346881D01*
X8735006Y-15346881D02*
X8725482Y-15337357D01*
X8725482Y-15337357D02*
X8735006Y-15327833D01*
X8735006Y-15327833D02*
X8735006Y-15346881D01*
X8915958Y-15213548D02*
X8915958Y-15346881D01*
X8868339Y-15137357D02*
X8820720Y-15280214D01*
X8820720Y-15280214D02*
X8944530Y-15280214D01*
X9058815Y-15146881D02*
X9077863Y-15146881D01*
X9077863Y-15146881D02*
X9096911Y-15156405D01*
X9096911Y-15156405D02*
X9106434Y-15165929D01*
X9106434Y-15165929D02*
X9115958Y-15184976D01*
X9115958Y-15184976D02*
X9125482Y-15223072D01*
X9125482Y-15223072D02*
X9125482Y-15270691D01*
X9125482Y-15270691D02*
X9115958Y-15308786D01*
X9115958Y-15308786D02*
X9106434Y-15327833D01*
X9106434Y-15327833D02*
X9096911Y-15337357D01*
X9096911Y-15337357D02*
X9077863Y-15346881D01*
X9077863Y-15346881D02*
X9058815Y-15346881D01*
X9058815Y-15346881D02*
X9039768Y-15337357D01*
X9039768Y-15337357D02*
X9030244Y-15327833D01*
X9030244Y-15327833D02*
X9020720Y-15308786D01*
X9020720Y-15308786D02*
X9011196Y-15270691D01*
X9011196Y-15270691D02*
X9011196Y-15223072D01*
X9011196Y-15223072D02*
X9020720Y-15184976D01*
X9020720Y-15184976D02*
X9030244Y-15165929D01*
X9030244Y-15165929D02*
X9039768Y-15156405D01*
X9039768Y-15156405D02*
X9058815Y-15146881D01*
X9249292Y-15146881D02*
X9268339Y-15146881D01*
X9268339Y-15146881D02*
X9287387Y-15156405D01*
X9287387Y-15156405D02*
X9296911Y-15165929D01*
X9296911Y-15165929D02*
X9306434Y-15184976D01*
X9306434Y-15184976D02*
X9315958Y-15223072D01*
X9315958Y-15223072D02*
X9315958Y-15270691D01*
X9315958Y-15270691D02*
X9306434Y-15308786D01*
X9306434Y-15308786D02*
X9296911Y-15327833D01*
X9296911Y-15327833D02*
X9287387Y-15337357D01*
X9287387Y-15337357D02*
X9268339Y-15346881D01*
X9268339Y-15346881D02*
X9249292Y-15346881D01*
X9249292Y-15346881D02*
X9230244Y-15337357D01*
X9230244Y-15337357D02*
X9220720Y-15327833D01*
X9220720Y-15327833D02*
X9211196Y-15308786D01*
X9211196Y-15308786D02*
X9201673Y-15270691D01*
X9201673Y-15270691D02*
X9201673Y-15223072D01*
X9201673Y-15223072D02*
X9211196Y-15184976D01*
X9211196Y-15184976D02*
X9220720Y-15165929D01*
X9220720Y-15165929D02*
X9230244Y-15156405D01*
X9230244Y-15156405D02*
X9249292Y-15146881D01*
X9401673Y-15346881D02*
X9401673Y-15213548D01*
X9401673Y-15232595D02*
X9411196Y-15223072D01*
X9411196Y-15223072D02*
X9430244Y-15213548D01*
X9430244Y-15213548D02*
X9458815Y-15213548D01*
X9458815Y-15213548D02*
X9477863Y-15223072D01*
X9477863Y-15223072D02*
X9487387Y-15242119D01*
X9487387Y-15242119D02*
X9487387Y-15346881D01*
X9487387Y-15242119D02*
X9496911Y-15223072D01*
X9496911Y-15223072D02*
X9515958Y-15213548D01*
X9515958Y-15213548D02*
X9544530Y-15213548D01*
X9544530Y-15213548D02*
X9563577Y-15223072D01*
X9563577Y-15223072D02*
X9573101Y-15242119D01*
X9573101Y-15242119D02*
X9573101Y-15346881D01*
X9668339Y-15346881D02*
X9668339Y-15213548D01*
X9668339Y-15232595D02*
X9677863Y-15223072D01*
X9677863Y-15223072D02*
X9696911Y-15213548D01*
X9696911Y-15213548D02*
X9725482Y-15213548D01*
X9725482Y-15213548D02*
X9744530Y-15223072D01*
X9744530Y-15223072D02*
X9754054Y-15242119D01*
X9754054Y-15242119D02*
X9754054Y-15346881D01*
X9754054Y-15242119D02*
X9763577Y-15223072D01*
X9763577Y-15223072D02*
X9782625Y-15213548D01*
X9782625Y-15213548D02*
X9811196Y-15213548D01*
X9811196Y-15213548D02*
X9830244Y-15223072D01*
X9830244Y-15223072D02*
X9839768Y-15242119D01*
X9839768Y-15242119D02*
X9839768Y-15346881D01*
X10230244Y-15137357D02*
X10058816Y-15394500D01*
X10487387Y-15146881D02*
X10506435Y-15146881D01*
X10506435Y-15146881D02*
X10525482Y-15156405D01*
X10525482Y-15156405D02*
X10535006Y-15165929D01*
X10535006Y-15165929D02*
X10544530Y-15184976D01*
X10544530Y-15184976D02*
X10554054Y-15223072D01*
X10554054Y-15223072D02*
X10554054Y-15270691D01*
X10554054Y-15270691D02*
X10544530Y-15308786D01*
X10544530Y-15308786D02*
X10535006Y-15327833D01*
X10535006Y-15327833D02*
X10525482Y-15337357D01*
X10525482Y-15337357D02*
X10506435Y-15346881D01*
X10506435Y-15346881D02*
X10487387Y-15346881D01*
X10487387Y-15346881D02*
X10468339Y-15337357D01*
X10468339Y-15337357D02*
X10458816Y-15327833D01*
X10458816Y-15327833D02*
X10449292Y-15308786D01*
X10449292Y-15308786D02*
X10439768Y-15270691D01*
X10439768Y-15270691D02*
X10439768Y-15223072D01*
X10439768Y-15223072D02*
X10449292Y-15184976D01*
X10449292Y-15184976D02*
X10458816Y-15165929D01*
X10458816Y-15165929D02*
X10468339Y-15156405D01*
X10468339Y-15156405D02*
X10487387Y-15146881D01*
X10639768Y-15327833D02*
X10649292Y-15337357D01*
X10649292Y-15337357D02*
X10639768Y-15346881D01*
X10639768Y-15346881D02*
X10630244Y-15337357D01*
X10630244Y-15337357D02*
X10639768Y-15327833D01*
X10639768Y-15327833D02*
X10639768Y-15346881D01*
X10773101Y-15146881D02*
X10792149Y-15146881D01*
X10792149Y-15146881D02*
X10811197Y-15156405D01*
X10811197Y-15156405D02*
X10820720Y-15165929D01*
X10820720Y-15165929D02*
X10830244Y-15184976D01*
X10830244Y-15184976D02*
X10839768Y-15223072D01*
X10839768Y-15223072D02*
X10839768Y-15270691D01*
X10839768Y-15270691D02*
X10830244Y-15308786D01*
X10830244Y-15308786D02*
X10820720Y-15327833D01*
X10820720Y-15327833D02*
X10811197Y-15337357D01*
X10811197Y-15337357D02*
X10792149Y-15346881D01*
X10792149Y-15346881D02*
X10773101Y-15346881D01*
X10773101Y-15346881D02*
X10754054Y-15337357D01*
X10754054Y-15337357D02*
X10744530Y-15327833D01*
X10744530Y-15327833D02*
X10735006Y-15308786D01*
X10735006Y-15308786D02*
X10725482Y-15270691D01*
X10725482Y-15270691D02*
X10725482Y-15223072D01*
X10725482Y-15223072D02*
X10735006Y-15184976D01*
X10735006Y-15184976D02*
X10744530Y-15165929D01*
X10744530Y-15165929D02*
X10754054Y-15156405D01*
X10754054Y-15156405D02*
X10773101Y-15146881D01*
X11030244Y-15346881D02*
X10915958Y-15346881D01*
X10973101Y-15346881D02*
X10973101Y-15146881D01*
X10973101Y-15146881D02*
X10954054Y-15175453D01*
X10954054Y-15175453D02*
X10935006Y-15194500D01*
X10935006Y-15194500D02*
X10915958Y-15204024D01*
X11211196Y-15146881D02*
X11115958Y-15146881D01*
X11115958Y-15146881D02*
X11106435Y-15242119D01*
X11106435Y-15242119D02*
X11115958Y-15232595D01*
X11115958Y-15232595D02*
X11135006Y-15223072D01*
X11135006Y-15223072D02*
X11182625Y-15223072D01*
X11182625Y-15223072D02*
X11201673Y-15232595D01*
X11201673Y-15232595D02*
X11211196Y-15242119D01*
X11211196Y-15242119D02*
X11220720Y-15261167D01*
X11220720Y-15261167D02*
X11220720Y-15308786D01*
X11220720Y-15308786D02*
X11211196Y-15327833D01*
X11211196Y-15327833D02*
X11201673Y-15337357D01*
X11201673Y-15337357D02*
X11182625Y-15346881D01*
X11182625Y-15346881D02*
X11135006Y-15346881D01*
X11135006Y-15346881D02*
X11115958Y-15337357D01*
X11115958Y-15337357D02*
X11106435Y-15327833D01*
X11287387Y-15146881D02*
X11420720Y-15146881D01*
X11420720Y-15146881D02*
X11335006Y-15346881D01*
X11487387Y-15146881D02*
X11487387Y-15184976D01*
X11563577Y-15146881D02*
X11563577Y-15184976D01*
X11858816Y-15423072D02*
X11849292Y-15413548D01*
X11849292Y-15413548D02*
X11830244Y-15384976D01*
X11830244Y-15384976D02*
X11820720Y-15365929D01*
X11820720Y-15365929D02*
X11811197Y-15337357D01*
X11811197Y-15337357D02*
X11801673Y-15289738D01*
X11801673Y-15289738D02*
X11801673Y-15251643D01*
X11801673Y-15251643D02*
X11811197Y-15204024D01*
X11811197Y-15204024D02*
X11820720Y-15175453D01*
X11820720Y-15175453D02*
X11830244Y-15156405D01*
X11830244Y-15156405D02*
X11849292Y-15127833D01*
X11849292Y-15127833D02*
X11858816Y-15118310D01*
X12030244Y-15146881D02*
X11935006Y-15146881D01*
X11935006Y-15146881D02*
X11925482Y-15242119D01*
X11925482Y-15242119D02*
X11935006Y-15232595D01*
X11935006Y-15232595D02*
X11954054Y-15223072D01*
X11954054Y-15223072D02*
X12001673Y-15223072D01*
X12001673Y-15223072D02*
X12020720Y-15232595D01*
X12020720Y-15232595D02*
X12030244Y-15242119D01*
X12030244Y-15242119D02*
X12039768Y-15261167D01*
X12039768Y-15261167D02*
X12039768Y-15308786D01*
X12039768Y-15308786D02*
X12030244Y-15327833D01*
X12030244Y-15327833D02*
X12020720Y-15337357D01*
X12020720Y-15337357D02*
X12001673Y-15346881D01*
X12001673Y-15346881D02*
X11954054Y-15346881D01*
X11954054Y-15346881D02*
X11935006Y-15337357D01*
X11935006Y-15337357D02*
X11925482Y-15327833D01*
X12154054Y-15232595D02*
X12135006Y-15223072D01*
X12135006Y-15223072D02*
X12125482Y-15213548D01*
X12125482Y-15213548D02*
X12115958Y-15194500D01*
X12115958Y-15194500D02*
X12115958Y-15184976D01*
X12115958Y-15184976D02*
X12125482Y-15165929D01*
X12125482Y-15165929D02*
X12135006Y-15156405D01*
X12135006Y-15156405D02*
X12154054Y-15146881D01*
X12154054Y-15146881D02*
X12192149Y-15146881D01*
X12192149Y-15146881D02*
X12211197Y-15156405D01*
X12211197Y-15156405D02*
X12220720Y-15165929D01*
X12220720Y-15165929D02*
X12230244Y-15184976D01*
X12230244Y-15184976D02*
X12230244Y-15194500D01*
X12230244Y-15194500D02*
X12220720Y-15213548D01*
X12220720Y-15213548D02*
X12211197Y-15223072D01*
X12211197Y-15223072D02*
X12192149Y-15232595D01*
X12192149Y-15232595D02*
X12154054Y-15232595D01*
X12154054Y-15232595D02*
X12135006Y-15242119D01*
X12135006Y-15242119D02*
X12125482Y-15251643D01*
X12125482Y-15251643D02*
X12115958Y-15270691D01*
X12115958Y-15270691D02*
X12115958Y-15308786D01*
X12115958Y-15308786D02*
X12125482Y-15327833D01*
X12125482Y-15327833D02*
X12135006Y-15337357D01*
X12135006Y-15337357D02*
X12154054Y-15346881D01*
X12154054Y-15346881D02*
X12192149Y-15346881D01*
X12192149Y-15346881D02*
X12211197Y-15337357D01*
X12211197Y-15337357D02*
X12220720Y-15327833D01*
X12220720Y-15327833D02*
X12230244Y-15308786D01*
X12230244Y-15308786D02*
X12230244Y-15270691D01*
X12230244Y-15270691D02*
X12220720Y-15251643D01*
X12220720Y-15251643D02*
X12211197Y-15242119D01*
X12211197Y-15242119D02*
X12192149Y-15232595D01*
X12468339Y-15346881D02*
X12468339Y-15146881D01*
X12554054Y-15346881D02*
X12554054Y-15242119D01*
X12554054Y-15242119D02*
X12544530Y-15223072D01*
X12544530Y-15223072D02*
X12525482Y-15213548D01*
X12525482Y-15213548D02*
X12496911Y-15213548D01*
X12496911Y-15213548D02*
X12477863Y-15223072D01*
X12477863Y-15223072D02*
X12468339Y-15232595D01*
X12677863Y-15346881D02*
X12658816Y-15337357D01*
X12658816Y-15337357D02*
X12649292Y-15327833D01*
X12649292Y-15327833D02*
X12639768Y-15308786D01*
X12639768Y-15308786D02*
X12639768Y-15251643D01*
X12639768Y-15251643D02*
X12649292Y-15232595D01*
X12649292Y-15232595D02*
X12658816Y-15223072D01*
X12658816Y-15223072D02*
X12677863Y-15213548D01*
X12677863Y-15213548D02*
X12706435Y-15213548D01*
X12706435Y-15213548D02*
X12725482Y-15223072D01*
X12725482Y-15223072D02*
X12735006Y-15232595D01*
X12735006Y-15232595D02*
X12744530Y-15251643D01*
X12744530Y-15251643D02*
X12744530Y-15308786D01*
X12744530Y-15308786D02*
X12735006Y-15327833D01*
X12735006Y-15327833D02*
X12725482Y-15337357D01*
X12725482Y-15337357D02*
X12706435Y-15346881D01*
X12706435Y-15346881D02*
X12677863Y-15346881D01*
X12858816Y-15346881D02*
X12839768Y-15337357D01*
X12839768Y-15337357D02*
X12830244Y-15318310D01*
X12830244Y-15318310D02*
X12830244Y-15146881D01*
X13011197Y-15337357D02*
X12992149Y-15346881D01*
X12992149Y-15346881D02*
X12954054Y-15346881D01*
X12954054Y-15346881D02*
X12935006Y-15337357D01*
X12935006Y-15337357D02*
X12925482Y-15318310D01*
X12925482Y-15318310D02*
X12925482Y-15242119D01*
X12925482Y-15242119D02*
X12935006Y-15223072D01*
X12935006Y-15223072D02*
X12954054Y-15213548D01*
X12954054Y-15213548D02*
X12992149Y-15213548D01*
X12992149Y-15213548D02*
X13011197Y-15223072D01*
X13011197Y-15223072D02*
X13020720Y-15242119D01*
X13020720Y-15242119D02*
X13020720Y-15261167D01*
X13020720Y-15261167D02*
X12925482Y-15280214D01*
X13096911Y-15337357D02*
X13115959Y-15346881D01*
X13115959Y-15346881D02*
X13154054Y-15346881D01*
X13154054Y-15346881D02*
X13173101Y-15337357D01*
X13173101Y-15337357D02*
X13182625Y-15318310D01*
X13182625Y-15318310D02*
X13182625Y-15308786D01*
X13182625Y-15308786D02*
X13173101Y-15289738D01*
X13173101Y-15289738D02*
X13154054Y-15280214D01*
X13154054Y-15280214D02*
X13125482Y-15280214D01*
X13125482Y-15280214D02*
X13106435Y-15270691D01*
X13106435Y-15270691D02*
X13096911Y-15251643D01*
X13096911Y-15251643D02*
X13096911Y-15242119D01*
X13096911Y-15242119D02*
X13106435Y-15223072D01*
X13106435Y-15223072D02*
X13125482Y-15213548D01*
X13125482Y-15213548D02*
X13154054Y-15213548D01*
X13154054Y-15213548D02*
X13173101Y-15223072D01*
X13249292Y-15423072D02*
X13258816Y-15413548D01*
X13258816Y-15413548D02*
X13277863Y-15384976D01*
X13277863Y-15384976D02*
X13287387Y-15365929D01*
X13287387Y-15365929D02*
X13296911Y-15337357D01*
X13296911Y-15337357D02*
X13306435Y-15289738D01*
X13306435Y-15289738D02*
X13306435Y-15251643D01*
X13306435Y-15251643D02*
X13296911Y-15204024D01*
X13296911Y-15204024D02*
X13287387Y-15175453D01*
X13287387Y-15175453D02*
X13277863Y-15156405D01*
X13277863Y-15156405D02*
X13258816Y-15127833D01*
X13258816Y-15127833D02*
X13249292Y-15118310D01*
D11*
X8258753Y-15494397D02*
X8258753Y-15544397D01*
X8233753Y-15519397D02*
X8283753Y-15519397D01*
D10*
X8582625Y-15410881D02*
X8601673Y-15410881D01*
X8601673Y-15410881D02*
X8620720Y-15420405D01*
X8620720Y-15420405D02*
X8630244Y-15429929D01*
X8630244Y-15429929D02*
X8639768Y-15448976D01*
X8639768Y-15448976D02*
X8649292Y-15487072D01*
X8649292Y-15487072D02*
X8649292Y-15534691D01*
X8649292Y-15534691D02*
X8639768Y-15572786D01*
X8639768Y-15572786D02*
X8630244Y-15591833D01*
X8630244Y-15591833D02*
X8620720Y-15601357D01*
X8620720Y-15601357D02*
X8601673Y-15610881D01*
X8601673Y-15610881D02*
X8582625Y-15610881D01*
X8582625Y-15610881D02*
X8563577Y-15601357D01*
X8563577Y-15601357D02*
X8554053Y-15591833D01*
X8554053Y-15591833D02*
X8544530Y-15572786D01*
X8544530Y-15572786D02*
X8535006Y-15534691D01*
X8535006Y-15534691D02*
X8535006Y-15487072D01*
X8535006Y-15487072D02*
X8544530Y-15448976D01*
X8544530Y-15448976D02*
X8554053Y-15429929D01*
X8554053Y-15429929D02*
X8563577Y-15420405D01*
X8563577Y-15420405D02*
X8582625Y-15410881D01*
X8735006Y-15591833D02*
X8744530Y-15601357D01*
X8744530Y-15601357D02*
X8735006Y-15610881D01*
X8735006Y-15610881D02*
X8725482Y-15601357D01*
X8725482Y-15601357D02*
X8735006Y-15591833D01*
X8735006Y-15591833D02*
X8735006Y-15610881D01*
X8925482Y-15410881D02*
X8830244Y-15410881D01*
X8830244Y-15410881D02*
X8820720Y-15506119D01*
X8820720Y-15506119D02*
X8830244Y-15496595D01*
X8830244Y-15496595D02*
X8849292Y-15487072D01*
X8849292Y-15487072D02*
X8896911Y-15487072D01*
X8896911Y-15487072D02*
X8915958Y-15496595D01*
X8915958Y-15496595D02*
X8925482Y-15506119D01*
X8925482Y-15506119D02*
X8935006Y-15525167D01*
X8935006Y-15525167D02*
X8935006Y-15572786D01*
X8935006Y-15572786D02*
X8925482Y-15591833D01*
X8925482Y-15591833D02*
X8915958Y-15601357D01*
X8915958Y-15601357D02*
X8896911Y-15610881D01*
X8896911Y-15610881D02*
X8849292Y-15610881D01*
X8849292Y-15610881D02*
X8830244Y-15601357D01*
X8830244Y-15601357D02*
X8820720Y-15591833D01*
X9058815Y-15410881D02*
X9077863Y-15410881D01*
X9077863Y-15410881D02*
X9096911Y-15420405D01*
X9096911Y-15420405D02*
X9106434Y-15429929D01*
X9106434Y-15429929D02*
X9115958Y-15448976D01*
X9115958Y-15448976D02*
X9125482Y-15487072D01*
X9125482Y-15487072D02*
X9125482Y-15534691D01*
X9125482Y-15534691D02*
X9115958Y-15572786D01*
X9115958Y-15572786D02*
X9106434Y-15591833D01*
X9106434Y-15591833D02*
X9096911Y-15601357D01*
X9096911Y-15601357D02*
X9077863Y-15610881D01*
X9077863Y-15610881D02*
X9058815Y-15610881D01*
X9058815Y-15610881D02*
X9039768Y-15601357D01*
X9039768Y-15601357D02*
X9030244Y-15591833D01*
X9030244Y-15591833D02*
X9020720Y-15572786D01*
X9020720Y-15572786D02*
X9011196Y-15534691D01*
X9011196Y-15534691D02*
X9011196Y-15487072D01*
X9011196Y-15487072D02*
X9020720Y-15448976D01*
X9020720Y-15448976D02*
X9030244Y-15429929D01*
X9030244Y-15429929D02*
X9039768Y-15420405D01*
X9039768Y-15420405D02*
X9058815Y-15410881D01*
X9249292Y-15410881D02*
X9268339Y-15410881D01*
X9268339Y-15410881D02*
X9287387Y-15420405D01*
X9287387Y-15420405D02*
X9296911Y-15429929D01*
X9296911Y-15429929D02*
X9306434Y-15448976D01*
X9306434Y-15448976D02*
X9315958Y-15487072D01*
X9315958Y-15487072D02*
X9315958Y-15534691D01*
X9315958Y-15534691D02*
X9306434Y-15572786D01*
X9306434Y-15572786D02*
X9296911Y-15591833D01*
X9296911Y-15591833D02*
X9287387Y-15601357D01*
X9287387Y-15601357D02*
X9268339Y-15610881D01*
X9268339Y-15610881D02*
X9249292Y-15610881D01*
X9249292Y-15610881D02*
X9230244Y-15601357D01*
X9230244Y-15601357D02*
X9220720Y-15591833D01*
X9220720Y-15591833D02*
X9211196Y-15572786D01*
X9211196Y-15572786D02*
X9201673Y-15534691D01*
X9201673Y-15534691D02*
X9201673Y-15487072D01*
X9201673Y-15487072D02*
X9211196Y-15448976D01*
X9211196Y-15448976D02*
X9220720Y-15429929D01*
X9220720Y-15429929D02*
X9230244Y-15420405D01*
X9230244Y-15420405D02*
X9249292Y-15410881D01*
X9401673Y-15610881D02*
X9401673Y-15477548D01*
X9401673Y-15496595D02*
X9411196Y-15487072D01*
X9411196Y-15487072D02*
X9430244Y-15477548D01*
X9430244Y-15477548D02*
X9458815Y-15477548D01*
X9458815Y-15477548D02*
X9477863Y-15487072D01*
X9477863Y-15487072D02*
X9487387Y-15506119D01*
X9487387Y-15506119D02*
X9487387Y-15610881D01*
X9487387Y-15506119D02*
X9496911Y-15487072D01*
X9496911Y-15487072D02*
X9515958Y-15477548D01*
X9515958Y-15477548D02*
X9544530Y-15477548D01*
X9544530Y-15477548D02*
X9563577Y-15487072D01*
X9563577Y-15487072D02*
X9573101Y-15506119D01*
X9573101Y-15506119D02*
X9573101Y-15610881D01*
X9668339Y-15610881D02*
X9668339Y-15477548D01*
X9668339Y-15496595D02*
X9677863Y-15487072D01*
X9677863Y-15487072D02*
X9696911Y-15477548D01*
X9696911Y-15477548D02*
X9725482Y-15477548D01*
X9725482Y-15477548D02*
X9744530Y-15487072D01*
X9744530Y-15487072D02*
X9754054Y-15506119D01*
X9754054Y-15506119D02*
X9754054Y-15610881D01*
X9754054Y-15506119D02*
X9763577Y-15487072D01*
X9763577Y-15487072D02*
X9782625Y-15477548D01*
X9782625Y-15477548D02*
X9811196Y-15477548D01*
X9811196Y-15477548D02*
X9830244Y-15487072D01*
X9830244Y-15487072D02*
X9839768Y-15506119D01*
X9839768Y-15506119D02*
X9839768Y-15610881D01*
X10230244Y-15401357D02*
X10058816Y-15658500D01*
X10487387Y-15410881D02*
X10506435Y-15410881D01*
X10506435Y-15410881D02*
X10525482Y-15420405D01*
X10525482Y-15420405D02*
X10535006Y-15429929D01*
X10535006Y-15429929D02*
X10544530Y-15448976D01*
X10544530Y-15448976D02*
X10554054Y-15487072D01*
X10554054Y-15487072D02*
X10554054Y-15534691D01*
X10554054Y-15534691D02*
X10544530Y-15572786D01*
X10544530Y-15572786D02*
X10535006Y-15591833D01*
X10535006Y-15591833D02*
X10525482Y-15601357D01*
X10525482Y-15601357D02*
X10506435Y-15610881D01*
X10506435Y-15610881D02*
X10487387Y-15610881D01*
X10487387Y-15610881D02*
X10468339Y-15601357D01*
X10468339Y-15601357D02*
X10458816Y-15591833D01*
X10458816Y-15591833D02*
X10449292Y-15572786D01*
X10449292Y-15572786D02*
X10439768Y-15534691D01*
X10439768Y-15534691D02*
X10439768Y-15487072D01*
X10439768Y-15487072D02*
X10449292Y-15448976D01*
X10449292Y-15448976D02*
X10458816Y-15429929D01*
X10458816Y-15429929D02*
X10468339Y-15420405D01*
X10468339Y-15420405D02*
X10487387Y-15410881D01*
X10639768Y-15591833D02*
X10649292Y-15601357D01*
X10649292Y-15601357D02*
X10639768Y-15610881D01*
X10639768Y-15610881D02*
X10630244Y-15601357D01*
X10630244Y-15601357D02*
X10639768Y-15591833D01*
X10639768Y-15591833D02*
X10639768Y-15610881D01*
X10773101Y-15410881D02*
X10792149Y-15410881D01*
X10792149Y-15410881D02*
X10811197Y-15420405D01*
X10811197Y-15420405D02*
X10820720Y-15429929D01*
X10820720Y-15429929D02*
X10830244Y-15448976D01*
X10830244Y-15448976D02*
X10839768Y-15487072D01*
X10839768Y-15487072D02*
X10839768Y-15534691D01*
X10839768Y-15534691D02*
X10830244Y-15572786D01*
X10830244Y-15572786D02*
X10820720Y-15591833D01*
X10820720Y-15591833D02*
X10811197Y-15601357D01*
X10811197Y-15601357D02*
X10792149Y-15610881D01*
X10792149Y-15610881D02*
X10773101Y-15610881D01*
X10773101Y-15610881D02*
X10754054Y-15601357D01*
X10754054Y-15601357D02*
X10744530Y-15591833D01*
X10744530Y-15591833D02*
X10735006Y-15572786D01*
X10735006Y-15572786D02*
X10725482Y-15534691D01*
X10725482Y-15534691D02*
X10725482Y-15487072D01*
X10725482Y-15487072D02*
X10735006Y-15448976D01*
X10735006Y-15448976D02*
X10744530Y-15429929D01*
X10744530Y-15429929D02*
X10754054Y-15420405D01*
X10754054Y-15420405D02*
X10773101Y-15410881D01*
X11030244Y-15610881D02*
X10915958Y-15610881D01*
X10973101Y-15610881D02*
X10973101Y-15410881D01*
X10973101Y-15410881D02*
X10954054Y-15439453D01*
X10954054Y-15439453D02*
X10935006Y-15458500D01*
X10935006Y-15458500D02*
X10915958Y-15468024D01*
X11125482Y-15610881D02*
X11163577Y-15610881D01*
X11163577Y-15610881D02*
X11182625Y-15601357D01*
X11182625Y-15601357D02*
X11192149Y-15591833D01*
X11192149Y-15591833D02*
X11211196Y-15563262D01*
X11211196Y-15563262D02*
X11220720Y-15525167D01*
X11220720Y-15525167D02*
X11220720Y-15448976D01*
X11220720Y-15448976D02*
X11211196Y-15429929D01*
X11211196Y-15429929D02*
X11201673Y-15420405D01*
X11201673Y-15420405D02*
X11182625Y-15410881D01*
X11182625Y-15410881D02*
X11144530Y-15410881D01*
X11144530Y-15410881D02*
X11125482Y-15420405D01*
X11125482Y-15420405D02*
X11115958Y-15429929D01*
X11115958Y-15429929D02*
X11106435Y-15448976D01*
X11106435Y-15448976D02*
X11106435Y-15496595D01*
X11106435Y-15496595D02*
X11115958Y-15515643D01*
X11115958Y-15515643D02*
X11125482Y-15525167D01*
X11125482Y-15525167D02*
X11144530Y-15534691D01*
X11144530Y-15534691D02*
X11182625Y-15534691D01*
X11182625Y-15534691D02*
X11201673Y-15525167D01*
X11201673Y-15525167D02*
X11211196Y-15515643D01*
X11211196Y-15515643D02*
X11220720Y-15496595D01*
X11287387Y-15410881D02*
X11420720Y-15410881D01*
X11420720Y-15410881D02*
X11335006Y-15610881D01*
X11487387Y-15410881D02*
X11487387Y-15448976D01*
X11563577Y-15410881D02*
X11563577Y-15448976D01*
X11858816Y-15687072D02*
X11849292Y-15677548D01*
X11849292Y-15677548D02*
X11830244Y-15648976D01*
X11830244Y-15648976D02*
X11820720Y-15629929D01*
X11820720Y-15629929D02*
X11811197Y-15601357D01*
X11811197Y-15601357D02*
X11801673Y-15553738D01*
X11801673Y-15553738D02*
X11801673Y-15515643D01*
X11801673Y-15515643D02*
X11811197Y-15468024D01*
X11811197Y-15468024D02*
X11820720Y-15439453D01*
X11820720Y-15439453D02*
X11830244Y-15420405D01*
X11830244Y-15420405D02*
X11849292Y-15391833D01*
X11849292Y-15391833D02*
X11858816Y-15382310D01*
X11973101Y-15410881D02*
X11992149Y-15410881D01*
X11992149Y-15410881D02*
X12011197Y-15420405D01*
X12011197Y-15420405D02*
X12020720Y-15429929D01*
X12020720Y-15429929D02*
X12030244Y-15448976D01*
X12030244Y-15448976D02*
X12039768Y-15487072D01*
X12039768Y-15487072D02*
X12039768Y-15534691D01*
X12039768Y-15534691D02*
X12030244Y-15572786D01*
X12030244Y-15572786D02*
X12020720Y-15591833D01*
X12020720Y-15591833D02*
X12011197Y-15601357D01*
X12011197Y-15601357D02*
X11992149Y-15610881D01*
X11992149Y-15610881D02*
X11973101Y-15610881D01*
X11973101Y-15610881D02*
X11954054Y-15601357D01*
X11954054Y-15601357D02*
X11944530Y-15591833D01*
X11944530Y-15591833D02*
X11935006Y-15572786D01*
X11935006Y-15572786D02*
X11925482Y-15534691D01*
X11925482Y-15534691D02*
X11925482Y-15487072D01*
X11925482Y-15487072D02*
X11935006Y-15448976D01*
X11935006Y-15448976D02*
X11944530Y-15429929D01*
X11944530Y-15429929D02*
X11954054Y-15420405D01*
X11954054Y-15420405D02*
X11973101Y-15410881D01*
X12277863Y-15610881D02*
X12277863Y-15410881D01*
X12363578Y-15610881D02*
X12363578Y-15506119D01*
X12363578Y-15506119D02*
X12354054Y-15487072D01*
X12354054Y-15487072D02*
X12335006Y-15477548D01*
X12335006Y-15477548D02*
X12306435Y-15477548D01*
X12306435Y-15477548D02*
X12287387Y-15487072D01*
X12287387Y-15487072D02*
X12277863Y-15496595D01*
X12487387Y-15610881D02*
X12468339Y-15601357D01*
X12468339Y-15601357D02*
X12458816Y-15591833D01*
X12458816Y-15591833D02*
X12449292Y-15572786D01*
X12449292Y-15572786D02*
X12449292Y-15515643D01*
X12449292Y-15515643D02*
X12458816Y-15496595D01*
X12458816Y-15496595D02*
X12468339Y-15487072D01*
X12468339Y-15487072D02*
X12487387Y-15477548D01*
X12487387Y-15477548D02*
X12515959Y-15477548D01*
X12515959Y-15477548D02*
X12535006Y-15487072D01*
X12535006Y-15487072D02*
X12544530Y-15496595D01*
X12544530Y-15496595D02*
X12554054Y-15515643D01*
X12554054Y-15515643D02*
X12554054Y-15572786D01*
X12554054Y-15572786D02*
X12544530Y-15591833D01*
X12544530Y-15591833D02*
X12535006Y-15601357D01*
X12535006Y-15601357D02*
X12515959Y-15610881D01*
X12515959Y-15610881D02*
X12487387Y-15610881D01*
X12668339Y-15610881D02*
X12649292Y-15601357D01*
X12649292Y-15601357D02*
X12639768Y-15582310D01*
X12639768Y-15582310D02*
X12639768Y-15410881D01*
X12820720Y-15601357D02*
X12801673Y-15610881D01*
X12801673Y-15610881D02*
X12763578Y-15610881D01*
X12763578Y-15610881D02*
X12744530Y-15601357D01*
X12744530Y-15601357D02*
X12735006Y-15582310D01*
X12735006Y-15582310D02*
X12735006Y-15506119D01*
X12735006Y-15506119D02*
X12744530Y-15487072D01*
X12744530Y-15487072D02*
X12763578Y-15477548D01*
X12763578Y-15477548D02*
X12801673Y-15477548D01*
X12801673Y-15477548D02*
X12820720Y-15487072D01*
X12820720Y-15487072D02*
X12830244Y-15506119D01*
X12830244Y-15506119D02*
X12830244Y-15525167D01*
X12830244Y-15525167D02*
X12735006Y-15544214D01*
X12906435Y-15601357D02*
X12925482Y-15610881D01*
X12925482Y-15610881D02*
X12963578Y-15610881D01*
X12963578Y-15610881D02*
X12982625Y-15601357D01*
X12982625Y-15601357D02*
X12992149Y-15582310D01*
X12992149Y-15582310D02*
X12992149Y-15572786D01*
X12992149Y-15572786D02*
X12982625Y-15553738D01*
X12982625Y-15553738D02*
X12963578Y-15544214D01*
X12963578Y-15544214D02*
X12935006Y-15544214D01*
X12935006Y-15544214D02*
X12915959Y-15534691D01*
X12915959Y-15534691D02*
X12906435Y-15515643D01*
X12906435Y-15515643D02*
X12906435Y-15506119D01*
X12906435Y-15506119D02*
X12915959Y-15487072D01*
X12915959Y-15487072D02*
X12935006Y-15477548D01*
X12935006Y-15477548D02*
X12963578Y-15477548D01*
X12963578Y-15477548D02*
X12982625Y-15487072D01*
X13230244Y-15534691D02*
X13382625Y-15534691D01*
X13306435Y-15610881D02*
X13306435Y-15458500D01*
X13658816Y-15496595D02*
X13639768Y-15487072D01*
X13639768Y-15487072D02*
X13630244Y-15477548D01*
X13630244Y-15477548D02*
X13620721Y-15458500D01*
X13620721Y-15458500D02*
X13620721Y-15448976D01*
X13620721Y-15448976D02*
X13630244Y-15429929D01*
X13630244Y-15429929D02*
X13639768Y-15420405D01*
X13639768Y-15420405D02*
X13658816Y-15410881D01*
X13658816Y-15410881D02*
X13696911Y-15410881D01*
X13696911Y-15410881D02*
X13715959Y-15420405D01*
X13715959Y-15420405D02*
X13725482Y-15429929D01*
X13725482Y-15429929D02*
X13735006Y-15448976D01*
X13735006Y-15448976D02*
X13735006Y-15458500D01*
X13735006Y-15458500D02*
X13725482Y-15477548D01*
X13725482Y-15477548D02*
X13715959Y-15487072D01*
X13715959Y-15487072D02*
X13696911Y-15496595D01*
X13696911Y-15496595D02*
X13658816Y-15496595D01*
X13658816Y-15496595D02*
X13639768Y-15506119D01*
X13639768Y-15506119D02*
X13630244Y-15515643D01*
X13630244Y-15515643D02*
X13620721Y-15534691D01*
X13620721Y-15534691D02*
X13620721Y-15572786D01*
X13620721Y-15572786D02*
X13630244Y-15591833D01*
X13630244Y-15591833D02*
X13639768Y-15601357D01*
X13639768Y-15601357D02*
X13658816Y-15610881D01*
X13658816Y-15610881D02*
X13696911Y-15610881D01*
X13696911Y-15610881D02*
X13715959Y-15601357D01*
X13715959Y-15601357D02*
X13725482Y-15591833D01*
X13725482Y-15591833D02*
X13735006Y-15572786D01*
X13735006Y-15572786D02*
X13735006Y-15534691D01*
X13735006Y-15534691D02*
X13725482Y-15515643D01*
X13725482Y-15515643D02*
X13715959Y-15506119D01*
X13715959Y-15506119D02*
X13696911Y-15496595D01*
X13963578Y-15601357D02*
X13982625Y-15610881D01*
X13982625Y-15610881D02*
X14020721Y-15610881D01*
X14020721Y-15610881D02*
X14039768Y-15601357D01*
X14039768Y-15601357D02*
X14049292Y-15582310D01*
X14049292Y-15582310D02*
X14049292Y-15572786D01*
X14049292Y-15572786D02*
X14039768Y-15553738D01*
X14039768Y-15553738D02*
X14020721Y-15544214D01*
X14020721Y-15544214D02*
X13992149Y-15544214D01*
X13992149Y-15544214D02*
X13973102Y-15534691D01*
X13973102Y-15534691D02*
X13963578Y-15515643D01*
X13963578Y-15515643D02*
X13963578Y-15506119D01*
X13963578Y-15506119D02*
X13973102Y-15487072D01*
X13973102Y-15487072D02*
X13992149Y-15477548D01*
X13992149Y-15477548D02*
X14020721Y-15477548D01*
X14020721Y-15477548D02*
X14039768Y-15487072D01*
X14163578Y-15610881D02*
X14144530Y-15601357D01*
X14144530Y-15601357D02*
X14135006Y-15582310D01*
X14135006Y-15582310D02*
X14135006Y-15410881D01*
X14268340Y-15610881D02*
X14249292Y-15601357D01*
X14249292Y-15601357D02*
X14239768Y-15591833D01*
X14239768Y-15591833D02*
X14230244Y-15572786D01*
X14230244Y-15572786D02*
X14230244Y-15515643D01*
X14230244Y-15515643D02*
X14239768Y-15496595D01*
X14239768Y-15496595D02*
X14249292Y-15487072D01*
X14249292Y-15487072D02*
X14268340Y-15477548D01*
X14268340Y-15477548D02*
X14296911Y-15477548D01*
X14296911Y-15477548D02*
X14315959Y-15487072D01*
X14315959Y-15487072D02*
X14325483Y-15496595D01*
X14325483Y-15496595D02*
X14335006Y-15515643D01*
X14335006Y-15515643D02*
X14335006Y-15572786D01*
X14335006Y-15572786D02*
X14325483Y-15591833D01*
X14325483Y-15591833D02*
X14315959Y-15601357D01*
X14315959Y-15601357D02*
X14296911Y-15610881D01*
X14296911Y-15610881D02*
X14268340Y-15610881D01*
X14392149Y-15477548D02*
X14468340Y-15477548D01*
X14420721Y-15410881D02*
X14420721Y-15582310D01*
X14420721Y-15582310D02*
X14430244Y-15601357D01*
X14430244Y-15601357D02*
X14449292Y-15610881D01*
X14449292Y-15610881D02*
X14468340Y-15610881D01*
X14525483Y-15601357D02*
X14544530Y-15610881D01*
X14544530Y-15610881D02*
X14582625Y-15610881D01*
X14582625Y-15610881D02*
X14601673Y-15601357D01*
X14601673Y-15601357D02*
X14611197Y-15582310D01*
X14611197Y-15582310D02*
X14611197Y-15572786D01*
X14611197Y-15572786D02*
X14601673Y-15553738D01*
X14601673Y-15553738D02*
X14582625Y-15544214D01*
X14582625Y-15544214D02*
X14554054Y-15544214D01*
X14554054Y-15544214D02*
X14535006Y-15534691D01*
X14535006Y-15534691D02*
X14525483Y-15515643D01*
X14525483Y-15515643D02*
X14525483Y-15506119D01*
X14525483Y-15506119D02*
X14535006Y-15487072D01*
X14535006Y-15487072D02*
X14554054Y-15477548D01*
X14554054Y-15477548D02*
X14582625Y-15477548D01*
X14582625Y-15477548D02*
X14601673Y-15487072D01*
X14677864Y-15687072D02*
X14687387Y-15677548D01*
X14687387Y-15677548D02*
X14706435Y-15648976D01*
X14706435Y-15648976D02*
X14715959Y-15629929D01*
X14715959Y-15629929D02*
X14725483Y-15601357D01*
X14725483Y-15601357D02*
X14735006Y-15553738D01*
X14735006Y-15553738D02*
X14735006Y-15515643D01*
X14735006Y-15515643D02*
X14725483Y-15468024D01*
X14725483Y-15468024D02*
X14715959Y-15439453D01*
X14715959Y-15439453D02*
X14706435Y-15420405D01*
X14706435Y-15420405D02*
X14687387Y-15391833D01*
X14687387Y-15391833D02*
X14677864Y-15382310D01*
D11*
X8271850Y-15812134D02*
X8271850Y-15754660D01*
X8214376Y-15754660D01*
X8214376Y-15812134D01*
X8271850Y-15812134D01*
D10*
X8582625Y-15674881D02*
X8601673Y-15674881D01*
X8601673Y-15674881D02*
X8620720Y-15684405D01*
X8620720Y-15684405D02*
X8630244Y-15693929D01*
X8630244Y-15693929D02*
X8639768Y-15712976D01*
X8639768Y-15712976D02*
X8649292Y-15751072D01*
X8649292Y-15751072D02*
X8649292Y-15798691D01*
X8649292Y-15798691D02*
X8639768Y-15836786D01*
X8639768Y-15836786D02*
X8630244Y-15855833D01*
X8630244Y-15855833D02*
X8620720Y-15865357D01*
X8620720Y-15865357D02*
X8601673Y-15874881D01*
X8601673Y-15874881D02*
X8582625Y-15874881D01*
X8582625Y-15874881D02*
X8563577Y-15865357D01*
X8563577Y-15865357D02*
X8554053Y-15855833D01*
X8554053Y-15855833D02*
X8544530Y-15836786D01*
X8544530Y-15836786D02*
X8535006Y-15798691D01*
X8535006Y-15798691D02*
X8535006Y-15751072D01*
X8535006Y-15751072D02*
X8544530Y-15712976D01*
X8544530Y-15712976D02*
X8554053Y-15693929D01*
X8554053Y-15693929D02*
X8563577Y-15684405D01*
X8563577Y-15684405D02*
X8582625Y-15674881D01*
X8735006Y-15855833D02*
X8744530Y-15865357D01*
X8744530Y-15865357D02*
X8735006Y-15874881D01*
X8735006Y-15874881D02*
X8725482Y-15865357D01*
X8725482Y-15865357D02*
X8735006Y-15855833D01*
X8735006Y-15855833D02*
X8735006Y-15874881D01*
X8858815Y-15760595D02*
X8839768Y-15751072D01*
X8839768Y-15751072D02*
X8830244Y-15741548D01*
X8830244Y-15741548D02*
X8820720Y-15722500D01*
X8820720Y-15722500D02*
X8820720Y-15712976D01*
X8820720Y-15712976D02*
X8830244Y-15693929D01*
X8830244Y-15693929D02*
X8839768Y-15684405D01*
X8839768Y-15684405D02*
X8858815Y-15674881D01*
X8858815Y-15674881D02*
X8896911Y-15674881D01*
X8896911Y-15674881D02*
X8915958Y-15684405D01*
X8915958Y-15684405D02*
X8925482Y-15693929D01*
X8925482Y-15693929D02*
X8935006Y-15712976D01*
X8935006Y-15712976D02*
X8935006Y-15722500D01*
X8935006Y-15722500D02*
X8925482Y-15741548D01*
X8925482Y-15741548D02*
X8915958Y-15751072D01*
X8915958Y-15751072D02*
X8896911Y-15760595D01*
X8896911Y-15760595D02*
X8858815Y-15760595D01*
X8858815Y-15760595D02*
X8839768Y-15770119D01*
X8839768Y-15770119D02*
X8830244Y-15779643D01*
X8830244Y-15779643D02*
X8820720Y-15798691D01*
X8820720Y-15798691D02*
X8820720Y-15836786D01*
X8820720Y-15836786D02*
X8830244Y-15855833D01*
X8830244Y-15855833D02*
X8839768Y-15865357D01*
X8839768Y-15865357D02*
X8858815Y-15874881D01*
X8858815Y-15874881D02*
X8896911Y-15874881D01*
X8896911Y-15874881D02*
X8915958Y-15865357D01*
X8915958Y-15865357D02*
X8925482Y-15855833D01*
X8925482Y-15855833D02*
X8935006Y-15836786D01*
X8935006Y-15836786D02*
X8935006Y-15798691D01*
X8935006Y-15798691D02*
X8925482Y-15779643D01*
X8925482Y-15779643D02*
X8915958Y-15770119D01*
X8915958Y-15770119D02*
X8896911Y-15760595D01*
X9125482Y-15874881D02*
X9011196Y-15874881D01*
X9068339Y-15874881D02*
X9068339Y-15674881D01*
X9068339Y-15674881D02*
X9049292Y-15703453D01*
X9049292Y-15703453D02*
X9030244Y-15722500D01*
X9030244Y-15722500D02*
X9011196Y-15732024D01*
X9192149Y-15674881D02*
X9315958Y-15674881D01*
X9315958Y-15674881D02*
X9249292Y-15751072D01*
X9249292Y-15751072D02*
X9277863Y-15751072D01*
X9277863Y-15751072D02*
X9296911Y-15760595D01*
X9296911Y-15760595D02*
X9306434Y-15770119D01*
X9306434Y-15770119D02*
X9315958Y-15789167D01*
X9315958Y-15789167D02*
X9315958Y-15836786D01*
X9315958Y-15836786D02*
X9306434Y-15855833D01*
X9306434Y-15855833D02*
X9296911Y-15865357D01*
X9296911Y-15865357D02*
X9277863Y-15874881D01*
X9277863Y-15874881D02*
X9220720Y-15874881D01*
X9220720Y-15874881D02*
X9201673Y-15865357D01*
X9201673Y-15865357D02*
X9192149Y-15855833D01*
X9401673Y-15874881D02*
X9401673Y-15741548D01*
X9401673Y-15760595D02*
X9411196Y-15751072D01*
X9411196Y-15751072D02*
X9430244Y-15741548D01*
X9430244Y-15741548D02*
X9458815Y-15741548D01*
X9458815Y-15741548D02*
X9477863Y-15751072D01*
X9477863Y-15751072D02*
X9487387Y-15770119D01*
X9487387Y-15770119D02*
X9487387Y-15874881D01*
X9487387Y-15770119D02*
X9496911Y-15751072D01*
X9496911Y-15751072D02*
X9515958Y-15741548D01*
X9515958Y-15741548D02*
X9544530Y-15741548D01*
X9544530Y-15741548D02*
X9563577Y-15751072D01*
X9563577Y-15751072D02*
X9573101Y-15770119D01*
X9573101Y-15770119D02*
X9573101Y-15874881D01*
X9668339Y-15874881D02*
X9668339Y-15741548D01*
X9668339Y-15760595D02*
X9677863Y-15751072D01*
X9677863Y-15751072D02*
X9696911Y-15741548D01*
X9696911Y-15741548D02*
X9725482Y-15741548D01*
X9725482Y-15741548D02*
X9744530Y-15751072D01*
X9744530Y-15751072D02*
X9754054Y-15770119D01*
X9754054Y-15770119D02*
X9754054Y-15874881D01*
X9754054Y-15770119D02*
X9763577Y-15751072D01*
X9763577Y-15751072D02*
X9782625Y-15741548D01*
X9782625Y-15741548D02*
X9811196Y-15741548D01*
X9811196Y-15741548D02*
X9830244Y-15751072D01*
X9830244Y-15751072D02*
X9839768Y-15770119D01*
X9839768Y-15770119D02*
X9839768Y-15874881D01*
X10230244Y-15665357D02*
X10058816Y-15922500D01*
X10487387Y-15674881D02*
X10506435Y-15674881D01*
X10506435Y-15674881D02*
X10525482Y-15684405D01*
X10525482Y-15684405D02*
X10535006Y-15693929D01*
X10535006Y-15693929D02*
X10544530Y-15712976D01*
X10544530Y-15712976D02*
X10554054Y-15751072D01*
X10554054Y-15751072D02*
X10554054Y-15798691D01*
X10554054Y-15798691D02*
X10544530Y-15836786D01*
X10544530Y-15836786D02*
X10535006Y-15855833D01*
X10535006Y-15855833D02*
X10525482Y-15865357D01*
X10525482Y-15865357D02*
X10506435Y-15874881D01*
X10506435Y-15874881D02*
X10487387Y-15874881D01*
X10487387Y-15874881D02*
X10468339Y-15865357D01*
X10468339Y-15865357D02*
X10458816Y-15855833D01*
X10458816Y-15855833D02*
X10449292Y-15836786D01*
X10449292Y-15836786D02*
X10439768Y-15798691D01*
X10439768Y-15798691D02*
X10439768Y-15751072D01*
X10439768Y-15751072D02*
X10449292Y-15712976D01*
X10449292Y-15712976D02*
X10458816Y-15693929D01*
X10458816Y-15693929D02*
X10468339Y-15684405D01*
X10468339Y-15684405D02*
X10487387Y-15674881D01*
X10639768Y-15855833D02*
X10649292Y-15865357D01*
X10649292Y-15865357D02*
X10639768Y-15874881D01*
X10639768Y-15874881D02*
X10630244Y-15865357D01*
X10630244Y-15865357D02*
X10639768Y-15855833D01*
X10639768Y-15855833D02*
X10639768Y-15874881D01*
X10773101Y-15674881D02*
X10792149Y-15674881D01*
X10792149Y-15674881D02*
X10811197Y-15684405D01*
X10811197Y-15684405D02*
X10820720Y-15693929D01*
X10820720Y-15693929D02*
X10830244Y-15712976D01*
X10830244Y-15712976D02*
X10839768Y-15751072D01*
X10839768Y-15751072D02*
X10839768Y-15798691D01*
X10839768Y-15798691D02*
X10830244Y-15836786D01*
X10830244Y-15836786D02*
X10820720Y-15855833D01*
X10820720Y-15855833D02*
X10811197Y-15865357D01*
X10811197Y-15865357D02*
X10792149Y-15874881D01*
X10792149Y-15874881D02*
X10773101Y-15874881D01*
X10773101Y-15874881D02*
X10754054Y-15865357D01*
X10754054Y-15865357D02*
X10744530Y-15855833D01*
X10744530Y-15855833D02*
X10735006Y-15836786D01*
X10735006Y-15836786D02*
X10725482Y-15798691D01*
X10725482Y-15798691D02*
X10725482Y-15751072D01*
X10725482Y-15751072D02*
X10735006Y-15712976D01*
X10735006Y-15712976D02*
X10744530Y-15693929D01*
X10744530Y-15693929D02*
X10754054Y-15684405D01*
X10754054Y-15684405D02*
X10773101Y-15674881D01*
X10906435Y-15674881D02*
X11030244Y-15674881D01*
X11030244Y-15674881D02*
X10963577Y-15751072D01*
X10963577Y-15751072D02*
X10992149Y-15751072D01*
X10992149Y-15751072D02*
X11011197Y-15760595D01*
X11011197Y-15760595D02*
X11020720Y-15770119D01*
X11020720Y-15770119D02*
X11030244Y-15789167D01*
X11030244Y-15789167D02*
X11030244Y-15836786D01*
X11030244Y-15836786D02*
X11020720Y-15855833D01*
X11020720Y-15855833D02*
X11011197Y-15865357D01*
X11011197Y-15865357D02*
X10992149Y-15874881D01*
X10992149Y-15874881D02*
X10935006Y-15874881D01*
X10935006Y-15874881D02*
X10915958Y-15865357D01*
X10915958Y-15865357D02*
X10906435Y-15855833D01*
X11106435Y-15693929D02*
X11115958Y-15684405D01*
X11115958Y-15684405D02*
X11135006Y-15674881D01*
X11135006Y-15674881D02*
X11182625Y-15674881D01*
X11182625Y-15674881D02*
X11201673Y-15684405D01*
X11201673Y-15684405D02*
X11211196Y-15693929D01*
X11211196Y-15693929D02*
X11220720Y-15712976D01*
X11220720Y-15712976D02*
X11220720Y-15732024D01*
X11220720Y-15732024D02*
X11211196Y-15760595D01*
X11211196Y-15760595D02*
X11096911Y-15874881D01*
X11096911Y-15874881D02*
X11220720Y-15874881D01*
X11344530Y-15674881D02*
X11363577Y-15674881D01*
X11363577Y-15674881D02*
X11382625Y-15684405D01*
X11382625Y-15684405D02*
X11392149Y-15693929D01*
X11392149Y-15693929D02*
X11401673Y-15712976D01*
X11401673Y-15712976D02*
X11411196Y-15751072D01*
X11411196Y-15751072D02*
X11411196Y-15798691D01*
X11411196Y-15798691D02*
X11401673Y-15836786D01*
X11401673Y-15836786D02*
X11392149Y-15855833D01*
X11392149Y-15855833D02*
X11382625Y-15865357D01*
X11382625Y-15865357D02*
X11363577Y-15874881D01*
X11363577Y-15874881D02*
X11344530Y-15874881D01*
X11344530Y-15874881D02*
X11325482Y-15865357D01*
X11325482Y-15865357D02*
X11315958Y-15855833D01*
X11315958Y-15855833D02*
X11306435Y-15836786D01*
X11306435Y-15836786D02*
X11296911Y-15798691D01*
X11296911Y-15798691D02*
X11296911Y-15751072D01*
X11296911Y-15751072D02*
X11306435Y-15712976D01*
X11306435Y-15712976D02*
X11315958Y-15693929D01*
X11315958Y-15693929D02*
X11325482Y-15684405D01*
X11325482Y-15684405D02*
X11344530Y-15674881D01*
X11487387Y-15674881D02*
X11487387Y-15712976D01*
X11563577Y-15674881D02*
X11563577Y-15712976D01*
X11858816Y-15951072D02*
X11849292Y-15941548D01*
X11849292Y-15941548D02*
X11830244Y-15912976D01*
X11830244Y-15912976D02*
X11820720Y-15893929D01*
X11820720Y-15893929D02*
X11811197Y-15865357D01*
X11811197Y-15865357D02*
X11801673Y-15817738D01*
X11801673Y-15817738D02*
X11801673Y-15779643D01*
X11801673Y-15779643D02*
X11811197Y-15732024D01*
X11811197Y-15732024D02*
X11820720Y-15703453D01*
X11820720Y-15703453D02*
X11830244Y-15684405D01*
X11830244Y-15684405D02*
X11849292Y-15655833D01*
X11849292Y-15655833D02*
X11858816Y-15646310D01*
X12030244Y-15674881D02*
X11935006Y-15674881D01*
X11935006Y-15674881D02*
X11925482Y-15770119D01*
X11925482Y-15770119D02*
X11935006Y-15760595D01*
X11935006Y-15760595D02*
X11954054Y-15751072D01*
X11954054Y-15751072D02*
X12001673Y-15751072D01*
X12001673Y-15751072D02*
X12020720Y-15760595D01*
X12020720Y-15760595D02*
X12030244Y-15770119D01*
X12030244Y-15770119D02*
X12039768Y-15789167D01*
X12039768Y-15789167D02*
X12039768Y-15836786D01*
X12039768Y-15836786D02*
X12030244Y-15855833D01*
X12030244Y-15855833D02*
X12020720Y-15865357D01*
X12020720Y-15865357D02*
X12001673Y-15874881D01*
X12001673Y-15874881D02*
X11954054Y-15874881D01*
X11954054Y-15874881D02*
X11935006Y-15865357D01*
X11935006Y-15865357D02*
X11925482Y-15855833D01*
X12154054Y-15760595D02*
X12135006Y-15751072D01*
X12135006Y-15751072D02*
X12125482Y-15741548D01*
X12125482Y-15741548D02*
X12115958Y-15722500D01*
X12115958Y-15722500D02*
X12115958Y-15712976D01*
X12115958Y-15712976D02*
X12125482Y-15693929D01*
X12125482Y-15693929D02*
X12135006Y-15684405D01*
X12135006Y-15684405D02*
X12154054Y-15674881D01*
X12154054Y-15674881D02*
X12192149Y-15674881D01*
X12192149Y-15674881D02*
X12211197Y-15684405D01*
X12211197Y-15684405D02*
X12220720Y-15693929D01*
X12220720Y-15693929D02*
X12230244Y-15712976D01*
X12230244Y-15712976D02*
X12230244Y-15722500D01*
X12230244Y-15722500D02*
X12220720Y-15741548D01*
X12220720Y-15741548D02*
X12211197Y-15751072D01*
X12211197Y-15751072D02*
X12192149Y-15760595D01*
X12192149Y-15760595D02*
X12154054Y-15760595D01*
X12154054Y-15760595D02*
X12135006Y-15770119D01*
X12135006Y-15770119D02*
X12125482Y-15779643D01*
X12125482Y-15779643D02*
X12115958Y-15798691D01*
X12115958Y-15798691D02*
X12115958Y-15836786D01*
X12115958Y-15836786D02*
X12125482Y-15855833D01*
X12125482Y-15855833D02*
X12135006Y-15865357D01*
X12135006Y-15865357D02*
X12154054Y-15874881D01*
X12154054Y-15874881D02*
X12192149Y-15874881D01*
X12192149Y-15874881D02*
X12211197Y-15865357D01*
X12211197Y-15865357D02*
X12220720Y-15855833D01*
X12220720Y-15855833D02*
X12230244Y-15836786D01*
X12230244Y-15836786D02*
X12230244Y-15798691D01*
X12230244Y-15798691D02*
X12220720Y-15779643D01*
X12220720Y-15779643D02*
X12211197Y-15770119D01*
X12211197Y-15770119D02*
X12192149Y-15760595D01*
X12468339Y-15874881D02*
X12468339Y-15674881D01*
X12554054Y-15874881D02*
X12554054Y-15770119D01*
X12554054Y-15770119D02*
X12544530Y-15751072D01*
X12544530Y-15751072D02*
X12525482Y-15741548D01*
X12525482Y-15741548D02*
X12496911Y-15741548D01*
X12496911Y-15741548D02*
X12477863Y-15751072D01*
X12477863Y-15751072D02*
X12468339Y-15760595D01*
X12677863Y-15874881D02*
X12658816Y-15865357D01*
X12658816Y-15865357D02*
X12649292Y-15855833D01*
X12649292Y-15855833D02*
X12639768Y-15836786D01*
X12639768Y-15836786D02*
X12639768Y-15779643D01*
X12639768Y-15779643D02*
X12649292Y-15760595D01*
X12649292Y-15760595D02*
X12658816Y-15751072D01*
X12658816Y-15751072D02*
X12677863Y-15741548D01*
X12677863Y-15741548D02*
X12706435Y-15741548D01*
X12706435Y-15741548D02*
X12725482Y-15751072D01*
X12725482Y-15751072D02*
X12735006Y-15760595D01*
X12735006Y-15760595D02*
X12744530Y-15779643D01*
X12744530Y-15779643D02*
X12744530Y-15836786D01*
X12744530Y-15836786D02*
X12735006Y-15855833D01*
X12735006Y-15855833D02*
X12725482Y-15865357D01*
X12725482Y-15865357D02*
X12706435Y-15874881D01*
X12706435Y-15874881D02*
X12677863Y-15874881D01*
X12858816Y-15874881D02*
X12839768Y-15865357D01*
X12839768Y-15865357D02*
X12830244Y-15846310D01*
X12830244Y-15846310D02*
X12830244Y-15674881D01*
X13011197Y-15865357D02*
X12992149Y-15874881D01*
X12992149Y-15874881D02*
X12954054Y-15874881D01*
X12954054Y-15874881D02*
X12935006Y-15865357D01*
X12935006Y-15865357D02*
X12925482Y-15846310D01*
X12925482Y-15846310D02*
X12925482Y-15770119D01*
X12925482Y-15770119D02*
X12935006Y-15751072D01*
X12935006Y-15751072D02*
X12954054Y-15741548D01*
X12954054Y-15741548D02*
X12992149Y-15741548D01*
X12992149Y-15741548D02*
X13011197Y-15751072D01*
X13011197Y-15751072D02*
X13020720Y-15770119D01*
X13020720Y-15770119D02*
X13020720Y-15789167D01*
X13020720Y-15789167D02*
X12925482Y-15808214D01*
X13096911Y-15865357D02*
X13115959Y-15874881D01*
X13115959Y-15874881D02*
X13154054Y-15874881D01*
X13154054Y-15874881D02*
X13173101Y-15865357D01*
X13173101Y-15865357D02*
X13182625Y-15846310D01*
X13182625Y-15846310D02*
X13182625Y-15836786D01*
X13182625Y-15836786D02*
X13173101Y-15817738D01*
X13173101Y-15817738D02*
X13154054Y-15808214D01*
X13154054Y-15808214D02*
X13125482Y-15808214D01*
X13125482Y-15808214D02*
X13106435Y-15798691D01*
X13106435Y-15798691D02*
X13096911Y-15779643D01*
X13096911Y-15779643D02*
X13096911Y-15770119D01*
X13096911Y-15770119D02*
X13106435Y-15751072D01*
X13106435Y-15751072D02*
X13125482Y-15741548D01*
X13125482Y-15741548D02*
X13154054Y-15741548D01*
X13154054Y-15741548D02*
X13173101Y-15751072D01*
X13249292Y-15951072D02*
X13258816Y-15941548D01*
X13258816Y-15941548D02*
X13277863Y-15912976D01*
X13277863Y-15912976D02*
X13287387Y-15893929D01*
X13287387Y-15893929D02*
X13296911Y-15865357D01*
X13296911Y-15865357D02*
X13306435Y-15817738D01*
X13306435Y-15817738D02*
X13306435Y-15779643D01*
X13306435Y-15779643D02*
X13296911Y-15732024D01*
X13296911Y-15732024D02*
X13287387Y-15703453D01*
X13287387Y-15703453D02*
X13277863Y-15684405D01*
X13277863Y-15684405D02*
X13258816Y-15655833D01*
X13258816Y-15655833D02*
X13249292Y-15646310D01*
D11*
X8233753Y-16097397D02*
X8283753Y-16047397D01*
X8233753Y-15997397D01*
X8183753Y-16047397D01*
X8233753Y-16097397D01*
D10*
X8649292Y-16138881D02*
X8535006Y-16138881D01*
X8592149Y-16138881D02*
X8592149Y-15938881D01*
X8592149Y-15938881D02*
X8573101Y-15967453D01*
X8573101Y-15967453D02*
X8554053Y-15986500D01*
X8554053Y-15986500D02*
X8535006Y-15996024D01*
X8735006Y-16119833D02*
X8744530Y-16129357D01*
X8744530Y-16129357D02*
X8735006Y-16138881D01*
X8735006Y-16138881D02*
X8725482Y-16129357D01*
X8725482Y-16129357D02*
X8735006Y-16119833D01*
X8735006Y-16119833D02*
X8735006Y-16138881D01*
X8868339Y-15938881D02*
X8887387Y-15938881D01*
X8887387Y-15938881D02*
X8906434Y-15948405D01*
X8906434Y-15948405D02*
X8915958Y-15957929D01*
X8915958Y-15957929D02*
X8925482Y-15976976D01*
X8925482Y-15976976D02*
X8935006Y-16015072D01*
X8935006Y-16015072D02*
X8935006Y-16062691D01*
X8935006Y-16062691D02*
X8925482Y-16100786D01*
X8925482Y-16100786D02*
X8915958Y-16119833D01*
X8915958Y-16119833D02*
X8906434Y-16129357D01*
X8906434Y-16129357D02*
X8887387Y-16138881D01*
X8887387Y-16138881D02*
X8868339Y-16138881D01*
X8868339Y-16138881D02*
X8849292Y-16129357D01*
X8849292Y-16129357D02*
X8839768Y-16119833D01*
X8839768Y-16119833D02*
X8830244Y-16100786D01*
X8830244Y-16100786D02*
X8820720Y-16062691D01*
X8820720Y-16062691D02*
X8820720Y-16015072D01*
X8820720Y-16015072D02*
X8830244Y-15976976D01*
X8830244Y-15976976D02*
X8839768Y-15957929D01*
X8839768Y-15957929D02*
X8849292Y-15948405D01*
X8849292Y-15948405D02*
X8868339Y-15938881D01*
X9058815Y-15938881D02*
X9077863Y-15938881D01*
X9077863Y-15938881D02*
X9096911Y-15948405D01*
X9096911Y-15948405D02*
X9106434Y-15957929D01*
X9106434Y-15957929D02*
X9115958Y-15976976D01*
X9115958Y-15976976D02*
X9125482Y-16015072D01*
X9125482Y-16015072D02*
X9125482Y-16062691D01*
X9125482Y-16062691D02*
X9115958Y-16100786D01*
X9115958Y-16100786D02*
X9106434Y-16119833D01*
X9106434Y-16119833D02*
X9096911Y-16129357D01*
X9096911Y-16129357D02*
X9077863Y-16138881D01*
X9077863Y-16138881D02*
X9058815Y-16138881D01*
X9058815Y-16138881D02*
X9039768Y-16129357D01*
X9039768Y-16129357D02*
X9030244Y-16119833D01*
X9030244Y-16119833D02*
X9020720Y-16100786D01*
X9020720Y-16100786D02*
X9011196Y-16062691D01*
X9011196Y-16062691D02*
X9011196Y-16015072D01*
X9011196Y-16015072D02*
X9020720Y-15976976D01*
X9020720Y-15976976D02*
X9030244Y-15957929D01*
X9030244Y-15957929D02*
X9039768Y-15948405D01*
X9039768Y-15948405D02*
X9058815Y-15938881D01*
X9249292Y-15938881D02*
X9268339Y-15938881D01*
X9268339Y-15938881D02*
X9287387Y-15948405D01*
X9287387Y-15948405D02*
X9296911Y-15957929D01*
X9296911Y-15957929D02*
X9306434Y-15976976D01*
X9306434Y-15976976D02*
X9315958Y-16015072D01*
X9315958Y-16015072D02*
X9315958Y-16062691D01*
X9315958Y-16062691D02*
X9306434Y-16100786D01*
X9306434Y-16100786D02*
X9296911Y-16119833D01*
X9296911Y-16119833D02*
X9287387Y-16129357D01*
X9287387Y-16129357D02*
X9268339Y-16138881D01*
X9268339Y-16138881D02*
X9249292Y-16138881D01*
X9249292Y-16138881D02*
X9230244Y-16129357D01*
X9230244Y-16129357D02*
X9220720Y-16119833D01*
X9220720Y-16119833D02*
X9211196Y-16100786D01*
X9211196Y-16100786D02*
X9201673Y-16062691D01*
X9201673Y-16062691D02*
X9201673Y-16015072D01*
X9201673Y-16015072D02*
X9211196Y-15976976D01*
X9211196Y-15976976D02*
X9220720Y-15957929D01*
X9220720Y-15957929D02*
X9230244Y-15948405D01*
X9230244Y-15948405D02*
X9249292Y-15938881D01*
X9401673Y-16138881D02*
X9401673Y-16005548D01*
X9401673Y-16024595D02*
X9411196Y-16015072D01*
X9411196Y-16015072D02*
X9430244Y-16005548D01*
X9430244Y-16005548D02*
X9458815Y-16005548D01*
X9458815Y-16005548D02*
X9477863Y-16015072D01*
X9477863Y-16015072D02*
X9487387Y-16034119D01*
X9487387Y-16034119D02*
X9487387Y-16138881D01*
X9487387Y-16034119D02*
X9496911Y-16015072D01*
X9496911Y-16015072D02*
X9515958Y-16005548D01*
X9515958Y-16005548D02*
X9544530Y-16005548D01*
X9544530Y-16005548D02*
X9563577Y-16015072D01*
X9563577Y-16015072D02*
X9573101Y-16034119D01*
X9573101Y-16034119D02*
X9573101Y-16138881D01*
X9668339Y-16138881D02*
X9668339Y-16005548D01*
X9668339Y-16024595D02*
X9677863Y-16015072D01*
X9677863Y-16015072D02*
X9696911Y-16005548D01*
X9696911Y-16005548D02*
X9725482Y-16005548D01*
X9725482Y-16005548D02*
X9744530Y-16015072D01*
X9744530Y-16015072D02*
X9754054Y-16034119D01*
X9754054Y-16034119D02*
X9754054Y-16138881D01*
X9754054Y-16034119D02*
X9763577Y-16015072D01*
X9763577Y-16015072D02*
X9782625Y-16005548D01*
X9782625Y-16005548D02*
X9811196Y-16005548D01*
X9811196Y-16005548D02*
X9830244Y-16015072D01*
X9830244Y-16015072D02*
X9839768Y-16034119D01*
X9839768Y-16034119D02*
X9839768Y-16138881D01*
X10230244Y-15929357D02*
X10058816Y-16186500D01*
X10487387Y-15938881D02*
X10506435Y-15938881D01*
X10506435Y-15938881D02*
X10525482Y-15948405D01*
X10525482Y-15948405D02*
X10535006Y-15957929D01*
X10535006Y-15957929D02*
X10544530Y-15976976D01*
X10544530Y-15976976D02*
X10554054Y-16015072D01*
X10554054Y-16015072D02*
X10554054Y-16062691D01*
X10554054Y-16062691D02*
X10544530Y-16100786D01*
X10544530Y-16100786D02*
X10535006Y-16119833D01*
X10535006Y-16119833D02*
X10525482Y-16129357D01*
X10525482Y-16129357D02*
X10506435Y-16138881D01*
X10506435Y-16138881D02*
X10487387Y-16138881D01*
X10487387Y-16138881D02*
X10468339Y-16129357D01*
X10468339Y-16129357D02*
X10458816Y-16119833D01*
X10458816Y-16119833D02*
X10449292Y-16100786D01*
X10449292Y-16100786D02*
X10439768Y-16062691D01*
X10439768Y-16062691D02*
X10439768Y-16015072D01*
X10439768Y-16015072D02*
X10449292Y-15976976D01*
X10449292Y-15976976D02*
X10458816Y-15957929D01*
X10458816Y-15957929D02*
X10468339Y-15948405D01*
X10468339Y-15948405D02*
X10487387Y-15938881D01*
X10639768Y-16119833D02*
X10649292Y-16129357D01*
X10649292Y-16129357D02*
X10639768Y-16138881D01*
X10639768Y-16138881D02*
X10630244Y-16129357D01*
X10630244Y-16129357D02*
X10639768Y-16119833D01*
X10639768Y-16119833D02*
X10639768Y-16138881D01*
X10773101Y-15938881D02*
X10792149Y-15938881D01*
X10792149Y-15938881D02*
X10811197Y-15948405D01*
X10811197Y-15948405D02*
X10820720Y-15957929D01*
X10820720Y-15957929D02*
X10830244Y-15976976D01*
X10830244Y-15976976D02*
X10839768Y-16015072D01*
X10839768Y-16015072D02*
X10839768Y-16062691D01*
X10839768Y-16062691D02*
X10830244Y-16100786D01*
X10830244Y-16100786D02*
X10820720Y-16119833D01*
X10820720Y-16119833D02*
X10811197Y-16129357D01*
X10811197Y-16129357D02*
X10792149Y-16138881D01*
X10792149Y-16138881D02*
X10773101Y-16138881D01*
X10773101Y-16138881D02*
X10754054Y-16129357D01*
X10754054Y-16129357D02*
X10744530Y-16119833D01*
X10744530Y-16119833D02*
X10735006Y-16100786D01*
X10735006Y-16100786D02*
X10725482Y-16062691D01*
X10725482Y-16062691D02*
X10725482Y-16015072D01*
X10725482Y-16015072D02*
X10735006Y-15976976D01*
X10735006Y-15976976D02*
X10744530Y-15957929D01*
X10744530Y-15957929D02*
X10754054Y-15948405D01*
X10754054Y-15948405D02*
X10773101Y-15938881D01*
X10906435Y-15938881D02*
X11030244Y-15938881D01*
X11030244Y-15938881D02*
X10963577Y-16015072D01*
X10963577Y-16015072D02*
X10992149Y-16015072D01*
X10992149Y-16015072D02*
X11011197Y-16024595D01*
X11011197Y-16024595D02*
X11020720Y-16034119D01*
X11020720Y-16034119D02*
X11030244Y-16053167D01*
X11030244Y-16053167D02*
X11030244Y-16100786D01*
X11030244Y-16100786D02*
X11020720Y-16119833D01*
X11020720Y-16119833D02*
X11011197Y-16129357D01*
X11011197Y-16129357D02*
X10992149Y-16138881D01*
X10992149Y-16138881D02*
X10935006Y-16138881D01*
X10935006Y-16138881D02*
X10915958Y-16129357D01*
X10915958Y-16129357D02*
X10906435Y-16119833D01*
X11125482Y-16138881D02*
X11163577Y-16138881D01*
X11163577Y-16138881D02*
X11182625Y-16129357D01*
X11182625Y-16129357D02*
X11192149Y-16119833D01*
X11192149Y-16119833D02*
X11211196Y-16091262D01*
X11211196Y-16091262D02*
X11220720Y-16053167D01*
X11220720Y-16053167D02*
X11220720Y-15976976D01*
X11220720Y-15976976D02*
X11211196Y-15957929D01*
X11211196Y-15957929D02*
X11201673Y-15948405D01*
X11201673Y-15948405D02*
X11182625Y-15938881D01*
X11182625Y-15938881D02*
X11144530Y-15938881D01*
X11144530Y-15938881D02*
X11125482Y-15948405D01*
X11125482Y-15948405D02*
X11115958Y-15957929D01*
X11115958Y-15957929D02*
X11106435Y-15976976D01*
X11106435Y-15976976D02*
X11106435Y-16024595D01*
X11106435Y-16024595D02*
X11115958Y-16043643D01*
X11115958Y-16043643D02*
X11125482Y-16053167D01*
X11125482Y-16053167D02*
X11144530Y-16062691D01*
X11144530Y-16062691D02*
X11182625Y-16062691D01*
X11182625Y-16062691D02*
X11201673Y-16053167D01*
X11201673Y-16053167D02*
X11211196Y-16043643D01*
X11211196Y-16043643D02*
X11220720Y-16024595D01*
X11392149Y-16005548D02*
X11392149Y-16138881D01*
X11344530Y-15929357D02*
X11296911Y-16072214D01*
X11296911Y-16072214D02*
X11420720Y-16072214D01*
X11487387Y-15938881D02*
X11487387Y-15976976D01*
X11563577Y-15938881D02*
X11563577Y-15976976D01*
X11858816Y-16215072D02*
X11849292Y-16205548D01*
X11849292Y-16205548D02*
X11830244Y-16176976D01*
X11830244Y-16176976D02*
X11820720Y-16157929D01*
X11820720Y-16157929D02*
X11811197Y-16129357D01*
X11811197Y-16129357D02*
X11801673Y-16081738D01*
X11801673Y-16081738D02*
X11801673Y-16043643D01*
X11801673Y-16043643D02*
X11811197Y-15996024D01*
X11811197Y-15996024D02*
X11820720Y-15967453D01*
X11820720Y-15967453D02*
X11830244Y-15948405D01*
X11830244Y-15948405D02*
X11849292Y-15919833D01*
X11849292Y-15919833D02*
X11858816Y-15910310D01*
X11915958Y-15938881D02*
X12039768Y-15938881D01*
X12039768Y-15938881D02*
X11973101Y-16015072D01*
X11973101Y-16015072D02*
X12001673Y-16015072D01*
X12001673Y-16015072D02*
X12020720Y-16024595D01*
X12020720Y-16024595D02*
X12030244Y-16034119D01*
X12030244Y-16034119D02*
X12039768Y-16053167D01*
X12039768Y-16053167D02*
X12039768Y-16100786D01*
X12039768Y-16100786D02*
X12030244Y-16119833D01*
X12030244Y-16119833D02*
X12020720Y-16129357D01*
X12020720Y-16129357D02*
X12001673Y-16138881D01*
X12001673Y-16138881D02*
X11944530Y-16138881D01*
X11944530Y-16138881D02*
X11925482Y-16129357D01*
X11925482Y-16129357D02*
X11915958Y-16119833D01*
X12277863Y-16138881D02*
X12277863Y-15938881D01*
X12363578Y-16138881D02*
X12363578Y-16034119D01*
X12363578Y-16034119D02*
X12354054Y-16015072D01*
X12354054Y-16015072D02*
X12335006Y-16005548D01*
X12335006Y-16005548D02*
X12306435Y-16005548D01*
X12306435Y-16005548D02*
X12287387Y-16015072D01*
X12287387Y-16015072D02*
X12277863Y-16024595D01*
X12487387Y-16138881D02*
X12468339Y-16129357D01*
X12468339Y-16129357D02*
X12458816Y-16119833D01*
X12458816Y-16119833D02*
X12449292Y-16100786D01*
X12449292Y-16100786D02*
X12449292Y-16043643D01*
X12449292Y-16043643D02*
X12458816Y-16024595D01*
X12458816Y-16024595D02*
X12468339Y-16015072D01*
X12468339Y-16015072D02*
X12487387Y-16005548D01*
X12487387Y-16005548D02*
X12515959Y-16005548D01*
X12515959Y-16005548D02*
X12535006Y-16015072D01*
X12535006Y-16015072D02*
X12544530Y-16024595D01*
X12544530Y-16024595D02*
X12554054Y-16043643D01*
X12554054Y-16043643D02*
X12554054Y-16100786D01*
X12554054Y-16100786D02*
X12544530Y-16119833D01*
X12544530Y-16119833D02*
X12535006Y-16129357D01*
X12535006Y-16129357D02*
X12515959Y-16138881D01*
X12515959Y-16138881D02*
X12487387Y-16138881D01*
X12668339Y-16138881D02*
X12649292Y-16129357D01*
X12649292Y-16129357D02*
X12639768Y-16110310D01*
X12639768Y-16110310D02*
X12639768Y-15938881D01*
X12820720Y-16129357D02*
X12801673Y-16138881D01*
X12801673Y-16138881D02*
X12763578Y-16138881D01*
X12763578Y-16138881D02*
X12744530Y-16129357D01*
X12744530Y-16129357D02*
X12735006Y-16110310D01*
X12735006Y-16110310D02*
X12735006Y-16034119D01*
X12735006Y-16034119D02*
X12744530Y-16015072D01*
X12744530Y-16015072D02*
X12763578Y-16005548D01*
X12763578Y-16005548D02*
X12801673Y-16005548D01*
X12801673Y-16005548D02*
X12820720Y-16015072D01*
X12820720Y-16015072D02*
X12830244Y-16034119D01*
X12830244Y-16034119D02*
X12830244Y-16053167D01*
X12830244Y-16053167D02*
X12735006Y-16072214D01*
X12906435Y-16129357D02*
X12925482Y-16138881D01*
X12925482Y-16138881D02*
X12963578Y-16138881D01*
X12963578Y-16138881D02*
X12982625Y-16129357D01*
X12982625Y-16129357D02*
X12992149Y-16110310D01*
X12992149Y-16110310D02*
X12992149Y-16100786D01*
X12992149Y-16100786D02*
X12982625Y-16081738D01*
X12982625Y-16081738D02*
X12963578Y-16072214D01*
X12963578Y-16072214D02*
X12935006Y-16072214D01*
X12935006Y-16072214D02*
X12915959Y-16062691D01*
X12915959Y-16062691D02*
X12906435Y-16043643D01*
X12906435Y-16043643D02*
X12906435Y-16034119D01*
X12906435Y-16034119D02*
X12915959Y-16015072D01*
X12915959Y-16015072D02*
X12935006Y-16005548D01*
X12935006Y-16005548D02*
X12963578Y-16005548D01*
X12963578Y-16005548D02*
X12982625Y-16015072D01*
X13058816Y-16215072D02*
X13068340Y-16205548D01*
X13068340Y-16205548D02*
X13087387Y-16176976D01*
X13087387Y-16176976D02*
X13096911Y-16157929D01*
X13096911Y-16157929D02*
X13106435Y-16129357D01*
X13106435Y-16129357D02*
X13115959Y-16081738D01*
X13115959Y-16081738D02*
X13115959Y-16043643D01*
X13115959Y-16043643D02*
X13106435Y-15996024D01*
X13106435Y-15996024D02*
X13096911Y-15967453D01*
X13096911Y-15967453D02*
X13087387Y-15948405D01*
X13087387Y-15948405D02*
X13068340Y-15919833D01*
X13068340Y-15919833D02*
X13058816Y-15910310D01*
D12*
X8153753Y-16246397D02*
X8283753Y-16376397D01*
X8283753Y-16246397D02*
X8153753Y-16376397D01*
X8283753Y-16311397D02*
G75*
G03*
X8153753Y-16311397I-65000J0D01*
G01*
X8153753Y-16311397D02*
G75*
G03*
X8283753Y-16311397I65000J0D01*
G01*
D10*
X8649292Y-16402881D02*
X8535006Y-16402881D01*
X8592149Y-16402881D02*
X8592149Y-16202881D01*
X8592149Y-16202881D02*
X8573101Y-16231453D01*
X8573101Y-16231453D02*
X8554053Y-16250500D01*
X8554053Y-16250500D02*
X8535006Y-16260024D01*
X8735006Y-16383833D02*
X8744530Y-16393357D01*
X8744530Y-16393357D02*
X8735006Y-16402881D01*
X8735006Y-16402881D02*
X8725482Y-16393357D01*
X8725482Y-16393357D02*
X8735006Y-16383833D01*
X8735006Y-16383833D02*
X8735006Y-16402881D01*
X8811196Y-16202881D02*
X8935006Y-16202881D01*
X8935006Y-16202881D02*
X8868339Y-16279072D01*
X8868339Y-16279072D02*
X8896911Y-16279072D01*
X8896911Y-16279072D02*
X8915958Y-16288595D01*
X8915958Y-16288595D02*
X8925482Y-16298119D01*
X8925482Y-16298119D02*
X8935006Y-16317167D01*
X8935006Y-16317167D02*
X8935006Y-16364786D01*
X8935006Y-16364786D02*
X8925482Y-16383833D01*
X8925482Y-16383833D02*
X8915958Y-16393357D01*
X8915958Y-16393357D02*
X8896911Y-16402881D01*
X8896911Y-16402881D02*
X8839768Y-16402881D01*
X8839768Y-16402881D02*
X8820720Y-16393357D01*
X8820720Y-16393357D02*
X8811196Y-16383833D01*
X9058815Y-16202881D02*
X9077863Y-16202881D01*
X9077863Y-16202881D02*
X9096911Y-16212405D01*
X9096911Y-16212405D02*
X9106434Y-16221929D01*
X9106434Y-16221929D02*
X9115958Y-16240976D01*
X9115958Y-16240976D02*
X9125482Y-16279072D01*
X9125482Y-16279072D02*
X9125482Y-16326691D01*
X9125482Y-16326691D02*
X9115958Y-16364786D01*
X9115958Y-16364786D02*
X9106434Y-16383833D01*
X9106434Y-16383833D02*
X9096911Y-16393357D01*
X9096911Y-16393357D02*
X9077863Y-16402881D01*
X9077863Y-16402881D02*
X9058815Y-16402881D01*
X9058815Y-16402881D02*
X9039768Y-16393357D01*
X9039768Y-16393357D02*
X9030244Y-16383833D01*
X9030244Y-16383833D02*
X9020720Y-16364786D01*
X9020720Y-16364786D02*
X9011196Y-16326691D01*
X9011196Y-16326691D02*
X9011196Y-16279072D01*
X9011196Y-16279072D02*
X9020720Y-16240976D01*
X9020720Y-16240976D02*
X9030244Y-16221929D01*
X9030244Y-16221929D02*
X9039768Y-16212405D01*
X9039768Y-16212405D02*
X9058815Y-16202881D01*
X9249292Y-16202881D02*
X9268339Y-16202881D01*
X9268339Y-16202881D02*
X9287387Y-16212405D01*
X9287387Y-16212405D02*
X9296911Y-16221929D01*
X9296911Y-16221929D02*
X9306434Y-16240976D01*
X9306434Y-16240976D02*
X9315958Y-16279072D01*
X9315958Y-16279072D02*
X9315958Y-16326691D01*
X9315958Y-16326691D02*
X9306434Y-16364786D01*
X9306434Y-16364786D02*
X9296911Y-16383833D01*
X9296911Y-16383833D02*
X9287387Y-16393357D01*
X9287387Y-16393357D02*
X9268339Y-16402881D01*
X9268339Y-16402881D02*
X9249292Y-16402881D01*
X9249292Y-16402881D02*
X9230244Y-16393357D01*
X9230244Y-16393357D02*
X9220720Y-16383833D01*
X9220720Y-16383833D02*
X9211196Y-16364786D01*
X9211196Y-16364786D02*
X9201673Y-16326691D01*
X9201673Y-16326691D02*
X9201673Y-16279072D01*
X9201673Y-16279072D02*
X9211196Y-16240976D01*
X9211196Y-16240976D02*
X9220720Y-16221929D01*
X9220720Y-16221929D02*
X9230244Y-16212405D01*
X9230244Y-16212405D02*
X9249292Y-16202881D01*
X9401673Y-16402881D02*
X9401673Y-16269548D01*
X9401673Y-16288595D02*
X9411196Y-16279072D01*
X9411196Y-16279072D02*
X9430244Y-16269548D01*
X9430244Y-16269548D02*
X9458815Y-16269548D01*
X9458815Y-16269548D02*
X9477863Y-16279072D01*
X9477863Y-16279072D02*
X9487387Y-16298119D01*
X9487387Y-16298119D02*
X9487387Y-16402881D01*
X9487387Y-16298119D02*
X9496911Y-16279072D01*
X9496911Y-16279072D02*
X9515958Y-16269548D01*
X9515958Y-16269548D02*
X9544530Y-16269548D01*
X9544530Y-16269548D02*
X9563577Y-16279072D01*
X9563577Y-16279072D02*
X9573101Y-16298119D01*
X9573101Y-16298119D02*
X9573101Y-16402881D01*
X9668339Y-16402881D02*
X9668339Y-16269548D01*
X9668339Y-16288595D02*
X9677863Y-16279072D01*
X9677863Y-16279072D02*
X9696911Y-16269548D01*
X9696911Y-16269548D02*
X9725482Y-16269548D01*
X9725482Y-16269548D02*
X9744530Y-16279072D01*
X9744530Y-16279072D02*
X9754054Y-16298119D01*
X9754054Y-16298119D02*
X9754054Y-16402881D01*
X9754054Y-16298119D02*
X9763577Y-16279072D01*
X9763577Y-16279072D02*
X9782625Y-16269548D01*
X9782625Y-16269548D02*
X9811196Y-16269548D01*
X9811196Y-16269548D02*
X9830244Y-16279072D01*
X9830244Y-16279072D02*
X9839768Y-16298119D01*
X9839768Y-16298119D02*
X9839768Y-16402881D01*
X10230244Y-16193357D02*
X10058816Y-16450500D01*
X10487387Y-16202881D02*
X10506435Y-16202881D01*
X10506435Y-16202881D02*
X10525482Y-16212405D01*
X10525482Y-16212405D02*
X10535006Y-16221929D01*
X10535006Y-16221929D02*
X10544530Y-16240976D01*
X10544530Y-16240976D02*
X10554054Y-16279072D01*
X10554054Y-16279072D02*
X10554054Y-16326691D01*
X10554054Y-16326691D02*
X10544530Y-16364786D01*
X10544530Y-16364786D02*
X10535006Y-16383833D01*
X10535006Y-16383833D02*
X10525482Y-16393357D01*
X10525482Y-16393357D02*
X10506435Y-16402881D01*
X10506435Y-16402881D02*
X10487387Y-16402881D01*
X10487387Y-16402881D02*
X10468339Y-16393357D01*
X10468339Y-16393357D02*
X10458816Y-16383833D01*
X10458816Y-16383833D02*
X10449292Y-16364786D01*
X10449292Y-16364786D02*
X10439768Y-16326691D01*
X10439768Y-16326691D02*
X10439768Y-16279072D01*
X10439768Y-16279072D02*
X10449292Y-16240976D01*
X10449292Y-16240976D02*
X10458816Y-16221929D01*
X10458816Y-16221929D02*
X10468339Y-16212405D01*
X10468339Y-16212405D02*
X10487387Y-16202881D01*
X10639768Y-16383833D02*
X10649292Y-16393357D01*
X10649292Y-16393357D02*
X10639768Y-16402881D01*
X10639768Y-16402881D02*
X10630244Y-16393357D01*
X10630244Y-16393357D02*
X10639768Y-16383833D01*
X10639768Y-16383833D02*
X10639768Y-16402881D01*
X10773101Y-16202881D02*
X10792149Y-16202881D01*
X10792149Y-16202881D02*
X10811197Y-16212405D01*
X10811197Y-16212405D02*
X10820720Y-16221929D01*
X10820720Y-16221929D02*
X10830244Y-16240976D01*
X10830244Y-16240976D02*
X10839768Y-16279072D01*
X10839768Y-16279072D02*
X10839768Y-16326691D01*
X10839768Y-16326691D02*
X10830244Y-16364786D01*
X10830244Y-16364786D02*
X10820720Y-16383833D01*
X10820720Y-16383833D02*
X10811197Y-16393357D01*
X10811197Y-16393357D02*
X10792149Y-16402881D01*
X10792149Y-16402881D02*
X10773101Y-16402881D01*
X10773101Y-16402881D02*
X10754054Y-16393357D01*
X10754054Y-16393357D02*
X10744530Y-16383833D01*
X10744530Y-16383833D02*
X10735006Y-16364786D01*
X10735006Y-16364786D02*
X10725482Y-16326691D01*
X10725482Y-16326691D02*
X10725482Y-16279072D01*
X10725482Y-16279072D02*
X10735006Y-16240976D01*
X10735006Y-16240976D02*
X10744530Y-16221929D01*
X10744530Y-16221929D02*
X10754054Y-16212405D01*
X10754054Y-16212405D02*
X10773101Y-16202881D01*
X11020720Y-16202881D02*
X10925482Y-16202881D01*
X10925482Y-16202881D02*
X10915958Y-16298119D01*
X10915958Y-16298119D02*
X10925482Y-16288595D01*
X10925482Y-16288595D02*
X10944530Y-16279072D01*
X10944530Y-16279072D02*
X10992149Y-16279072D01*
X10992149Y-16279072D02*
X11011197Y-16288595D01*
X11011197Y-16288595D02*
X11020720Y-16298119D01*
X11020720Y-16298119D02*
X11030244Y-16317167D01*
X11030244Y-16317167D02*
X11030244Y-16364786D01*
X11030244Y-16364786D02*
X11020720Y-16383833D01*
X11020720Y-16383833D02*
X11011197Y-16393357D01*
X11011197Y-16393357D02*
X10992149Y-16402881D01*
X10992149Y-16402881D02*
X10944530Y-16402881D01*
X10944530Y-16402881D02*
X10925482Y-16393357D01*
X10925482Y-16393357D02*
X10915958Y-16383833D01*
X11220720Y-16402881D02*
X11106435Y-16402881D01*
X11163577Y-16402881D02*
X11163577Y-16202881D01*
X11163577Y-16202881D02*
X11144530Y-16231453D01*
X11144530Y-16231453D02*
X11125482Y-16250500D01*
X11125482Y-16250500D02*
X11106435Y-16260024D01*
X11296911Y-16221929D02*
X11306435Y-16212405D01*
X11306435Y-16212405D02*
X11325482Y-16202881D01*
X11325482Y-16202881D02*
X11373101Y-16202881D01*
X11373101Y-16202881D02*
X11392149Y-16212405D01*
X11392149Y-16212405D02*
X11401673Y-16221929D01*
X11401673Y-16221929D02*
X11411196Y-16240976D01*
X11411196Y-16240976D02*
X11411196Y-16260024D01*
X11411196Y-16260024D02*
X11401673Y-16288595D01*
X11401673Y-16288595D02*
X11287387Y-16402881D01*
X11287387Y-16402881D02*
X11411196Y-16402881D01*
X11487387Y-16202881D02*
X11487387Y-16240976D01*
X11563577Y-16202881D02*
X11563577Y-16240976D01*
X11858816Y-16479072D02*
X11849292Y-16469548D01*
X11849292Y-16469548D02*
X11830244Y-16440976D01*
X11830244Y-16440976D02*
X11820720Y-16421929D01*
X11820720Y-16421929D02*
X11811197Y-16393357D01*
X11811197Y-16393357D02*
X11801673Y-16345738D01*
X11801673Y-16345738D02*
X11801673Y-16307643D01*
X11801673Y-16307643D02*
X11811197Y-16260024D01*
X11811197Y-16260024D02*
X11820720Y-16231453D01*
X11820720Y-16231453D02*
X11830244Y-16212405D01*
X11830244Y-16212405D02*
X11849292Y-16183833D01*
X11849292Y-16183833D02*
X11858816Y-16174310D01*
X11925482Y-16221929D02*
X11935006Y-16212405D01*
X11935006Y-16212405D02*
X11954054Y-16202881D01*
X11954054Y-16202881D02*
X12001673Y-16202881D01*
X12001673Y-16202881D02*
X12020720Y-16212405D01*
X12020720Y-16212405D02*
X12030244Y-16221929D01*
X12030244Y-16221929D02*
X12039768Y-16240976D01*
X12039768Y-16240976D02*
X12039768Y-16260024D01*
X12039768Y-16260024D02*
X12030244Y-16288595D01*
X12030244Y-16288595D02*
X11915958Y-16402881D01*
X11915958Y-16402881D02*
X12039768Y-16402881D01*
X12277863Y-16402881D02*
X12277863Y-16202881D01*
X12363578Y-16402881D02*
X12363578Y-16298119D01*
X12363578Y-16298119D02*
X12354054Y-16279072D01*
X12354054Y-16279072D02*
X12335006Y-16269548D01*
X12335006Y-16269548D02*
X12306435Y-16269548D01*
X12306435Y-16269548D02*
X12287387Y-16279072D01*
X12287387Y-16279072D02*
X12277863Y-16288595D01*
X12487387Y-16402881D02*
X12468339Y-16393357D01*
X12468339Y-16393357D02*
X12458816Y-16383833D01*
X12458816Y-16383833D02*
X12449292Y-16364786D01*
X12449292Y-16364786D02*
X12449292Y-16307643D01*
X12449292Y-16307643D02*
X12458816Y-16288595D01*
X12458816Y-16288595D02*
X12468339Y-16279072D01*
X12468339Y-16279072D02*
X12487387Y-16269548D01*
X12487387Y-16269548D02*
X12515959Y-16269548D01*
X12515959Y-16269548D02*
X12535006Y-16279072D01*
X12535006Y-16279072D02*
X12544530Y-16288595D01*
X12544530Y-16288595D02*
X12554054Y-16307643D01*
X12554054Y-16307643D02*
X12554054Y-16364786D01*
X12554054Y-16364786D02*
X12544530Y-16383833D01*
X12544530Y-16383833D02*
X12535006Y-16393357D01*
X12535006Y-16393357D02*
X12515959Y-16402881D01*
X12515959Y-16402881D02*
X12487387Y-16402881D01*
X12668339Y-16402881D02*
X12649292Y-16393357D01*
X12649292Y-16393357D02*
X12639768Y-16374310D01*
X12639768Y-16374310D02*
X12639768Y-16202881D01*
X12820720Y-16393357D02*
X12801673Y-16402881D01*
X12801673Y-16402881D02*
X12763578Y-16402881D01*
X12763578Y-16402881D02*
X12744530Y-16393357D01*
X12744530Y-16393357D02*
X12735006Y-16374310D01*
X12735006Y-16374310D02*
X12735006Y-16298119D01*
X12735006Y-16298119D02*
X12744530Y-16279072D01*
X12744530Y-16279072D02*
X12763578Y-16269548D01*
X12763578Y-16269548D02*
X12801673Y-16269548D01*
X12801673Y-16269548D02*
X12820720Y-16279072D01*
X12820720Y-16279072D02*
X12830244Y-16298119D01*
X12830244Y-16298119D02*
X12830244Y-16317167D01*
X12830244Y-16317167D02*
X12735006Y-16336214D01*
X12906435Y-16393357D02*
X12925482Y-16402881D01*
X12925482Y-16402881D02*
X12963578Y-16402881D01*
X12963578Y-16402881D02*
X12982625Y-16393357D01*
X12982625Y-16393357D02*
X12992149Y-16374310D01*
X12992149Y-16374310D02*
X12992149Y-16364786D01*
X12992149Y-16364786D02*
X12982625Y-16345738D01*
X12982625Y-16345738D02*
X12963578Y-16336214D01*
X12963578Y-16336214D02*
X12935006Y-16336214D01*
X12935006Y-16336214D02*
X12915959Y-16326691D01*
X12915959Y-16326691D02*
X12906435Y-16307643D01*
X12906435Y-16307643D02*
X12906435Y-16298119D01*
X12906435Y-16298119D02*
X12915959Y-16279072D01*
X12915959Y-16279072D02*
X12935006Y-16269548D01*
X12935006Y-16269548D02*
X12963578Y-16269548D01*
X12963578Y-16269548D02*
X12982625Y-16279072D01*
X13058816Y-16479072D02*
X13068340Y-16469548D01*
X13068340Y-16469548D02*
X13087387Y-16440976D01*
X13087387Y-16440976D02*
X13096911Y-16421929D01*
X13096911Y-16421929D02*
X13106435Y-16393357D01*
X13106435Y-16393357D02*
X13115959Y-16345738D01*
X13115959Y-16345738D02*
X13115959Y-16307643D01*
X13115959Y-16307643D02*
X13106435Y-16260024D01*
X13106435Y-16260024D02*
X13096911Y-16231453D01*
X13096911Y-16231453D02*
X13087387Y-16212405D01*
X13087387Y-16212405D02*
X13068340Y-16183833D01*
X13068340Y-16183833D02*
X13058816Y-16174310D01*
X8083753Y-16475397D02*
X8283753Y-16675397D01*
X8283753Y-16475397D02*
X8083753Y-16675397D01*
X8183753Y-16475397D02*
X8183753Y-16675397D01*
X8083753Y-16575397D02*
X8283753Y-16575397D01*
X8535006Y-16485929D02*
X8544530Y-16476405D01*
X8544530Y-16476405D02*
X8563577Y-16466881D01*
X8563577Y-16466881D02*
X8611196Y-16466881D01*
X8611196Y-16466881D02*
X8630244Y-16476405D01*
X8630244Y-16476405D02*
X8639768Y-16485929D01*
X8639768Y-16485929D02*
X8649292Y-16504976D01*
X8649292Y-16504976D02*
X8649292Y-16524024D01*
X8649292Y-16524024D02*
X8639768Y-16552595D01*
X8639768Y-16552595D02*
X8525482Y-16666881D01*
X8525482Y-16666881D02*
X8649292Y-16666881D01*
X8735006Y-16647833D02*
X8744530Y-16657357D01*
X8744530Y-16657357D02*
X8735006Y-16666881D01*
X8735006Y-16666881D02*
X8725482Y-16657357D01*
X8725482Y-16657357D02*
X8735006Y-16647833D01*
X8735006Y-16647833D02*
X8735006Y-16666881D01*
X8915958Y-16533548D02*
X8915958Y-16666881D01*
X8868339Y-16457357D02*
X8820720Y-16600214D01*
X8820720Y-16600214D02*
X8944530Y-16600214D01*
X9058815Y-16466881D02*
X9077863Y-16466881D01*
X9077863Y-16466881D02*
X9096911Y-16476405D01*
X9096911Y-16476405D02*
X9106434Y-16485929D01*
X9106434Y-16485929D02*
X9115958Y-16504976D01*
X9115958Y-16504976D02*
X9125482Y-16543072D01*
X9125482Y-16543072D02*
X9125482Y-16590691D01*
X9125482Y-16590691D02*
X9115958Y-16628786D01*
X9115958Y-16628786D02*
X9106434Y-16647833D01*
X9106434Y-16647833D02*
X9096911Y-16657357D01*
X9096911Y-16657357D02*
X9077863Y-16666881D01*
X9077863Y-16666881D02*
X9058815Y-16666881D01*
X9058815Y-16666881D02*
X9039768Y-16657357D01*
X9039768Y-16657357D02*
X9030244Y-16647833D01*
X9030244Y-16647833D02*
X9020720Y-16628786D01*
X9020720Y-16628786D02*
X9011196Y-16590691D01*
X9011196Y-16590691D02*
X9011196Y-16543072D01*
X9011196Y-16543072D02*
X9020720Y-16504976D01*
X9020720Y-16504976D02*
X9030244Y-16485929D01*
X9030244Y-16485929D02*
X9039768Y-16476405D01*
X9039768Y-16476405D02*
X9058815Y-16466881D01*
X9249292Y-16466881D02*
X9268339Y-16466881D01*
X9268339Y-16466881D02*
X9287387Y-16476405D01*
X9287387Y-16476405D02*
X9296911Y-16485929D01*
X9296911Y-16485929D02*
X9306434Y-16504976D01*
X9306434Y-16504976D02*
X9315958Y-16543072D01*
X9315958Y-16543072D02*
X9315958Y-16590691D01*
X9315958Y-16590691D02*
X9306434Y-16628786D01*
X9306434Y-16628786D02*
X9296911Y-16647833D01*
X9296911Y-16647833D02*
X9287387Y-16657357D01*
X9287387Y-16657357D02*
X9268339Y-16666881D01*
X9268339Y-16666881D02*
X9249292Y-16666881D01*
X9249292Y-16666881D02*
X9230244Y-16657357D01*
X9230244Y-16657357D02*
X9220720Y-16647833D01*
X9220720Y-16647833D02*
X9211196Y-16628786D01*
X9211196Y-16628786D02*
X9201673Y-16590691D01*
X9201673Y-16590691D02*
X9201673Y-16543072D01*
X9201673Y-16543072D02*
X9211196Y-16504976D01*
X9211196Y-16504976D02*
X9220720Y-16485929D01*
X9220720Y-16485929D02*
X9230244Y-16476405D01*
X9230244Y-16476405D02*
X9249292Y-16466881D01*
X9401673Y-16666881D02*
X9401673Y-16533548D01*
X9401673Y-16552595D02*
X9411196Y-16543072D01*
X9411196Y-16543072D02*
X9430244Y-16533548D01*
X9430244Y-16533548D02*
X9458815Y-16533548D01*
X9458815Y-16533548D02*
X9477863Y-16543072D01*
X9477863Y-16543072D02*
X9487387Y-16562119D01*
X9487387Y-16562119D02*
X9487387Y-16666881D01*
X9487387Y-16562119D02*
X9496911Y-16543072D01*
X9496911Y-16543072D02*
X9515958Y-16533548D01*
X9515958Y-16533548D02*
X9544530Y-16533548D01*
X9544530Y-16533548D02*
X9563577Y-16543072D01*
X9563577Y-16543072D02*
X9573101Y-16562119D01*
X9573101Y-16562119D02*
X9573101Y-16666881D01*
X9668339Y-16666881D02*
X9668339Y-16533548D01*
X9668339Y-16552595D02*
X9677863Y-16543072D01*
X9677863Y-16543072D02*
X9696911Y-16533548D01*
X9696911Y-16533548D02*
X9725482Y-16533548D01*
X9725482Y-16533548D02*
X9744530Y-16543072D01*
X9744530Y-16543072D02*
X9754054Y-16562119D01*
X9754054Y-16562119D02*
X9754054Y-16666881D01*
X9754054Y-16562119D02*
X9763577Y-16543072D01*
X9763577Y-16543072D02*
X9782625Y-16533548D01*
X9782625Y-16533548D02*
X9811196Y-16533548D01*
X9811196Y-16533548D02*
X9830244Y-16543072D01*
X9830244Y-16543072D02*
X9839768Y-16562119D01*
X9839768Y-16562119D02*
X9839768Y-16666881D01*
X10230244Y-16457357D02*
X10058816Y-16714500D01*
X10487387Y-16466881D02*
X10506435Y-16466881D01*
X10506435Y-16466881D02*
X10525482Y-16476405D01*
X10525482Y-16476405D02*
X10535006Y-16485929D01*
X10535006Y-16485929D02*
X10544530Y-16504976D01*
X10544530Y-16504976D02*
X10554054Y-16543072D01*
X10554054Y-16543072D02*
X10554054Y-16590691D01*
X10554054Y-16590691D02*
X10544530Y-16628786D01*
X10544530Y-16628786D02*
X10535006Y-16647833D01*
X10535006Y-16647833D02*
X10525482Y-16657357D01*
X10525482Y-16657357D02*
X10506435Y-16666881D01*
X10506435Y-16666881D02*
X10487387Y-16666881D01*
X10487387Y-16666881D02*
X10468339Y-16657357D01*
X10468339Y-16657357D02*
X10458816Y-16647833D01*
X10458816Y-16647833D02*
X10449292Y-16628786D01*
X10449292Y-16628786D02*
X10439768Y-16590691D01*
X10439768Y-16590691D02*
X10439768Y-16543072D01*
X10439768Y-16543072D02*
X10449292Y-16504976D01*
X10449292Y-16504976D02*
X10458816Y-16485929D01*
X10458816Y-16485929D02*
X10468339Y-16476405D01*
X10468339Y-16476405D02*
X10487387Y-16466881D01*
X10639768Y-16647833D02*
X10649292Y-16657357D01*
X10649292Y-16657357D02*
X10639768Y-16666881D01*
X10639768Y-16666881D02*
X10630244Y-16657357D01*
X10630244Y-16657357D02*
X10639768Y-16647833D01*
X10639768Y-16647833D02*
X10639768Y-16666881D01*
X10773101Y-16466881D02*
X10792149Y-16466881D01*
X10792149Y-16466881D02*
X10811197Y-16476405D01*
X10811197Y-16476405D02*
X10820720Y-16485929D01*
X10820720Y-16485929D02*
X10830244Y-16504976D01*
X10830244Y-16504976D02*
X10839768Y-16543072D01*
X10839768Y-16543072D02*
X10839768Y-16590691D01*
X10839768Y-16590691D02*
X10830244Y-16628786D01*
X10830244Y-16628786D02*
X10820720Y-16647833D01*
X10820720Y-16647833D02*
X10811197Y-16657357D01*
X10811197Y-16657357D02*
X10792149Y-16666881D01*
X10792149Y-16666881D02*
X10773101Y-16666881D01*
X10773101Y-16666881D02*
X10754054Y-16657357D01*
X10754054Y-16657357D02*
X10744530Y-16647833D01*
X10744530Y-16647833D02*
X10735006Y-16628786D01*
X10735006Y-16628786D02*
X10725482Y-16590691D01*
X10725482Y-16590691D02*
X10725482Y-16543072D01*
X10725482Y-16543072D02*
X10735006Y-16504976D01*
X10735006Y-16504976D02*
X10744530Y-16485929D01*
X10744530Y-16485929D02*
X10754054Y-16476405D01*
X10754054Y-16476405D02*
X10773101Y-16466881D01*
X10935006Y-16666881D02*
X10973101Y-16666881D01*
X10973101Y-16666881D02*
X10992149Y-16657357D01*
X10992149Y-16657357D02*
X11001673Y-16647833D01*
X11001673Y-16647833D02*
X11020720Y-16619262D01*
X11020720Y-16619262D02*
X11030244Y-16581167D01*
X11030244Y-16581167D02*
X11030244Y-16504976D01*
X11030244Y-16504976D02*
X11020720Y-16485929D01*
X11020720Y-16485929D02*
X11011197Y-16476405D01*
X11011197Y-16476405D02*
X10992149Y-16466881D01*
X10992149Y-16466881D02*
X10954054Y-16466881D01*
X10954054Y-16466881D02*
X10935006Y-16476405D01*
X10935006Y-16476405D02*
X10925482Y-16485929D01*
X10925482Y-16485929D02*
X10915958Y-16504976D01*
X10915958Y-16504976D02*
X10915958Y-16552595D01*
X10915958Y-16552595D02*
X10925482Y-16571643D01*
X10925482Y-16571643D02*
X10935006Y-16581167D01*
X10935006Y-16581167D02*
X10954054Y-16590691D01*
X10954054Y-16590691D02*
X10992149Y-16590691D01*
X10992149Y-16590691D02*
X11011197Y-16581167D01*
X11011197Y-16581167D02*
X11020720Y-16571643D01*
X11020720Y-16571643D02*
X11030244Y-16552595D01*
X11201673Y-16533548D02*
X11201673Y-16666881D01*
X11154054Y-16457357D02*
X11106435Y-16600214D01*
X11106435Y-16600214D02*
X11230244Y-16600214D01*
X11401673Y-16466881D02*
X11306435Y-16466881D01*
X11306435Y-16466881D02*
X11296911Y-16562119D01*
X11296911Y-16562119D02*
X11306435Y-16552595D01*
X11306435Y-16552595D02*
X11325482Y-16543072D01*
X11325482Y-16543072D02*
X11373101Y-16543072D01*
X11373101Y-16543072D02*
X11392149Y-16552595D01*
X11392149Y-16552595D02*
X11401673Y-16562119D01*
X11401673Y-16562119D02*
X11411196Y-16581167D01*
X11411196Y-16581167D02*
X11411196Y-16628786D01*
X11411196Y-16628786D02*
X11401673Y-16647833D01*
X11401673Y-16647833D02*
X11392149Y-16657357D01*
X11392149Y-16657357D02*
X11373101Y-16666881D01*
X11373101Y-16666881D02*
X11325482Y-16666881D01*
X11325482Y-16666881D02*
X11306435Y-16657357D01*
X11306435Y-16657357D02*
X11296911Y-16647833D01*
X11487387Y-16466881D02*
X11487387Y-16504976D01*
X11563577Y-16466881D02*
X11563577Y-16504976D01*
X11858816Y-16743072D02*
X11849292Y-16733548D01*
X11849292Y-16733548D02*
X11830244Y-16704976D01*
X11830244Y-16704976D02*
X11820720Y-16685929D01*
X11820720Y-16685929D02*
X11811197Y-16657357D01*
X11811197Y-16657357D02*
X11801673Y-16609738D01*
X11801673Y-16609738D02*
X11801673Y-16571643D01*
X11801673Y-16571643D02*
X11811197Y-16524024D01*
X11811197Y-16524024D02*
X11820720Y-16495453D01*
X11820720Y-16495453D02*
X11830244Y-16476405D01*
X11830244Y-16476405D02*
X11849292Y-16447833D01*
X11849292Y-16447833D02*
X11858816Y-16438310D01*
X11925482Y-16485929D02*
X11935006Y-16476405D01*
X11935006Y-16476405D02*
X11954054Y-16466881D01*
X11954054Y-16466881D02*
X12001673Y-16466881D01*
X12001673Y-16466881D02*
X12020720Y-16476405D01*
X12020720Y-16476405D02*
X12030244Y-16485929D01*
X12030244Y-16485929D02*
X12039768Y-16504976D01*
X12039768Y-16504976D02*
X12039768Y-16524024D01*
X12039768Y-16524024D02*
X12030244Y-16552595D01*
X12030244Y-16552595D02*
X11915958Y-16666881D01*
X11915958Y-16666881D02*
X12039768Y-16666881D01*
X12277863Y-16666881D02*
X12277863Y-16466881D01*
X12363578Y-16666881D02*
X12363578Y-16562119D01*
X12363578Y-16562119D02*
X12354054Y-16543072D01*
X12354054Y-16543072D02*
X12335006Y-16533548D01*
X12335006Y-16533548D02*
X12306435Y-16533548D01*
X12306435Y-16533548D02*
X12287387Y-16543072D01*
X12287387Y-16543072D02*
X12277863Y-16552595D01*
X12487387Y-16666881D02*
X12468339Y-16657357D01*
X12468339Y-16657357D02*
X12458816Y-16647833D01*
X12458816Y-16647833D02*
X12449292Y-16628786D01*
X12449292Y-16628786D02*
X12449292Y-16571643D01*
X12449292Y-16571643D02*
X12458816Y-16552595D01*
X12458816Y-16552595D02*
X12468339Y-16543072D01*
X12468339Y-16543072D02*
X12487387Y-16533548D01*
X12487387Y-16533548D02*
X12515959Y-16533548D01*
X12515959Y-16533548D02*
X12535006Y-16543072D01*
X12535006Y-16543072D02*
X12544530Y-16552595D01*
X12544530Y-16552595D02*
X12554054Y-16571643D01*
X12554054Y-16571643D02*
X12554054Y-16628786D01*
X12554054Y-16628786D02*
X12544530Y-16647833D01*
X12544530Y-16647833D02*
X12535006Y-16657357D01*
X12535006Y-16657357D02*
X12515959Y-16666881D01*
X12515959Y-16666881D02*
X12487387Y-16666881D01*
X12668339Y-16666881D02*
X12649292Y-16657357D01*
X12649292Y-16657357D02*
X12639768Y-16638310D01*
X12639768Y-16638310D02*
X12639768Y-16466881D01*
X12820720Y-16657357D02*
X12801673Y-16666881D01*
X12801673Y-16666881D02*
X12763578Y-16666881D01*
X12763578Y-16666881D02*
X12744530Y-16657357D01*
X12744530Y-16657357D02*
X12735006Y-16638310D01*
X12735006Y-16638310D02*
X12735006Y-16562119D01*
X12735006Y-16562119D02*
X12744530Y-16543072D01*
X12744530Y-16543072D02*
X12763578Y-16533548D01*
X12763578Y-16533548D02*
X12801673Y-16533548D01*
X12801673Y-16533548D02*
X12820720Y-16543072D01*
X12820720Y-16543072D02*
X12830244Y-16562119D01*
X12830244Y-16562119D02*
X12830244Y-16581167D01*
X12830244Y-16581167D02*
X12735006Y-16600214D01*
X12906435Y-16657357D02*
X12925482Y-16666881D01*
X12925482Y-16666881D02*
X12963578Y-16666881D01*
X12963578Y-16666881D02*
X12982625Y-16657357D01*
X12982625Y-16657357D02*
X12992149Y-16638310D01*
X12992149Y-16638310D02*
X12992149Y-16628786D01*
X12992149Y-16628786D02*
X12982625Y-16609738D01*
X12982625Y-16609738D02*
X12963578Y-16600214D01*
X12963578Y-16600214D02*
X12935006Y-16600214D01*
X12935006Y-16600214D02*
X12915959Y-16590691D01*
X12915959Y-16590691D02*
X12906435Y-16571643D01*
X12906435Y-16571643D02*
X12906435Y-16562119D01*
X12906435Y-16562119D02*
X12915959Y-16543072D01*
X12915959Y-16543072D02*
X12935006Y-16533548D01*
X12935006Y-16533548D02*
X12963578Y-16533548D01*
X12963578Y-16533548D02*
X12982625Y-16543072D01*
X13058816Y-16743072D02*
X13068340Y-16733548D01*
X13068340Y-16733548D02*
X13087387Y-16704976D01*
X13087387Y-16704976D02*
X13096911Y-16685929D01*
X13096911Y-16685929D02*
X13106435Y-16657357D01*
X13106435Y-16657357D02*
X13115959Y-16609738D01*
X13115959Y-16609738D02*
X13115959Y-16571643D01*
X13115959Y-16571643D02*
X13106435Y-16524024D01*
X13106435Y-16524024D02*
X13096911Y-16495453D01*
X13096911Y-16495453D02*
X13087387Y-16476405D01*
X13087387Y-16476405D02*
X13068340Y-16447833D01*
X13068340Y-16447833D02*
X13058816Y-16438310D01*
X8083753Y-16795397D02*
X8283753Y-16995397D01*
X8283753Y-16795397D02*
X8083753Y-16995397D01*
X8254464Y-16966109D02*
X8254464Y-16824686D01*
X8113041Y-16824686D01*
X8113041Y-16966109D01*
X8254464Y-16966109D01*
X8630244Y-16853548D02*
X8630244Y-16986881D01*
X8582625Y-16777357D02*
X8535006Y-16920215D01*
X8535006Y-16920215D02*
X8658815Y-16920215D01*
X8735006Y-16967834D02*
X8744530Y-16977357D01*
X8744530Y-16977357D02*
X8735006Y-16986881D01*
X8735006Y-16986881D02*
X8725482Y-16977357D01*
X8725482Y-16977357D02*
X8735006Y-16967834D01*
X8735006Y-16967834D02*
X8735006Y-16986881D01*
X8811196Y-16786881D02*
X8944530Y-16786881D01*
X8944530Y-16786881D02*
X8858815Y-16986881D01*
X9058815Y-16786881D02*
X9077863Y-16786881D01*
X9077863Y-16786881D02*
X9096911Y-16796405D01*
X9096911Y-16796405D02*
X9106434Y-16805929D01*
X9106434Y-16805929D02*
X9115958Y-16824976D01*
X9115958Y-16824976D02*
X9125482Y-16863072D01*
X9125482Y-16863072D02*
X9125482Y-16910691D01*
X9125482Y-16910691D02*
X9115958Y-16948786D01*
X9115958Y-16948786D02*
X9106434Y-16967834D01*
X9106434Y-16967834D02*
X9096911Y-16977357D01*
X9096911Y-16977357D02*
X9077863Y-16986881D01*
X9077863Y-16986881D02*
X9058815Y-16986881D01*
X9058815Y-16986881D02*
X9039768Y-16977357D01*
X9039768Y-16977357D02*
X9030244Y-16967834D01*
X9030244Y-16967834D02*
X9020720Y-16948786D01*
X9020720Y-16948786D02*
X9011196Y-16910691D01*
X9011196Y-16910691D02*
X9011196Y-16863072D01*
X9011196Y-16863072D02*
X9020720Y-16824976D01*
X9020720Y-16824976D02*
X9030244Y-16805929D01*
X9030244Y-16805929D02*
X9039768Y-16796405D01*
X9039768Y-16796405D02*
X9058815Y-16786881D01*
X9249292Y-16786881D02*
X9268339Y-16786881D01*
X9268339Y-16786881D02*
X9287387Y-16796405D01*
X9287387Y-16796405D02*
X9296911Y-16805929D01*
X9296911Y-16805929D02*
X9306434Y-16824976D01*
X9306434Y-16824976D02*
X9315958Y-16863072D01*
X9315958Y-16863072D02*
X9315958Y-16910691D01*
X9315958Y-16910691D02*
X9306434Y-16948786D01*
X9306434Y-16948786D02*
X9296911Y-16967834D01*
X9296911Y-16967834D02*
X9287387Y-16977357D01*
X9287387Y-16977357D02*
X9268339Y-16986881D01*
X9268339Y-16986881D02*
X9249292Y-16986881D01*
X9249292Y-16986881D02*
X9230244Y-16977357D01*
X9230244Y-16977357D02*
X9220720Y-16967834D01*
X9220720Y-16967834D02*
X9211196Y-16948786D01*
X9211196Y-16948786D02*
X9201673Y-16910691D01*
X9201673Y-16910691D02*
X9201673Y-16863072D01*
X9201673Y-16863072D02*
X9211196Y-16824976D01*
X9211196Y-16824976D02*
X9220720Y-16805929D01*
X9220720Y-16805929D02*
X9230244Y-16796405D01*
X9230244Y-16796405D02*
X9249292Y-16786881D01*
X9401673Y-16986881D02*
X9401673Y-16853548D01*
X9401673Y-16872595D02*
X9411196Y-16863072D01*
X9411196Y-16863072D02*
X9430244Y-16853548D01*
X9430244Y-16853548D02*
X9458815Y-16853548D01*
X9458815Y-16853548D02*
X9477863Y-16863072D01*
X9477863Y-16863072D02*
X9487387Y-16882119D01*
X9487387Y-16882119D02*
X9487387Y-16986881D01*
X9487387Y-16882119D02*
X9496911Y-16863072D01*
X9496911Y-16863072D02*
X9515958Y-16853548D01*
X9515958Y-16853548D02*
X9544530Y-16853548D01*
X9544530Y-16853548D02*
X9563577Y-16863072D01*
X9563577Y-16863072D02*
X9573101Y-16882119D01*
X9573101Y-16882119D02*
X9573101Y-16986881D01*
X9668339Y-16986881D02*
X9668339Y-16853548D01*
X9668339Y-16872595D02*
X9677863Y-16863072D01*
X9677863Y-16863072D02*
X9696911Y-16853548D01*
X9696911Y-16853548D02*
X9725482Y-16853548D01*
X9725482Y-16853548D02*
X9744530Y-16863072D01*
X9744530Y-16863072D02*
X9754054Y-16882119D01*
X9754054Y-16882119D02*
X9754054Y-16986881D01*
X9754054Y-16882119D02*
X9763577Y-16863072D01*
X9763577Y-16863072D02*
X9782625Y-16853548D01*
X9782625Y-16853548D02*
X9811196Y-16853548D01*
X9811196Y-16853548D02*
X9830244Y-16863072D01*
X9830244Y-16863072D02*
X9839768Y-16882119D01*
X9839768Y-16882119D02*
X9839768Y-16986881D01*
X10230244Y-16777357D02*
X10058816Y-17034500D01*
X10487387Y-16786881D02*
X10506435Y-16786881D01*
X10506435Y-16786881D02*
X10525482Y-16796405D01*
X10525482Y-16796405D02*
X10535006Y-16805929D01*
X10535006Y-16805929D02*
X10544530Y-16824976D01*
X10544530Y-16824976D02*
X10554054Y-16863072D01*
X10554054Y-16863072D02*
X10554054Y-16910691D01*
X10554054Y-16910691D02*
X10544530Y-16948786D01*
X10544530Y-16948786D02*
X10535006Y-16967834D01*
X10535006Y-16967834D02*
X10525482Y-16977357D01*
X10525482Y-16977357D02*
X10506435Y-16986881D01*
X10506435Y-16986881D02*
X10487387Y-16986881D01*
X10487387Y-16986881D02*
X10468339Y-16977357D01*
X10468339Y-16977357D02*
X10458816Y-16967834D01*
X10458816Y-16967834D02*
X10449292Y-16948786D01*
X10449292Y-16948786D02*
X10439768Y-16910691D01*
X10439768Y-16910691D02*
X10439768Y-16863072D01*
X10439768Y-16863072D02*
X10449292Y-16824976D01*
X10449292Y-16824976D02*
X10458816Y-16805929D01*
X10458816Y-16805929D02*
X10468339Y-16796405D01*
X10468339Y-16796405D02*
X10487387Y-16786881D01*
X10639768Y-16967834D02*
X10649292Y-16977357D01*
X10649292Y-16977357D02*
X10639768Y-16986881D01*
X10639768Y-16986881D02*
X10630244Y-16977357D01*
X10630244Y-16977357D02*
X10639768Y-16967834D01*
X10639768Y-16967834D02*
X10639768Y-16986881D01*
X10839768Y-16986881D02*
X10725482Y-16986881D01*
X10782625Y-16986881D02*
X10782625Y-16786881D01*
X10782625Y-16786881D02*
X10763577Y-16815453D01*
X10763577Y-16815453D02*
X10744530Y-16834500D01*
X10744530Y-16834500D02*
X10725482Y-16844024D01*
X10954054Y-16872595D02*
X10935006Y-16863072D01*
X10935006Y-16863072D02*
X10925482Y-16853548D01*
X10925482Y-16853548D02*
X10915958Y-16834500D01*
X10915958Y-16834500D02*
X10915958Y-16824976D01*
X10915958Y-16824976D02*
X10925482Y-16805929D01*
X10925482Y-16805929D02*
X10935006Y-16796405D01*
X10935006Y-16796405D02*
X10954054Y-16786881D01*
X10954054Y-16786881D02*
X10992149Y-16786881D01*
X10992149Y-16786881D02*
X11011197Y-16796405D01*
X11011197Y-16796405D02*
X11020720Y-16805929D01*
X11020720Y-16805929D02*
X11030244Y-16824976D01*
X11030244Y-16824976D02*
X11030244Y-16834500D01*
X11030244Y-16834500D02*
X11020720Y-16853548D01*
X11020720Y-16853548D02*
X11011197Y-16863072D01*
X11011197Y-16863072D02*
X10992149Y-16872595D01*
X10992149Y-16872595D02*
X10954054Y-16872595D01*
X10954054Y-16872595D02*
X10935006Y-16882119D01*
X10935006Y-16882119D02*
X10925482Y-16891643D01*
X10925482Y-16891643D02*
X10915958Y-16910691D01*
X10915958Y-16910691D02*
X10915958Y-16948786D01*
X10915958Y-16948786D02*
X10925482Y-16967834D01*
X10925482Y-16967834D02*
X10935006Y-16977357D01*
X10935006Y-16977357D02*
X10954054Y-16986881D01*
X10954054Y-16986881D02*
X10992149Y-16986881D01*
X10992149Y-16986881D02*
X11011197Y-16977357D01*
X11011197Y-16977357D02*
X11020720Y-16967834D01*
X11020720Y-16967834D02*
X11030244Y-16948786D01*
X11030244Y-16948786D02*
X11030244Y-16910691D01*
X11030244Y-16910691D02*
X11020720Y-16891643D01*
X11020720Y-16891643D02*
X11011197Y-16882119D01*
X11011197Y-16882119D02*
X10992149Y-16872595D01*
X11211196Y-16786881D02*
X11115958Y-16786881D01*
X11115958Y-16786881D02*
X11106435Y-16882119D01*
X11106435Y-16882119D02*
X11115958Y-16872595D01*
X11115958Y-16872595D02*
X11135006Y-16863072D01*
X11135006Y-16863072D02*
X11182625Y-16863072D01*
X11182625Y-16863072D02*
X11201673Y-16872595D01*
X11201673Y-16872595D02*
X11211196Y-16882119D01*
X11211196Y-16882119D02*
X11220720Y-16901167D01*
X11220720Y-16901167D02*
X11220720Y-16948786D01*
X11220720Y-16948786D02*
X11211196Y-16967834D01*
X11211196Y-16967834D02*
X11201673Y-16977357D01*
X11201673Y-16977357D02*
X11182625Y-16986881D01*
X11182625Y-16986881D02*
X11135006Y-16986881D01*
X11135006Y-16986881D02*
X11115958Y-16977357D01*
X11115958Y-16977357D02*
X11106435Y-16967834D01*
X11344530Y-16786881D02*
X11363577Y-16786881D01*
X11363577Y-16786881D02*
X11382625Y-16796405D01*
X11382625Y-16796405D02*
X11392149Y-16805929D01*
X11392149Y-16805929D02*
X11401673Y-16824976D01*
X11401673Y-16824976D02*
X11411196Y-16863072D01*
X11411196Y-16863072D02*
X11411196Y-16910691D01*
X11411196Y-16910691D02*
X11401673Y-16948786D01*
X11401673Y-16948786D02*
X11392149Y-16967834D01*
X11392149Y-16967834D02*
X11382625Y-16977357D01*
X11382625Y-16977357D02*
X11363577Y-16986881D01*
X11363577Y-16986881D02*
X11344530Y-16986881D01*
X11344530Y-16986881D02*
X11325482Y-16977357D01*
X11325482Y-16977357D02*
X11315958Y-16967834D01*
X11315958Y-16967834D02*
X11306435Y-16948786D01*
X11306435Y-16948786D02*
X11296911Y-16910691D01*
X11296911Y-16910691D02*
X11296911Y-16863072D01*
X11296911Y-16863072D02*
X11306435Y-16824976D01*
X11306435Y-16824976D02*
X11315958Y-16805929D01*
X11315958Y-16805929D02*
X11325482Y-16796405D01*
X11325482Y-16796405D02*
X11344530Y-16786881D01*
X11487387Y-16786881D02*
X11487387Y-16824976D01*
X11563577Y-16786881D02*
X11563577Y-16824976D01*
X11858816Y-17063072D02*
X11849292Y-17053548D01*
X11849292Y-17053548D02*
X11830244Y-17024976D01*
X11830244Y-17024976D02*
X11820720Y-17005929D01*
X11820720Y-17005929D02*
X11811197Y-16977357D01*
X11811197Y-16977357D02*
X11801673Y-16929738D01*
X11801673Y-16929738D02*
X11801673Y-16891643D01*
X11801673Y-16891643D02*
X11811197Y-16844024D01*
X11811197Y-16844024D02*
X11820720Y-16815453D01*
X11820720Y-16815453D02*
X11830244Y-16796405D01*
X11830244Y-16796405D02*
X11849292Y-16767833D01*
X11849292Y-16767833D02*
X11858816Y-16758310D01*
X12030244Y-16786881D02*
X11935006Y-16786881D01*
X11935006Y-16786881D02*
X11925482Y-16882119D01*
X11925482Y-16882119D02*
X11935006Y-16872595D01*
X11935006Y-16872595D02*
X11954054Y-16863072D01*
X11954054Y-16863072D02*
X12001673Y-16863072D01*
X12001673Y-16863072D02*
X12020720Y-16872595D01*
X12020720Y-16872595D02*
X12030244Y-16882119D01*
X12030244Y-16882119D02*
X12039768Y-16901167D01*
X12039768Y-16901167D02*
X12039768Y-16948786D01*
X12039768Y-16948786D02*
X12030244Y-16967834D01*
X12030244Y-16967834D02*
X12020720Y-16977357D01*
X12020720Y-16977357D02*
X12001673Y-16986881D01*
X12001673Y-16986881D02*
X11954054Y-16986881D01*
X11954054Y-16986881D02*
X11935006Y-16977357D01*
X11935006Y-16977357D02*
X11925482Y-16967834D01*
X12277863Y-16986881D02*
X12277863Y-16786881D01*
X12363578Y-16986881D02*
X12363578Y-16882119D01*
X12363578Y-16882119D02*
X12354054Y-16863072D01*
X12354054Y-16863072D02*
X12335006Y-16853548D01*
X12335006Y-16853548D02*
X12306435Y-16853548D01*
X12306435Y-16853548D02*
X12287387Y-16863072D01*
X12287387Y-16863072D02*
X12277863Y-16872595D01*
X12487387Y-16986881D02*
X12468339Y-16977357D01*
X12468339Y-16977357D02*
X12458816Y-16967834D01*
X12458816Y-16967834D02*
X12449292Y-16948786D01*
X12449292Y-16948786D02*
X12449292Y-16891643D01*
X12449292Y-16891643D02*
X12458816Y-16872595D01*
X12458816Y-16872595D02*
X12468339Y-16863072D01*
X12468339Y-16863072D02*
X12487387Y-16853548D01*
X12487387Y-16853548D02*
X12515959Y-16853548D01*
X12515959Y-16853548D02*
X12535006Y-16863072D01*
X12535006Y-16863072D02*
X12544530Y-16872595D01*
X12544530Y-16872595D02*
X12554054Y-16891643D01*
X12554054Y-16891643D02*
X12554054Y-16948786D01*
X12554054Y-16948786D02*
X12544530Y-16967834D01*
X12544530Y-16967834D02*
X12535006Y-16977357D01*
X12535006Y-16977357D02*
X12515959Y-16986881D01*
X12515959Y-16986881D02*
X12487387Y-16986881D01*
X12668339Y-16986881D02*
X12649292Y-16977357D01*
X12649292Y-16977357D02*
X12639768Y-16958310D01*
X12639768Y-16958310D02*
X12639768Y-16786881D01*
X12820720Y-16977357D02*
X12801673Y-16986881D01*
X12801673Y-16986881D02*
X12763578Y-16986881D01*
X12763578Y-16986881D02*
X12744530Y-16977357D01*
X12744530Y-16977357D02*
X12735006Y-16958310D01*
X12735006Y-16958310D02*
X12735006Y-16882119D01*
X12735006Y-16882119D02*
X12744530Y-16863072D01*
X12744530Y-16863072D02*
X12763578Y-16853548D01*
X12763578Y-16853548D02*
X12801673Y-16853548D01*
X12801673Y-16853548D02*
X12820720Y-16863072D01*
X12820720Y-16863072D02*
X12830244Y-16882119D01*
X12830244Y-16882119D02*
X12830244Y-16901167D01*
X12830244Y-16901167D02*
X12735006Y-16920215D01*
X12906435Y-16977357D02*
X12925482Y-16986881D01*
X12925482Y-16986881D02*
X12963578Y-16986881D01*
X12963578Y-16986881D02*
X12982625Y-16977357D01*
X12982625Y-16977357D02*
X12992149Y-16958310D01*
X12992149Y-16958310D02*
X12992149Y-16948786D01*
X12992149Y-16948786D02*
X12982625Y-16929738D01*
X12982625Y-16929738D02*
X12963578Y-16920215D01*
X12963578Y-16920215D02*
X12935006Y-16920215D01*
X12935006Y-16920215D02*
X12915959Y-16910691D01*
X12915959Y-16910691D02*
X12906435Y-16891643D01*
X12906435Y-16891643D02*
X12906435Y-16882119D01*
X12906435Y-16882119D02*
X12915959Y-16863072D01*
X12915959Y-16863072D02*
X12935006Y-16853548D01*
X12935006Y-16853548D02*
X12963578Y-16853548D01*
X12963578Y-16853548D02*
X12982625Y-16863072D01*
X13058816Y-17063072D02*
X13068340Y-17053548D01*
X13068340Y-17053548D02*
X13087387Y-17024976D01*
X13087387Y-17024976D02*
X13096911Y-17005929D01*
X13096911Y-17005929D02*
X13106435Y-16977357D01*
X13106435Y-16977357D02*
X13115959Y-16929738D01*
X13115959Y-16929738D02*
X13115959Y-16891643D01*
X13115959Y-16891643D02*
X13106435Y-16844024D01*
X13106435Y-16844024D02*
X13096911Y-16815453D01*
X13096911Y-16815453D02*
X13087387Y-16796405D01*
X13087387Y-16796405D02*
X13068340Y-16767833D01*
X13068340Y-16767833D02*
X13058816Y-16758310D01*
M02*
